<svg width="226" height="61" viewBox="0 0 226 61" fill="none" xmlns="http://www.w3.org/2000/svg">
<path d="M222.68 3.11096H168.08V57.711H222.68V3.11096Z" fill="#0C0D0D"/>
<path d="M225.5 60.291H0.429932V0.291016H225.5V60.291ZM6.05994 54.661H219.87V5.93102H6.05994V54.661Z" fill="#868686"/>
<path d="M170.89 3.11096H165.26V57.481H170.89V3.11096Z" fill="#868686"/>
<path d="M17.4299 43.291C15.8899 41.841 15.1299 39.901 15.1299 37.481V23.1911C15.1299 20.7711 15.8999 18.8311 17.4299 17.3811C18.9699 15.9311 20.9999 15.201 23.5399 15.201C26.0799 15.201 28.1199 15.9311 29.6699 17.4011C31.2199 18.8711 31.9999 20.8111 31.9999 23.2311V24.8411C31.9999 24.9811 31.9499 25.101 31.8499 25.201C31.7499 25.301 31.6299 25.351 31.4899 25.351H26.5399C26.3999 25.351 26.2799 25.301 26.1799 25.201C26.0799 25.101 26.0298 24.9811 26.0298 24.8411V23.1511C26.0298 22.3011 25.7999 21.6211 25.3499 21.1011C24.8999 20.5811 24.2898 20.3211 23.5298 20.3211C22.7698 20.3211 22.2099 20.5811 21.7499 21.1011C21.2999 21.6211 21.0699 22.3011 21.0699 23.1511V37.5211C21.0699 38.3711 21.2999 39.051 21.7499 39.571C22.1999 40.091 22.7898 40.351 23.5298 40.351C24.2698 40.351 24.8999 40.091 25.3499 39.571C25.7999 39.051 26.0298 38.3711 26.0298 37.5211V34.1411C26.0298 34.0011 25.9599 33.9311 25.8199 33.9311H23.9599C23.8199 33.9311 23.6999 33.8811 23.5999 33.7811C23.4999 33.6811 23.4499 33.5611 23.4499 33.4211V29.6611C23.4499 29.5211 23.4999 29.4011 23.5999 29.3011C23.6999 29.2011 23.8199 29.1511 23.9599 29.1511H31.4799C31.6199 29.1511 31.7399 29.2011 31.8399 29.3011C31.9399 29.4011 31.9899 29.5211 31.9899 29.6611V37.481C31.9899 39.901 31.2099 41.841 29.6599 43.291C28.1099 44.741 26.0698 45.4711 23.5298 45.4711C20.9898 45.4711 18.9599 44.741 17.4199 43.291H17.4299Z" fill="#868686"/>
<path d="M50.5997 44.701L47.3398 33.031C47.2798 32.921 47.2098 32.861 47.1298 32.861H45.6898C45.5498 32.861 45.4797 32.931 45.4797 33.071V44.611C45.4797 44.751 45.4298 44.871 45.3298 44.971C45.2298 45.071 45.1097 45.121 44.9697 45.121H40.0198C39.8798 45.121 39.7597 45.071 39.6597 44.971C39.5597 44.871 39.5098 44.751 39.5098 44.611V16.031C39.5098 15.891 39.5597 15.771 39.6597 15.671C39.7597 15.571 39.8798 15.521 40.0198 15.521H48.5598C50.1098 15.521 51.4898 15.891 52.6998 16.641C53.9098 17.391 54.8498 18.441 55.5098 19.791C56.1698 21.141 56.4998 22.691 56.4998 24.441C56.4998 26.191 56.1797 27.571 55.5497 28.841C54.9197 30.111 54.0297 31.101 52.9097 31.801C52.8497 31.831 52.8097 31.861 52.7797 31.911C52.7497 31.951 52.7497 32.001 52.7797 32.061L56.6697 44.531L56.7098 44.701C56.7098 44.981 56.5497 45.121 56.2397 45.121H51.1697C50.8597 45.121 50.6598 44.981 50.5798 44.701H50.5997ZM45.4797 20.861V28.091C45.4797 28.231 45.5498 28.301 45.6898 28.301H47.5898C48.4598 28.301 49.1797 27.961 49.7197 27.261C50.2697 26.571 50.5397 25.651 50.5397 24.491C50.5397 23.331 50.2597 22.371 49.7197 21.681C49.1697 20.991 48.4598 20.641 47.5898 20.641H45.6898C45.5498 20.641 45.4797 20.711 45.4797 20.851V20.861Z" fill="#868686"/>
<path d="M65.56 43.181C64.01 41.661 63.23 39.631 63.23 37.091V23.561C63.23 21.021 64 18.991 65.56 17.471C67.11 15.951 69.18 15.191 71.77 15.191C74.36 15.191 76.44 15.951 78.01 17.471C79.57 18.991 80.36 21.021 80.36 23.561V37.091C80.36 39.631 79.58 41.661 78.01 43.181C76.45 44.701 74.37 45.461 71.77 45.461C69.17 45.461 67.11 44.701 65.56 43.181ZM73.68 39.521C74.16 38.971 74.4 38.251 74.4 37.341V23.301C74.4 22.401 74.16 21.671 73.68 21.121C73.2 20.571 72.57 20.301 71.78 20.301C70.99 20.301 70.36 20.571 69.9 21.121C69.43 21.671 69.2 22.401 69.2 23.301V37.341C69.2 38.241 69.43 38.971 69.9 39.521C70.36 40.071 70.99 40.341 71.78 40.341C72.57 40.341 73.2 40.071 73.68 39.521Z" fill="#868686"/>
<path d="M90.0598 43.081C88.5198 41.491 87.7598 39.371 87.7598 36.721V16.051C87.7598 15.911 87.8097 15.791 87.9097 15.691C88.0097 15.591 88.1298 15.541 88.2698 15.541H93.2197C93.3597 15.541 93.4798 15.591 93.5798 15.691C93.6798 15.791 93.7297 15.911 93.7297 16.051V37.311C93.7297 38.211 93.9597 38.941 94.4097 39.511C94.8597 40.071 95.4498 40.361 96.1898 40.361C96.9298 40.361 97.5098 40.081 97.9398 39.511C98.3798 38.951 98.5997 38.211 98.5997 37.311V16.051C98.5997 15.911 98.6498 15.791 98.7498 15.691C98.8498 15.591 98.9697 15.541 99.1097 15.541H104.06C104.2 15.541 104.32 15.591 104.42 15.691C104.52 15.791 104.57 15.911 104.57 16.051V36.721C104.57 39.371 103.8 41.491 102.27 43.081C100.73 44.671 98.7098 45.471 96.1998 45.471C93.6898 45.471 91.6298 44.671 90.0898 43.081H90.0598Z" fill="#868686"/>
<path d="M124.35 15.681C124.45 15.581 124.57 15.531 124.71 15.531H129.61C129.75 15.531 129.87 15.581 129.97 15.681C130.07 15.781 130.12 15.901 130.12 16.041V44.621C130.12 44.761 130.07 44.881 129.97 44.981C129.87 45.081 129.75 45.131 129.61 45.131H124.03C123.75 45.131 123.56 44.991 123.48 44.711L118.24 28.351C118.21 28.271 118.16 28.231 118.09 28.241C118.02 28.251 117.98 28.301 117.98 28.391L118.02 44.621C118.02 44.761 117.97 44.881 117.87 44.981C117.77 45.081 117.65 45.131 117.51 45.131H112.61C112.47 45.131 112.35 45.081 112.25 44.981C112.15 44.881 112.1 44.761 112.1 44.621V16.041C112.1 15.901 112.15 15.781 112.25 15.681C112.35 15.581 112.47 15.531 112.61 15.531H118.15C118.43 15.531 118.62 15.671 118.7 15.951L123.98 32.311C124.01 32.391 124.06 32.431 124.13 32.421C124.2 32.411 124.24 32.361 124.24 32.271L124.2 16.041C124.2 15.901 124.25 15.781 124.35 15.681Z" fill="#868686"/>
<path d="M138.21 44.981C138.11 44.881 138.06 44.761 138.06 44.621V16.041C138.06 15.901 138.11 15.781 138.21 15.681C138.31 15.581 138.43 15.531 138.57 15.531H146.22C148.78 15.531 150.84 16.281 152.39 17.771C153.94 19.261 154.72 21.251 154.72 23.731V36.921C154.72 39.401 153.94 41.391 152.39 42.881C150.84 44.371 148.78 45.121 146.22 45.121H138.57C138.43 45.121 138.31 45.071 138.21 44.971V44.981ZM144.23 40.011L146.13 39.971C146.89 39.941 147.51 39.621 147.99 39.001C148.47 38.381 148.72 37.561 148.75 36.551V24.121C148.75 23.051 148.51 22.201 148.03 21.581C147.55 20.961 146.9 20.651 146.09 20.651H144.23C144.09 20.651 144.02 20.721 144.02 20.861V39.801C144.02 39.941 144.09 40.011 144.23 40.011Z" fill="#868686"/>
<path d="M183.26 15.251L191.11 29.171L194.87 22.651L191.08 15.261L183.26 15.251Z" fill="white"/>
<path d="M200.01 15.491L183.61 45.331H190.96L195.45 36.791L200.01 45.331H207.5L199.16 30.411L207.5 15.491H200.01Z" fill="white"/>
</svg>
