<svg width="61" height="61" viewBox="0 0 61 61" fill="none" xmlns="http://www.w3.org/2000/svg">
<path d="M60.1101 30.291C60.1101 38.301 56.9901 45.831 51.3301 51.501C45.6601 57.171 38.1301 60.291 30.1101 60.291C22.0901 60.291 14.5701 57.171 8.90015 51.501C3.23015 45.841 0.120117 38.311 0.120117 30.291C0.120117 22.271 3.24016 14.751 8.91016 9.08101C14.5802 3.41101 22.1101 0.291016 30.1201 0.291016C38.1301 0.291016 45.6601 3.41101 51.3401 9.08101C57.0001 14.751 60.1201 22.281 60.1201 30.291H60.1101Z" fill="#DCDCDC"/>
<path fill-rule="evenodd" clip-rule="evenodd" d="M33.5802 9.33105C33.0902 9.63105 32.6103 9.94105 32.1503 10.2811H37.2601C36.0601 9.86105 34.8302 9.54105 33.5802 9.33105ZM38.6202 10.8311H31.44C31.03 11.1711 30.6401 11.5411 30.2801 11.9211H40.7601C40.0701 11.5111 39.3502 11.1411 38.6202 10.8311ZM41.9501 12.6611H29.6402C29.3702 13.0011 29.1102 13.3711 28.8702 13.7411H43.4303C42.9503 13.3611 42.4601 12.9911 41.9501 12.6611ZM44.1503 14.3511H28.5201C28.3401 14.7011 28.1802 15.0711 28.0502 15.4411H45.2901C44.9201 15.0611 44.5403 14.6911 44.1503 14.3511ZM45.8702 16.0511H27.8702C27.7702 16.4111 27.6902 16.7711 27.6402 17.1411H46.7901C46.4901 16.7611 46.1802 16.3911 45.8702 16.0511ZM47.2701 17.7611H27.5702L27.5602 17.8511C27.5402 18.1811 27.5402 18.5211 27.5602 18.8511H48.0201C47.7801 18.4711 47.5301 18.1111 47.2701 17.7611ZM48.4601 19.5611H27.6302C27.6802 19.9311 27.7502 20.2911 27.8502 20.6511H49.0502C48.8702 20.2711 48.6601 19.9111 48.4601 19.5611ZM49.2901 21.1411H28.0001C28.1301 21.5111 28.2901 21.8711 28.4701 22.2211H49.7701C49.6201 21.8511 49.4601 21.4911 49.2901 21.1411ZM50.0502 22.9411H28.8802C29.1202 23.3111 29.3803 23.6811 29.6603 24.0211H50.4203C50.3003 23.6611 50.1802 23.3011 50.0502 22.9411ZM50.6002 24.6811H30.2001C30.5401 25.0511 30.8901 25.401 31.2601 25.761H50.8702C50.7802 25.401 50.7002 25.0311 50.6002 24.6811ZM51.0001 26.4211H31.9801C32.3901 26.7911 32.8101 27.151 33.2301 27.511H51.19C51.13 27.141 51.0801 26.7711 51.0101 26.4211H51.0001ZM51.2401 28.131H33.9203C34.3103 28.491 34.6701 28.8511 35.0101 29.2111H51.3202C51.3002 28.8511 51.2801 28.481 51.2301 28.131H51.2401ZM35.6202 29.9211C35.9302 30.2811 36.2201 30.6311 36.4901 31.0011H51.3302C51.3402 30.7611 51.3402 30.5211 51.3402 30.2811V29.9111H35.6202V29.9211ZM36.9103 31.5911C37.1503 31.9511 37.3802 32.3011 37.5902 32.6711H51.2201C51.2601 32.3111 51.2902 31.9611 51.3102 31.5911H36.9203H36.9103ZM37.9303 33.3111L37.9501 33.3411L38.0001 33.4311C38.0001 33.4311 38.0101 33.4511 38.0101 33.4611C38.0501 33.5411 38.0902 33.6111 38.1202 33.6911C38.2302 33.9211 38.33 34.1611 38.44 34.3911H50.9501C51.0201 34.0311 51.0802 33.6811 51.1302 33.3111H37.94H37.9303ZM38.6603 35.041C38.7903 35.411 38.9001 35.781 39.0001 36.131H50.5301C50.6401 35.761 50.7302 35.411 50.8102 35.041H38.6603ZM39.1302 36.701C39.2102 37.061 39.2702 37.431 39.3102 37.791H49.9701C50.1001 37.431 50.2302 37.071 50.3502 36.701H39.1302ZM39.3902 38.481C39.4102 38.851 39.4203 39.211 39.4103 39.571H49.2101C49.3801 39.211 49.5501 38.851 49.7001 38.481H39.3902ZM39.3702 40.2511C39.3402 40.6211 39.3001 40.9811 39.2301 41.3411H48.2401C48.4501 40.9811 48.6702 40.6211 48.8602 40.2511H39.3702ZM39.1002 41.9211C39.0102 42.2811 38.9101 42.6411 38.7801 43.0011H47.1002C47.3602 42.6511 47.6202 42.2911 47.8702 41.9211H39.1002ZM38.5401 43.631C38.5001 43.731 38.4603 43.8311 38.4103 43.9311C38.4103 43.9311 38.3802 44.001 38.3602 44.041C38.2602 44.271 38.1501 44.4911 38.0201 44.7211H45.6503C45.9803 44.3711 46.2902 44.0211 46.6002 43.6411H38.5201L38.5401 43.631ZM40.2101 45.6911V45.4211H39.9303L40.2101 45.6911ZM37.6302 45.4211C37.5502 45.5411 37.4803 45.6511 37.4003 45.7711C37.3703 45.8111 37.3502 45.851 37.3202 45.881C37.1802 46.091 37.0202 46.3011 36.8602 46.5011H43.7901C44.2001 46.1511 44.6001 45.8011 44.9901 45.4211H37.6302ZM36.3702 47.0911C36.2902 47.1811 36.2102 47.2611 36.1402 47.3411L36.0802 47.4011C36.0802 47.4011 36.0401 47.4411 36.0201 47.4611C35.7801 47.7111 35.5301 47.9511 35.2701 48.1711H41.5101C42.0401 47.8411 42.5602 47.4711 43.0602 47.0911H36.3702ZM34.5101 48.8111C33.9901 49.2111 33.4402 49.5711 32.8702 49.8911H38.2201C38.9901 49.5711 39.7401 49.2111 40.4601 48.8111H34.5101ZM31.9003 50.4011C30.9903 50.8411 30.0402 51.2011 29.0702 51.4611C29.4202 51.4811 29.7502 51.4911 30.1002 51.4911H30.1202C32.4102 51.4911 34.6802 51.1311 36.8502 50.4111H31.9003V50.4011Z" fill="#656565"/>
<path fill-rule="evenodd" clip-rule="evenodd" d="M24.21 50.701C23.15 50.401 22.1201 50.011 21.1201 49.541C19.4901 48.641 17.9202 47.6311 16.4302 46.5311C11.6502 42.5011 8.89014 36.561 8.89014 30.301C8.89014 18.681 18.22 9.25104 29.79 9.07104C27.01 10.581 21.5301 14.111 20.6301 18.701C19.4201 24.901 22.91 30.5411 26.79 33.2811C27.34 33.6711 27.8701 34.0611 28.3801 34.4411C36.0901 40.3511 34.1 51.771 24.21 50.701Z" fill="#5D5D5D"/>
<path fill-rule="evenodd" clip-rule="evenodd" d="M33.0701 26.791C31.5601 31.651 31.53 36.851 32.97 41.731H27.7C28.73 39.321 29.3201 36.441 29.3201 33.361C29.3301 31.141 29.0001 28.921 28.3501 26.801C29.9101 27.141 31.5201 27.131 33.0801 26.791" fill="#585858"/>
<path fill-rule="evenodd" clip-rule="evenodd" d="M30.5901 20.651C31.6801 20.651 32.5601 21.741 32.5601 23.091C32.5601 24.441 31.6701 25.531 30.5901 25.531C29.5101 25.531 28.6201 24.441 28.6201 23.091C28.6201 21.741 29.5101 20.651 30.5901 20.651Z" fill="#585858"/>
<path fill-rule="evenodd" clip-rule="evenodd" d="M28.3401 26.801C24.6601 25.981 21.95 23.281 21.95 20.081C21.95 19.811 21.97 19.541 22.01 19.271C22.28 19.371 22.5701 19.481 22.8501 19.621C26.1101 21.121 28.1801 23.991 28.3401 26.811" fill="#585858"/>
<path fill-rule="evenodd" clip-rule="evenodd" d="M39.3501 19.291C39.3901 19.551 39.4001 19.811 39.4001 20.081C39.4001 23.271 36.7201 25.961 33.0801 26.791C33.2601 23.981 35.3201 21.111 38.5701 19.611C38.8201 19.491 39.0801 19.381 39.3401 19.281" fill="#585858"/>
<path d="M41.8301 34.6711V47.4311H18.3801V34.6711H20.6702C21.1102 34.2011 21.6101 33.7811 22.1501 33.4311C24.6701 31.8511 27.3601 32.7411 30.1001 34.511C32.8401 32.7311 35.53 31.8511 38.05 33.4311C38.6 33.7811 39.09 34.1911 39.53 34.6711H41.8201H41.8301Z" fill="white"/>
<path d="M40.26 45.921H30.0601V44.561H30.1702V45.801H40.26V45.921Z" fill="#6F6F6F"/>
<path d="M30.1702 45.921H19.96V45.801H30.0601V44.561H30.1702V45.921Z" fill="#6F6F6F"/>
<path d="M22.1301 33.391L22.1001 33.411C21.5701 33.751 21.0801 34.161 20.6501 34.631L20.6301 34.651C20.6301 34.651 20.6001 34.681 20.5901 34.691C20.5701 34.711 20.55 34.731 20.54 34.751C20.53 34.761 20.52 34.771 20.51 34.781L20.3701 34.931C20.2101 35.111 20.0501 35.311 19.9001 35.511V35.531L19.8901 46.011L19.97 45.931L20.0801 45.821L22.1802 43.771L22.21 43.741V33.351C22.21 33.351 22.1601 33.381 22.1301 33.401V33.391ZM20.01 45.721V35.541C20.24 35.241 20.48 34.961 20.71 34.711C21.12 34.261 21.5901 33.871 22.1001 33.541V43.681L20.01 45.731V45.721Z" fill="#6F6F6F"/>
<path d="M23.1101 43.321C22.8701 43.391 22.6301 43.471 22.3901 43.551C22.6301 43.461 22.8701 43.391 23.1101 43.321ZM30.1702 34.491L30.1501 34.471C30.1501 34.471 30.1301 34.451 30.1201 34.451C28.5701 33.451 27.21 32.851 25.96 32.631C24.59 32.401 23.38 32.631 22.22 33.331C22.19 33.351 22.1601 33.371 22.1301 33.381L22.1001 33.401V43.781L22.1802 43.751C22.1802 43.751 22.1799 43.751 22.1899 43.751C22.2699 43.721 22.3502 43.691 22.4302 43.661C22.5902 43.601 22.7501 43.551 22.9001 43.501C22.9801 43.471 23.0701 43.451 23.1501 43.421C23.3001 43.371 23.4501 43.331 23.6001 43.301C23.8401 43.241 24.0801 43.191 24.3101 43.151C24.4501 43.121 24.58 43.101 24.72 43.091C26.78 42.821 28.54 43.321 30.05 44.591C30.05 44.591 30.0601 44.601 30.0701 44.611L30.1101 44.641L30.1702 44.691V34.501V34.491ZM30.0601 44.441L29.97 44.371C29.97 44.371 29.9001 44.321 29.8701 44.291C29.7301 44.181 29.5802 44.081 29.4302 43.981C29.4002 43.961 29.3601 43.941 29.3301 43.921C29.2401 43.861 29.1601 43.821 29.0801 43.771C29.0401 43.741 28.99 43.721 28.95 43.701C28.86 43.651 28.7602 43.601 28.6702 43.561C28.6302 43.541 28.6001 43.521 28.5701 43.511C28.5201 43.491 28.4799 43.471 28.4399 43.451C28.3399 43.401 28.2401 43.361 28.1301 43.331C28.1001 43.331 28.07 43.311 28.04 43.291C28 43.281 27.9699 43.261 27.9399 43.251C27.8999 43.231 27.8601 43.221 27.8201 43.211C27.5901 43.131 27.3501 43.071 27.1101 43.031L27.03 43.011L26.95 42.991C26.86 42.971 26.7702 42.961 26.6802 42.951C26.5802 42.941 26.4901 42.921 26.3801 42.921L26.1802 42.901C26.1002 42.901 26.02 42.891 25.95 42.891H25.78C25.66 42.891 25.5402 42.891 25.4102 42.901C25.2502 42.911 25.0902 42.921 24.9202 42.941C24.8502 42.951 24.77 42.961 24.7 42.971L24.48 43.001C24.25 43.041 24.02 43.081 23.78 43.131C23.71 43.151 23.6401 43.171 23.5701 43.181C23.4801 43.201 23.4001 43.231 23.3101 43.251C23.2401 43.271 23.1701 43.291 23.1001 43.311C22.8601 43.381 22.6201 43.461 22.3801 43.541L22.21 43.601V33.451C23.41 32.711 24.6901 32.481 26.1401 32.771C27.3101 33.011 28.6 33.591 30.05 34.531V44.421L30.0601 44.441Z" fill="#6F6F6F"/>
<path d="M38 43.721V43.611C38 43.611 37.9101 43.581 37.8601 43.561C37.7701 43.521 37.6801 43.491 37.5901 43.461C37.3501 43.381 37.1101 43.301 36.8801 43.241C36.7201 43.191 36.5702 43.161 36.4202 43.121C36.3602 43.111 36.31 43.091 36.25 43.081C36.15 43.061 36.06 43.041 35.97 43.021C35.89 43.001 35.82 42.991 35.75 42.981L35.53 42.951C35.46 42.941 35.3801 42.931 35.3101 42.921C35.2401 42.911 35.1701 42.901 35.0901 42.901L34.8301 42.881C34.7001 42.881 34.58 42.871 34.45 42.871H34.28C34.2 42.871 34.12 42.871 34.05 42.881L33.8501 42.901L33.55 42.931C33.46 42.941 33.37 42.961 33.28 42.971C33.25 42.971 33.23 42.981 33.2 42.991L33.1201 43.011H33.1001C32.8701 43.051 32.6402 43.111 32.4202 43.181L32.28 43.231C32.28 43.231 32.2102 43.261 32.1802 43.271C32.1502 43.271 32.1201 43.291 32.0901 43.311L31.78 43.431C31.78 43.431 31.6901 43.471 31.6501 43.491C31.6201 43.501 31.58 43.521 31.55 43.541C31.24 43.691 30.9401 43.871 30.6501 44.071C30.6101 44.101 30.57 44.131 30.53 44.161L30.4102 44.251C30.3302 44.311 30.2502 44.371 30.1802 44.441V44.591C31.0702 43.841 32.0401 43.361 33.1001 43.151C33.1101 43.151 33.1201 43.151 33.1301 43.151C33.8401 43.021 34.57 42.991 35.3 43.071C35.5 43.091 35.7102 43.121 35.9202 43.161C36.0802 43.191 36.2402 43.221 36.4102 43.261C36.6302 43.311 36.8601 43.371 37.0901 43.441L37.3301 43.521C37.4801 43.571 37.64 43.621 37.8 43.681H37.8101C37.8901 43.711 37.96 43.741 38.04 43.771L38.02 43.741L38 43.721ZM38.0901 33.381C38.0901 33.381 38.03 33.341 38 33.331C35.8 32.011 33.3601 32.351 30.1101 34.451C30.1001 34.451 30.0901 34.461 30.0801 34.471L30.0601 34.491V44.681L30.1201 44.631L30.1602 44.601C30.1602 44.601 30.1802 44.591 30.1802 44.581C31.0702 43.831 32.0401 43.351 33.1001 43.141C33.1101 43.141 33.1201 43.141 33.1301 43.141C33.8401 43.011 34.57 42.981 35.3 43.061C35.5 43.081 35.7102 43.111 35.9202 43.151C36.0802 43.181 36.2402 43.211 36.4102 43.251C36.6302 43.301 36.8601 43.361 37.0901 43.431L37.3301 43.511C37.4801 43.561 37.64 43.611 37.8 43.671H37.8101C37.8901 43.701 37.96 43.731 38.04 43.761H38.05L38.1301 43.791V33.411C38.1301 33.411 38.1201 33.391 38.1101 33.391L38.0901 33.381ZM38 43.611C38 43.611 37.9101 43.581 37.8601 43.561C37.7701 43.521 37.6801 43.491 37.5901 43.461C37.3501 43.381 37.1101 43.301 36.8801 43.241C36.7201 43.191 36.5702 43.161 36.4202 43.121C36.3602 43.111 36.31 43.091 36.25 43.081C36.15 43.061 36.06 43.041 35.97 43.021C35.89 43.001 35.82 42.991 35.75 42.981L35.53 42.951C35.46 42.941 35.3801 42.931 35.3101 42.921C35.2401 42.911 35.1701 42.901 35.0901 42.901L34.8301 42.881C34.7001 42.881 34.58 42.871 34.45 42.871H34.28C34.2 42.871 34.12 42.871 34.05 42.881L33.8501 42.901L33.55 42.931C33.46 42.941 33.37 42.961 33.28 42.971C33.25 42.971 33.23 42.981 33.2 42.991L33.1201 43.011H33.1001C32.8701 43.051 32.6402 43.111 32.4202 43.181L32.28 43.231C32.28 43.231 32.2102 43.261 32.1802 43.271C32.1502 43.271 32.1201 43.291 32.0901 43.311L31.78 43.431C31.78 43.431 31.6901 43.471 31.6501 43.491C31.6201 43.501 31.58 43.521 31.55 43.541C31.24 43.691 30.9401 43.871 30.6501 44.071C30.6101 44.101 30.57 44.131 30.53 44.161L30.4102 44.251C30.3302 44.311 30.2502 44.371 30.1802 44.441V34.551C33.4202 32.461 35.84 32.121 38 33.461C38 33.461 38.01 33.461 38.01 33.471V43.621L38 43.611Z" fill="#6F6F6F"/>
<path d="M38.4001 43.9611L38.1101 43.6811V43.7811L38.03 43.7511C38.03 43.7511 38.03 43.7511 38.02 43.7511L38.3501 44.071L39.04 44.7511H39.2L38.4001 43.9711V43.9611ZM40.3 35.5011C40.19 35.3511 40.08 35.211 39.96 35.071C39.91 35.011 39.8701 34.9611 39.8301 34.9111L39.6899 34.761C39.6899 34.761 39.6702 34.741 39.6602 34.731C39.6402 34.711 39.6201 34.6911 39.6101 34.6711C39.6001 34.6511 39.5801 34.641 39.5701 34.631L39.55 34.6111C39.48 34.5411 39.4201 34.4711 39.3501 34.4111C38.9701 34.0311 38.5501 33.6911 38.1001 33.4011C38.1001 33.4011 38.0801 33.401 38.0701 33.381L37.98 33.3311V43.7211L38.01 43.7511L38.3401 44.071L39.03 44.7511L39.75 45.451L40.1101 45.8011L40.22 45.9111L40.3 45.9911V35.511V35.5011ZM40.2 45.731L39.9202 45.4611L39.2 44.761L38.4001 43.9711L38.1101 43.6911V33.5511C38.5001 33.8111 38.87 34.1011 39.2 34.4311C39.3 34.5311 39.4 34.621 39.49 34.731C39.6 34.841 39.7001 34.9611 39.8101 35.0911C39.9401 35.2411 40.07 35.401 40.2 35.571V45.7411V45.731Z" fill="#6F6F6F"/>
<path d="M40.2 36.161V45.721L39.9202 45.451L39.2 44.751H39.04L39.76 45.451L40.1201 45.801L40.23 45.911L40.3101 45.991V36.161H40.2ZM39.4102 34.621L39.5 34.721C39.61 34.831 39.7101 34.951 39.8201 35.081C39.9501 35.231 40.08 35.391 40.21 35.561V45.741L39.9302 45.471L39.21 44.761L38.4102 43.971L38.1201 43.691L38.1001 43.671H38.0801C38.0801 43.671 38.03 43.641 38 43.631C37.86 43.581 37.7301 43.531 37.5901 43.481C37.3501 43.401 37.1101 43.331 36.8801 43.261C36.7201 43.221 36.5702 43.181 36.4202 43.141C36.3602 43.131 36.31 43.111 36.25 43.101C36.15 43.081 36.06 43.061 35.97 43.041C35.89 43.021 35.82 43.011 35.75 43.001L35.53 42.971C35.46 42.961 35.3801 42.951 35.3101 42.941C35.2401 42.931 35.1701 42.921 35.0901 42.921L34.8301 42.901C34.7001 42.901 34.58 42.891 34.45 42.891H34.28C34.2 42.891 34.12 42.891 34.05 42.901L33.8501 42.921L33.55 42.951C33.46 42.961 33.37 42.981 33.28 42.991C33.25 42.991 33.23 43.001 33.2 43.011L33.1201 43.031C33.1201 43.031 33.1101 43.031 33.1001 43.031C32.8701 43.071 32.6402 43.131 32.4202 43.201L32.28 43.251C32.28 43.251 32.2102 43.281 32.1802 43.291C32.1502 43.291 32.1201 43.311 32.0901 43.331L31.78 43.451C31.78 43.451 31.6901 43.491 31.6501 43.511C31.6201 43.521 31.58 43.541 31.55 43.561C31.24 43.711 30.9401 43.891 30.6501 44.091C30.6101 44.121 30.57 44.151 30.53 44.181L30.4102 44.271C30.3302 44.331 30.2502 44.391 30.1802 44.461C30.1602 44.481 30.1401 44.491 30.1201 44.511C30.1001 44.491 30.0801 44.481 30.0601 44.461L29.97 44.391C29.97 44.391 29.9001 44.341 29.8701 44.311C29.7301 44.201 29.5802 44.101 29.4302 44.001C29.4002 43.981 29.3601 43.961 29.3301 43.941C29.2401 43.881 29.1601 43.841 29.0801 43.791C29.0401 43.761 28.99 43.741 28.95 43.721C28.86 43.671 28.7602 43.621 28.6702 43.581C28.6302 43.561 28.6001 43.541 28.5701 43.531C28.5201 43.511 28.4799 43.491 28.4399 43.471C28.3399 43.421 28.2401 43.381 28.1301 43.351C28.1001 43.351 28.07 43.331 28.04 43.311C28 43.301 27.9699 43.281 27.9399 43.271C27.8999 43.251 27.8601 43.241 27.8201 43.231C27.5901 43.151 27.3501 43.091 27.1101 43.051L27.03 43.031L26.95 43.011C26.86 42.991 26.7702 42.981 26.6802 42.971C26.5802 42.961 26.4901 42.941 26.3801 42.941L26.1802 42.921C26.1002 42.921 26.02 42.911 25.95 42.911H25.78C25.66 42.911 25.5402 42.911 25.4102 42.921C25.2502 42.931 25.0902 42.941 24.9202 42.961C24.8502 42.971 24.77 42.981 24.7 42.991L24.48 43.021C24.25 43.061 24.02 43.101 23.78 43.151C23.71 43.171 23.6401 43.191 23.5701 43.201C23.4801 43.221 23.4001 43.251 23.3101 43.271C23.2401 43.291 23.1701 43.311 23.1001 43.331C22.8701 43.401 22.6201 43.481 22.3801 43.561L22.21 43.621L22.1301 43.651H22.1201L22.0901 43.681L20 45.731V35.541C20.23 35.241 20.47 34.961 20.7 34.711L20.79 34.611H18.3101V47.481H41.8701V34.611H39.4001L39.4102 34.621ZM20.52 34.761L20.3801 34.911C20.2201 35.091 20.0602 35.291 19.9102 35.491V35.511L19.9001 45.991L19.98 45.911L20.0901 45.801L22.1899 43.751C22.2699 43.721 22.3502 43.691 22.4302 43.661C22.5902 43.601 22.7501 43.551 22.9001 43.501C22.9801 43.471 23.0701 43.451 23.1501 43.421C23.3001 43.371 23.4601 43.331 23.6001 43.301C23.8401 43.241 24.0801 43.191 24.3101 43.151C24.4501 43.121 24.58 43.101 24.72 43.091C26.78 42.821 28.54 43.321 30.05 44.591C30.05 44.591 30.0601 44.601 30.0701 44.611L30.1101 44.641L30.1501 44.611C30.1501 44.611 30.1702 44.601 30.1702 44.591C31.0602 43.841 32.0301 43.361 33.0901 43.151C33.0901 43.151 33.1101 43.151 33.1201 43.151C33.8301 43.021 34.56 42.991 35.29 43.071C35.49 43.091 35.7002 43.121 35.9102 43.161C36.0702 43.191 36.2301 43.221 36.4001 43.261C36.6201 43.311 36.8501 43.371 37.0801 43.441L37.3201 43.521C37.4701 43.571 37.63 43.621 37.79 43.681H37.8C37.88 43.711 37.95 43.741 38.03 43.771L38.3601 44.091L39.05 44.771L39.77 45.471L40.1301 45.821L40.24 45.931L40.3201 46.011V35.521C40.2001 35.371 40.09 35.231 39.97 35.091C39.92 35.031 39.8801 34.981 39.8401 34.931L39.7 34.781C39.7 34.781 39.6802 34.761 39.6702 34.751H41.78V47.401H18.46V34.761H20.5701L20.54 34.791L20.52 34.761Z" fill="#6F6F6F"/>
<path d="M51.3201 9.08101C45.6501 3.41101 38.1201 0.291016 30.1001 0.291016C22.0801 0.291016 14.5601 3.41101 8.89014 9.08101C3.22014 14.751 0.110107 22.281 0.110107 30.291C0.110107 38.301 3.23015 45.831 8.90015 51.501C14.5701 57.171 22.1001 60.291 30.1101 60.291C38.1201 60.291 45.6501 57.171 51.3301 51.501C57.0101 45.831 60.1101 38.301 60.1101 30.291C60.1101 22.281 56.9901 14.751 51.3201 9.08101ZM30.1001 59.731C13.8701 59.731 0.660156 46.531 0.660156 30.291C0.660156 14.051 13.8701 0.851013 30.1001 0.851013C46.3301 0.851013 59.54 14.051 59.54 30.291C59.54 46.531 46.3401 59.731 30.1001 59.731Z" fill="black"/>
<path d="M3.03002 33.121L2.95995 31.971C2.93995 31.771 2.95998 31.561 2.98998 31.361C3.02998 31.181 3.11999 31.011 3.24999 30.871C3.38999 30.731 3.54998 30.621 3.73998 30.541C3.96998 30.451 4.21996 30.411 4.46996 30.401C4.70996 30.381 4.94015 30.401 5.17015 30.471C5.37015 30.531 5.54994 30.621 5.69994 30.761C5.81994 30.881 5.90996 31.031 5.96996 31.191C6.02996 31.371 6.06006 31.561 6.07006 31.741L6.14013 32.931L4.78002 33.011L4.80004 33.341L4.40013 33.371L4.38012 33.041L3.02001 33.121H3.03002ZM3.52001 32.461L4.35009 32.411L4.31005 31.741L4.70995 31.711L4.74999 32.381L5.58007 32.331L5.55004 31.861C5.54004 31.651 5.50996 31.501 5.46996 31.411C5.41996 31.291 5.32996 31.201 5.21996 31.151C5.04996 31.071 4.80997 31.041 4.47997 31.061C4.29997 31.061 4.11993 31.101 3.93993 31.151C3.82993 31.191 3.72013 31.251 3.64013 31.331C3.57013 31.411 3.50998 31.521 3.48998 31.631C3.46998 31.811 3.46998 31.991 3.48998 32.171L3.51 32.471L3.52001 32.461Z" fill="black"/>
<path d="M6.18994 27.071L6.14014 27.761L5.41016 27.981L5.32007 29.231L6.01001 29.541L5.95996 30.2111L2.92017 28.7811L2.96997 28.1111L6.17017 27.0811L6.18994 27.071ZM4.88013 28.1411L3.68994 28.4911L4.82007 28.9911L4.88013 28.1411ZM6.92017 29.0011L6.32007 28.9611L6.36011 28.3611L6.95996 28.4011L6.92017 29.0011Z" fill="black"/>
<path d="M6.27002 26.8311L3.18018 26.3411L3.28003 25.7111L6.37012 26.201L6.27002 26.8311Z" fill="black"/>
<path d="M6.68994 24.5211L3.69995 23.6111L3.88013 23.0011L5.05005 23.3611L5.41016 22.1711L4.23999 21.8111L4.42017 21.201L7.41016 22.1111L7.22998 22.7211L5.92017 22.3211L5.56006 23.5111L6.87012 23.9111L6.68994 24.5111V24.5211Z" fill="black"/>
<path d="M6.15015 21.071C5.86015 20.941 5.63998 20.791 5.47998 20.611C5.36998 20.481 5.26996 20.331 5.20996 20.171C5.14996 20.021 5.12012 19.851 5.12012 19.691C5.12012 19.461 5.19004 19.231 5.29004 19.021C5.48004 18.601 5.76014 18.321 6.14014 18.191C6.52014 18.061 6.93015 18.091 7.40015 18.311C7.87015 18.531 8.16006 18.811 8.31006 19.171C8.46006 19.531 8.42999 19.931 8.23999 20.351C8.04999 20.771 7.77015 21.051 7.40015 21.181C7.03015 21.311 6.61016 21.281 6.16016 21.071H6.15015ZM6.40015 20.471C6.72015 20.621 6.99998 20.651 7.22998 20.581C7.66998 20.441 7.92002 19.961 7.77002 19.521C7.77002 19.501 7.74999 19.471 7.73999 19.451C7.63999 19.231 7.4301 19.041 7.1001 18.891C6.7701 18.741 6.50002 18.701 6.27002 18.771C5.82002 18.931 5.57999 19.421 5.73999 19.871C5.73999 19.881 5.74 19.891 5.75 19.911C5.84 20.131 6.06013 20.321 6.38013 20.461L6.40015 20.471ZM8.83008 20.981L8.29004 20.731L8.54004 20.191L9.08008 20.441L8.83008 20.981Z" fill="black"/>
<path d="M9.10005 16.3109L9.59004 15.8909C9.83004 16.1509 9.95995 16.4209 9.98995 16.6909C10.0199 16.9609 9.93997 17.2409 9.75997 17.5209C9.53997 17.8709 9.24005 18.0809 8.85005 18.1609C8.46005 18.2409 8.0701 18.1409 7.6501 17.8909C7.2101 17.6209 6.94004 17.2809 6.84004 16.9109C6.74004 16.5409 6.79999 16.1509 7.02999 15.7809C7.22999 15.4509 7.49002 15.2509 7.81002 15.1709C8.00002 15.1209 8.21993 15.1309 8.46993 15.2109L8.26998 15.8209C8.12998 15.7709 7.97003 15.7609 7.82003 15.8209C7.67003 15.8709 7.54993 15.9809 7.46993 16.1109C7.34993 16.2909 7.32008 16.5109 7.38008 16.7209C7.45008 16.9309 7.62991 17.1309 7.94991 17.3309C8.28991 17.5409 8.55999 17.631 8.77999 17.591C8.98999 17.561 9.18 17.4409 9.29 17.2509C9.38 17.1209 9.41008 16.9509 9.38008 16.8009C9.35008 16.6409 9.26005 16.4709 9.10005 16.3109Z" fill="black"/>
<path d="M11.8701 14.5811L9.92017 12.8611L9.30005 13.5611L8.90015 13.2111L10.54 11.3511L10.9399 11.7011L10.3301 12.3911L12.28 14.1111L11.8601 14.5811H11.8701Z" fill="black"/>
<path d="M12.1001 9.66098L11.8201 9.91098L10.96 9.83098L11.46 9.38098L12.1101 9.66098H12.1001ZM15.23 11.291L14.72 11.751L14.04 11.401L13.1101 12.231L13.3901 12.931L12.8901 13.381L11.71 10.241L12.21 9.79099L15.23 11.281V11.291ZM13.54 11.151L12.45 10.581L12.9102 11.721L13.55 11.151H13.54Z" fill="black"/>
<path d="M15.45 11.181L13.5801 8.68103L14.0801 8.30103L15.95 10.801L15.45 11.181Z" fill="black"/>
<path d="M17.3601 9.82098L15.8501 7.08098L16.3901 6.78098L18.52 7.99098L17.51 6.16098L18.02 5.88098L19.53 8.62099L18.98 8.93098L16.8901 7.76099L17.8801 9.55098L17.3701 9.83098L17.3601 9.82098Z" fill="black"/>
<path d="M20.99 6.771L20.8001 6.28099L22.0701 5.791L22.52 6.95099C22.44 7.12099 22.3101 7.29099 22.1101 7.47099C21.9201 7.65099 21.7 7.791 21.45 7.881C21.18 7.991 20.8801 8.03099 20.5801 8.00099C20.3101 7.96099 20.0601 7.841 19.8601 7.651C19.6501 7.451 19.4902 7.21099 19.3902 6.94099C19.2802 6.66099 19.23 6.361 19.26 6.051C19.29 5.771 19.4201 5.501 19.6101 5.291C19.7901 5.101 20.01 4.961 20.25 4.871C20.61 4.731 20.92 4.691 21.19 4.771C21.45 4.841 21.6801 5.011 21.8301 5.241L21.2901 5.58099C21.2001 5.46099 21.0702 5.37099 20.9302 5.33099C20.7702 5.29099 20.61 5.311 20.46 5.371C20.2 5.471 20.03 5.631 19.94 5.851C19.85 6.071 19.87 6.341 20 6.661C20.14 7.011 20.31 7.231 20.53 7.351C20.75 7.461 21.01 7.471 21.24 7.381C21.37 7.331 21.4801 7.261 21.5801 7.161C21.6801 7.071 21.7601 6.97099 21.8301 6.86099L21.69 6.491L21.01 6.761L20.99 6.771Z" fill="black"/>
<path d="M22.4001 4.17105L23.02 4.02106L23.4202 5.66106C23.4602 5.83106 23.5101 6.00106 23.5701 6.16106C23.6201 6.27106 23.7101 6.36106 23.8301 6.41106C23.9501 6.46106 24.09 6.47106 24.26 6.43106C24.43 6.39106 24.5601 6.32106 24.6301 6.23106C24.7001 6.15106 24.73 6.04106 24.73 5.93106C24.71 5.75106 24.6801 5.58106 24.6301 5.41106L24.22 3.73106L24.8401 3.58105L25.23 5.18106C25.32 5.55106 25.3701 5.81106 25.3701 5.96106C25.3701 6.11106 25.35 6.26105 25.28 6.39105C25.21 6.52105 25.11 6.64106 24.98 6.73106C24.81 6.84106 24.6202 6.92106 24.4202 6.96106C24.1302 7.03106 23.9 7.05106 23.73 7.02106C23.58 7.00106 23.4401 6.94106 23.3101 6.85106C23.2001 6.77106 23.1201 6.67106 23.0601 6.55106C22.9801 6.39106 22.9001 6.13106 22.8101 5.79106L22.4102 4.16106L22.4001 4.17105Z" fill="black"/>
<path d="M26.9399 6.42107L26.79 5.11107L25.4399 3.45107L26.1702 3.36107L27.04 4.50107L27.6101 3.19107L28.3301 3.10107L27.4001 5.04108L27.55 6.34108L26.9202 6.42107H26.9399Z" fill="black"/>
<path d="M28.9399 6.22101V3.09102H31.25V3.62102H29.5601V4.32101H31.1301V4.84102H29.5601V5.69101H31.3V6.21101H28.9302L28.9399 6.22101ZM29.3301 2.91101L29.78 2.28101H30.3301L30.77 2.91101H30.29L30.04 2.59102L29.8101 2.91101H29.3301Z" fill="black"/>
<path d="M31.77 6.241L32.1501 3.14099L32.76 3.211L33.78 5.44099L34.03 3.371L34.6101 3.44099L34.23 6.541L33.6001 6.461L32.5901 4.28099L32.3501 6.30099L31.77 6.231V6.241Z" fill="black"/>
<path d="M36.71 7.13104L36.54 3.81104L37.2 4.01105L37.29 6.45103L38.6899 4.46104L39.3301 4.65105L37.3601 7.33104L36.71 7.13104Z" fill="black"/>
<path d="M41.23 8.881L40.6001 8.61099L40.6401 7.851L39.5 7.351L38.98 7.89099L38.3701 7.621L40.74 5.241L41.3501 5.511L41.24 8.881H41.23ZM40.6702 7.28099L40.74 6.041L39.8901 6.931L40.6702 7.28099ZM41.4302 5.36099L41.0801 5.211L40.8 4.39099L41.4202 4.661V5.36099H41.4302Z" fill="black"/>
<path d="M42.46 9.56094L44.23 6.98096L45.01 7.51096L44.27 9.59096L45.9399 8.15096L46.72 8.68095L44.95 11.261L44.47 10.931L45.8601 8.90096L43.96 10.5809L43.46 10.231L44.3401 7.85095L42.95 9.88095L42.47 9.55095L42.46 9.56094Z" fill="black"/>
<path d="M46.3 10.381C46.51 10.151 46.7299 9.98102 46.9499 9.89102C47.1099 9.82102 47.2799 9.78103 47.4499 9.77103C47.6199 9.76103 47.7799 9.77103 47.9399 9.84103C48.1599 9.92103 48.35 10.051 48.52 10.211C48.86 10.521 49.03 10.881 49.04 11.271C49.05 11.661 48.88 12.051 48.54 12.431C48.2 12.811 47.8299 13.001 47.4399 13.031C47.0499 13.061 46.68 12.911 46.34 12.601C46 12.291 45.82 11.931 45.81 11.541C45.8 11.151 45.96 10.761 46.3 10.401V10.381ZM46.8 10.801C46.56 11.061 46.4399 11.311 46.4399 11.561C46.4399 11.801 46.5299 12.031 46.7099 12.181C46.8799 12.351 47.1201 12.431 47.3501 12.401C47.5901 12.371 47.83 12.231 48.08 11.961C48.33 11.691 48.4499 11.451 48.4499 11.211C48.4499 10.971 48.3501 10.751 48.1701 10.591C48.0001 10.421 47.76 10.341 47.52 10.361C47.29 10.391 47.04 10.531 46.8 10.801ZM48.06 9.59103L48.81 9.43103L49.2199 9.81102L49.1201 10.571L48.76 10.241L48.79 9.84103L48.4001 9.92102L48.05 9.59103H48.06Z" fill="black"/>
<path d="M47.75 13.891L50.0601 11.791L50.48 12.261L48.1702 14.361L47.75 13.891Z" fill="black"/>
<path d="M49.6802 16.2611L51.8101 14.7711L51.28 14.0111L51.71 13.701L53.1301 15.7311L52.7 16.0411L52.1702 15.2811L50.04 16.7711L49.6702 16.2511L49.6802 16.2611Z" fill="black"/>
<path d="M50.74 17.8111L53.5 16.3311L54.1301 17.5011C54.2901 17.8011 54.3801 18.0211 54.4001 18.1811C54.4201 18.3411 54.3901 18.5011 54.3101 18.6411C54.2201 18.7911 54.0899 18.9111 53.9399 18.9911C53.7599 19.1011 53.5401 19.1311 53.3301 19.0811C53.1301 19.0311 52.95 18.9011 52.78 18.6711C52.78 18.8111 52.75 18.9611 52.71 19.0911C52.64 19.2811 52.5402 19.4711 52.4302 19.6411L52.0701 20.2711L51.71 19.6011L52.0901 18.8811C52.1801 18.7111 52.2601 18.5411 52.3401 18.3711C52.3701 18.3011 52.3701 18.2211 52.3701 18.1411C52.3501 18.0411 52.31 17.9411 52.25 17.8411L52.1899 17.7311L51.04 18.3511L50.74 17.8011V17.8111ZM52.6301 17.5111L52.8501 17.9211C52.9901 18.1811 53.0901 18.3511 53.1501 18.4011C53.2001 18.4511 53.2701 18.4911 53.3501 18.4911C53.5301 18.4911 53.69 18.4011 53.77 18.2411C53.8 18.1511 53.8 18.0611 53.77 17.9711C53.75 17.9211 53.6801 17.7911 53.5601 17.5611L53.3301 17.1311L52.6401 17.5111H52.6301Z" fill="black"/>
<path d="M56.04 21.961L56.25 22.521L55.8501 22.671C55.7201 22.721 55.5899 22.761 55.4499 22.771C55.3399 22.771 55.2401 22.751 55.1401 22.701C54.9801 22.621 54.8299 22.461 54.6999 22.221L54.4399 22.321C54.0899 22.451 53.8402 22.521 53.6802 22.551C53.5302 22.571 53.39 22.551 53.25 22.511C52.96 22.401 52.7401 22.141 52.5801 21.721C52.4101 21.261 52.4 20.891 52.56 20.611C52.62 20.491 52.7101 20.401 52.8201 20.331C52.9701 20.231 53.21 20.121 53.54 19.991L55.1001 19.411L55.3201 20.001L53.73 20.591C53.56 20.651 53.4 20.711 53.25 20.791C53.01 20.941 52.94 21.181 53.06 21.511C53.18 21.831 53.3601 21.961 53.6101 21.911C53.7801 21.871 53.9501 21.821 54.1201 21.751L55.74 21.151L55.9599 21.741L54.9101 22.131C55.0201 22.311 55.14 22.421 55.27 22.461C55.37 22.481 55.4701 22.461 55.5701 22.431L55.47 22.161L56.03 21.961H56.04Z" fill="black"/>
<path d="M56.99 25.931L57.1101 26.511L56.6899 26.601C56.5599 26.631 56.42 26.651 56.28 26.641C56.17 26.631 56.07 26.591 55.98 26.531C55.88 26.461 55.8 26.371 55.74 26.271C55.65 26.301 55.57 26.321 55.48 26.341C54.99 26.441 54.57 26.391 54.24 26.181C53.91 25.971 53.6901 25.641 53.5901 25.191C53.4901 24.741 53.56 24.341 53.78 24.021C54 23.701 54.3501 23.481 54.8401 23.381C55.3501 23.271 55.7801 23.331 56.1301 23.551C56.4501 23.751 56.65 24.071 56.75 24.521C56.85 24.971 56.78 25.361 56.56 25.691C56.42 25.891 56.23 26.061 56.01 26.161C56.12 26.311 56.2699 26.361 56.4699 26.331L56.4101 26.051L56.99 25.931ZM55 24.011C54.66 24.081 54.42 24.211 54.26 24.421C54.11 24.611 54.0601 24.851 54.1201 25.091C54.1601 25.331 54.3 25.531 54.52 25.641C54.74 25.761 55.0201 25.781 55.3601 25.711C55.7001 25.641 55.9501 25.511 56.1001 25.321C56.2501 25.131 56.28 24.911 56.23 24.651C56.18 24.391 56.0501 24.201 55.8401 24.091C55.6201 23.971 55.34 23.941 55 24.011ZM56.9499 24.821L56.8701 24.451L57.3701 23.741L57.51 24.401L56.9499 24.821Z" fill="black"/>
<path d="M54.04 27.381L57.1602 27.161L57.2 27.771L55.21 29.191L57.29 29.051L57.3301 29.631L54.21 29.851L54.1602 29.221L56.1101 27.821L54.0801 27.961L54.04 27.381Z" fill="black"/>
<path d="M55.2799 31.9511L55.7999 31.9811L55.7099 33.3411L54.4699 33.2611C54.3499 33.1211 54.2501 32.9211 54.1701 32.6611C54.0901 32.4111 54.06 32.1511 54.07 31.8911C54.08 31.5911 54.17 31.3011 54.33 31.0511C54.48 30.8211 54.6998 30.6411 54.9498 30.5411C55.2198 30.4311 55.5099 30.3911 55.7899 30.4111C56.0899 30.4211 56.39 30.5111 56.64 30.6711C56.88 30.8211 57.0701 31.0411 57.1801 31.3111C57.2701 31.5211 57.3099 31.7711 57.2899 32.0711C57.2599 32.4611 57.1699 32.7611 56.9899 32.9611C56.8099 33.1711 56.5599 33.3111 56.2899 33.3411L56.2099 32.7111C56.3599 32.6811 56.49 32.6011 56.59 32.4911C56.69 32.3611 56.7499 32.2011 56.7499 32.0411C56.7699 31.7711 56.6899 31.5411 56.5299 31.3711C56.3699 31.2011 56.1099 31.1011 55.7699 31.0811C55.3999 31.0611 55.1201 31.1211 54.9201 31.2711C54.7301 31.4211 54.61 31.6511 54.6 31.9011C54.6 32.0411 54.6 32.1711 54.65 32.3011C54.69 32.4211 54.75 32.5411 54.82 32.6511L55.2199 32.6811L55.2599 31.9511H55.2799Z" fill="black"/>
<path d="M9.73999 43.901L9.3501 44.191L9.86011 44.881L7.93018 46.301L8.28003 46.771L10.21 45.351L10.72 46.041L11.1101 45.751L9.75 43.911L9.73999 43.901Z" fill="black"/>
<path d="M12.4302 47.2211L11.5901 47.9911L10.8201 47.1511L11.6602 46.381L11.27 45.951L9.14014 47.9011L9.53003 48.3311L10.46 47.481L11.23 48.321L10.3 49.1711L10.6899 49.601L12.8201 47.6511L12.4302 47.2211Z" fill="black"/>
<path d="M14.0801 47.791L14.1001 48.591L14.3601 48.821L14.54 48.201L14.0701 47.791H14.0801ZM13.78 48.531L11.03 49.961L11.5 50.371L12.1101 50.031L12.98 50.791L12.74 51.451L13.22 51.871L14.25 48.941L13.79 48.531H13.78ZM13.1602 50.301L12.5601 49.781L13.5601 49.231L13.1602 50.301Z" fill="black"/>
<path d="M16.72 50.791L15.6301 52.381L15.75 50.121L15.28 49.801L13.6401 52.181L14.0901 52.491L15.1602 50.941L15.05 53.151L15.53 53.481L17.1702 51.101L16.72 50.791Z" fill="black"/>
<path d="M19.1001 52.171L18.5701 53.171L17.5601 52.641L18.0901 51.631L17.5801 51.361L16.22 53.911L16.73 54.181L17.3301 53.071L18.3401 53.611L17.74 54.721L18.25 54.991L19.6101 52.441L19.1001 52.171Z" fill="black"/>
<path d="M22.8601 54.041C22.8101 53.871 22.7001 53.731 22.5601 53.641C22.4701 53.581 22.2502 53.491 21.9202 53.371L21.04 53.061L20.0901 55.791L20.6401 55.981L21 54.951L21.3601 55.081C21.5501 55.151 21.7499 55.211 21.9399 55.241C22.0499 55.251 22.16 55.241 22.27 55.211C22.39 55.171 22.5001 55.111 22.6001 55.021C22.7101 54.911 22.7901 54.781 22.8401 54.631C22.9201 54.411 22.9301 54.221 22.8701 54.051L22.8601 54.041ZM22.26 54.431C22.21 54.581 22.0701 54.691 21.9001 54.691C21.8201 54.691 21.67 54.651 21.45 54.581L21.1501 54.471L21.4202 53.701L21.6802 53.791C21.8102 53.831 21.9501 53.881 22.0701 53.951C22.1501 53.991 22.21 54.061 22.25 54.151C22.28 54.241 22.28 54.341 22.25 54.431H22.26Z" fill="black"/>
<path d="M25.1501 54.271L24.9001 55.371L23.79 55.121L24.04 54.011L23.47 53.881L22.8201 56.691L23.3901 56.821L23.6702 55.591L24.78 55.841L24.5 57.071L25.0701 57.201L25.72 54.391L25.1501 54.261V54.271Z" fill="black"/>
<path d="M27.5301 53.881L27.26 54.181L27.6101 54.221L28.1502 53.961L27.5301 53.891V53.881ZM27.6602 54.291L27.3101 54.251L26.8601 54.461L27.25 54.501L27.48 54.381L27.6802 54.551L28.0701 54.591L27.6702 54.291H27.6602ZM28.4302 55.081C28.2102 54.791 27.88 54.621 27.46 54.581C27.25 54.551 27.0301 54.571 26.8301 54.631C26.6801 54.681 26.5502 54.751 26.4302 54.851C26.3002 54.951 26.2001 55.081 26.1201 55.221C26.0001 55.441 25.9302 55.691 25.9102 55.941C25.8602 56.401 25.9502 56.771 26.1702 57.051C26.3902 57.341 26.7202 57.501 27.1502 57.551C27.5802 57.601 27.92 57.501 28.2 57.271C28.48 57.041 28.65 56.691 28.69 56.221C28.75 55.761 28.6602 55.381 28.4302 55.091V55.081ZM28.1001 56.141C28.0601 56.471 27.9601 56.711 27.7901 56.861C27.4701 57.141 26.98 57.111 26.7 56.791C26.68 56.771 26.6702 56.751 26.6602 56.731C26.5302 56.551 26.48 56.291 26.52 55.971C26.56 55.651 26.6601 55.401 26.8201 55.251C26.9801 55.101 27.2102 55.041 27.4302 55.071C27.6502 55.081 27.85 55.201 27.98 55.381C28.1 55.561 28.1501 55.811 28.1101 56.141H28.1001Z" fill="black"/>
<path d="M32.55 54.671L31.97 54.701L32.03 55.831L30.8901 55.891L30.8301 54.761L30.25 54.791L30.4001 57.671L30.98 57.641L30.9102 56.381L32.05 56.321L32.1201 57.581L32.7 57.551L32.55 54.671Z" fill="black"/>
<path d="M34.39 54.031L34.0399 54.091L33.6601 54.421L34.0399 54.351L34.2299 54.171L34.4699 54.281L34.85 54.211L34.39 54.031ZM34.15 53.681L33.5399 53.781L34.09 54.011L34.4398 53.951L34.1601 53.681H34.15ZM35.9101 55.601C35.8301 55.141 35.64 54.801 35.35 54.581C35.05 54.371 34.6899 54.291 34.2799 54.361C34.0699 54.391 33.8701 54.471 33.6801 54.581C33.5501 54.661 33.44 54.771 33.35 54.901C33.26 55.031 33.19 55.181 33.15 55.331C33.1 55.581 33.1 55.831 33.15 56.081C33.23 56.531 33.4099 56.871 33.6999 57.081C33.9899 57.291 34.3499 57.361 34.7799 57.291C35.1999 57.221 35.5099 57.031 35.7199 56.731C35.9299 56.431 35.9901 56.051 35.9101 55.591V55.601ZM35.2199 56.471C34.9899 56.831 34.51 56.941 34.15 56.711C34.13 56.701 34.11 56.681 34.09 56.671C33.91 56.531 33.7899 56.301 33.7399 55.981C33.6899 55.661 33.71 55.401 33.83 55.211C33.95 55.021 34.14 54.901 34.36 54.871C34.6 54.831 34.7999 54.871 34.9699 55.011C35.1399 55.151 35.25 55.381 35.31 55.701C35.37 56.021 35.3399 56.281 35.2099 56.481L35.2199 56.471Z" fill="black"/>
<path d="M39.94 54.911L39.3502 54.931C39.3802 55.141 39.3501 55.321 39.2701 55.451C39.2001 55.581 39.08 55.671 38.94 55.721C38.76 55.791 38.5502 55.771 38.3802 55.671C38.2102 55.571 38.06 55.341 37.94 55.001C37.83 54.671 37.8102 54.421 37.8802 54.231C37.9502 54.041 38.1101 53.901 38.3001 53.841C38.5701 53.731 38.8901 53.841 39.0301 54.101L39.5301 53.781C39.4201 53.611 39.2602 53.471 39.0802 53.371C38.8102 53.241 38.5002 53.241 38.1602 53.351C37.7802 53.481 37.5102 53.721 37.3702 54.051C37.2302 54.381 37.2302 54.771 37.3902 55.231C37.5402 55.661 37.7702 55.961 38.0902 56.131C38.4102 56.301 38.7502 56.321 39.1102 56.191C39.4002 56.091 39.6201 55.941 39.7601 55.721C39.9001 55.501 39.96 55.241 39.94 54.911Z" fill="black"/>
<path d="M41.71 51.871L41.1899 52.121L41.6802 53.141L40.6501 53.631L40.1602 52.611L39.6401 52.861L40.8901 55.461L41.4102 55.211L40.8701 54.071L41.9001 53.581L42.4399 54.721L42.96 54.471L41.71 51.871Z" fill="black"/>
<path d="M42.6401 51.321L42.1401 51.611L43.5901 54.111L44.0901 53.811L42.6401 51.321ZM41.9302 50.861L41.99 51.511L42.29 51.331L42.46 50.551L41.9302 50.861Z" fill="black"/>
<path d="M47.9102 51.1111L46.1501 48.8311L45.46 49.3611L46.25 51.231L44.6301 49.9911L43.9399 50.5211L45.7 52.8011L46.1301 52.4711L44.74 50.6711L46.5801 52.1211L47.02 51.7811L46.0801 49.631L47.47 51.4311L47.9001 51.0911L47.9102 51.1111Z" fill="black"/>
<path d="M46.9001 48.101L46.47 48.501L48.4202 50.621L48.8501 50.231L46.9001 48.101Z" fill="black"/>
<path d="M50.9302 48.081L48.8101 46.121L48.4399 46.521L49.8501 47.831L47.6401 47.381L47.25 47.801L49.3701 49.761L49.74 49.361L48.3601 48.081L50.53 48.511L50.9302 48.081Z" fill="black"/>
<path d="M52.48 46.061L52.8301 45.591L50.51 43.881L50.1602 44.351L51.0801 45.031L50.4001 45.951L49.48 45.271L49.1301 45.741L51.45 47.451L51.8 46.981L50.78 46.231L51.46 45.311L52.47 46.061H52.48Z" fill="black"/>
</svg>
