<svg width="80" height="79" viewBox="0 0 80 79" fill="none" xmlns="http://www.w3.org/2000/svg">
<path d="M67.6597 51.0058C74.1149 35.7465 66.9778 18.1434 51.7185 11.6882C36.4591 5.23299 18.856 12.3701 12.4008 27.6295C5.94563 42.8888 13.0828 60.4919 28.3421 66.9471C43.6014 73.4023 61.2045 66.2652 67.6597 51.0058Z" fill="white"/>
<path d="M39.0399 9.72104C22.7099 10.241 9.88991 23.901 10.4199 40.231C10.9399 56.561 24.5999 69.381 40.9399 68.851C57.2699 68.331 70.0899 54.671 69.5599 38.331C69.0399 22.001 55.3699 9.18105 39.0399 9.71105V9.72104ZM40.9099 68.261C24.9099 68.771 11.5299 56.2211 11.0099 40.2211C10.4999 24.2211 23.0499 10.841 39.0499 10.321C55.0499 9.81105 68.4299 22.361 68.9499 38.361C69.4599 54.361 56.9099 67.741 40.9099 68.261Z" fill="#3B3B3B"/>
<path d="M24.62 57.101L21.8899 59.861L21.33 59.311L22.3999 58.221L21.3099 57.141L20.24 58.231L19.6799 57.681L22.4099 54.921L22.97 55.471L21.7799 56.681L22.87 57.761L24.0599 56.551L24.62 57.101Z" fill="#3E3E3E"/>
<path d="M20.56 55.7411C20.24 55.9711 19.9399 56.1211 19.6499 56.1811C19.4399 56.2311 19.2199 56.2311 19.0099 56.2011C18.7899 56.1711 18.6 56.1011 18.43 56.0011C18.2 55.8611 18 55.6711 17.81 55.4111C17.47 54.9511 17.35 54.4711 17.43 53.9911C17.51 53.5011 17.81 53.0711 18.32 52.7011C18.83 52.3311 19.32 52.1811 19.81 52.2511C20.3 52.3211 20.71 52.5811 21.04 53.0411C21.38 53.5111 21.51 53.9811 21.42 54.4611C21.34 54.9411 21.04 55.3711 20.54 55.7311L20.56 55.7411ZM20.06 55.1011C20.42 54.8411 20.63 54.5611 20.69 54.2711C20.75 53.9711 20.6899 53.7011 20.5099 53.4411C20.3299 53.1911 20.0799 53.0511 19.7799 53.0211C19.4799 52.9911 19.1499 53.1111 18.7799 53.3711C18.4199 53.6311 18.2099 53.9111 18.1499 54.1911C18.0899 54.4811 18.15 54.7511 18.34 55.0111C18.53 55.2711 18.77 55.4211 19.07 55.4511C19.37 55.4811 19.69 55.3611 20.05 55.1011H20.06Z" fill="#3E3E3E"/>
<path d="M17.3099 49.631L17.1799 48.8411C17.6099 48.7511 17.9799 48.7911 18.2799 48.9411C18.5899 49.0911 18.8299 49.3511 19.0199 49.7211C19.2499 50.1811 19.28 50.6411 19.12 51.0911C18.95 51.5411 18.5999 51.911 18.0499 52.181C17.4699 52.471 16.95 52.5511 16.48 52.4111C16.01 52.2711 15.6499 51.9611 15.4099 51.4711C15.1999 51.0511 15.1499 50.6411 15.2699 50.2511C15.3399 50.0211 15.49 49.791 15.73 49.571L16.24 50.181C16.08 50.311 15.9799 50.471 15.9399 50.651C15.8999 50.831 15.9299 51.021 16.0199 51.201C16.1499 51.461 16.35 51.6211 16.61 51.6911C16.88 51.7611 17.2099 51.691 17.6299 51.481C18.0699 51.261 18.34 51.021 18.45 50.771C18.56 50.521 18.5499 50.271 18.4199 50.011C18.3299 49.821 18.1899 49.691 17.9999 49.621C17.8099 49.551 17.5799 49.541 17.2999 49.621L17.3099 49.631Z" fill="#3E3E3E"/>
<path d="M18.08 47.871L14.3799 49.041L14.1399 48.291L15.6 47.831L15.1399 46.371L13.6799 46.831L13.4399 46.081L17.1399 44.911L17.3799 45.661L15.7599 46.171L16.22 47.631L17.84 47.121L18.08 47.871Z" fill="#3E3E3E"/>
<path d="M17.0599 44.351L13.2499 45.1211L13.09 44.351L16.8899 43.5811L17.0499 44.351H17.0599Z" fill="#3E3E3E"/>
<path d="M16.74 43.071L12.87 43.381L12.7799 42.2111L15.36 41.291L12.6599 40.8111L12.5699 39.6411L16.4399 39.3311L16.4999 40.0611L13.45 40.3111L16.5599 40.8311L16.62 41.5811L13.6399 42.5911L16.6899 42.3411L16.7499 43.071H16.74Z" fill="#3E3E3E"/>
<path d="M16.5199 38.791L12.6399 38.671L12.6599 37.891L16.5399 38.011L16.5199 38.791Z" fill="#3E3E3E"/>
<path d="M16.5299 37.471L12.6899 36.921L12.7999 36.171L15.59 34.971L13.0199 34.601L13.12 33.881L16.96 34.431L16.85 35.211L14.12 36.401L16.6299 36.761L16.5299 37.481V37.471Z" fill="#3E3E3E"/>
<path d="M17.1 33.8111L13.3899 32.661L13.62 31.911L15.08 32.361L15.5299 30.891L14.0699 30.441L14.2999 29.691L18.0099 30.841L17.7799 31.591L16.1599 31.091L15.71 32.561L17.33 33.061L17.1 33.8111Z" fill="#3E3E3E"/>
<path d="M18.7499 26.251L19.33 25.711C19.64 26.021 19.82 26.341 19.87 26.681C19.92 27.021 19.8399 27.371 19.6299 27.731C19.3799 28.181 19.01 28.461 18.54 28.581C18.07 28.701 17.57 28.601 17.04 28.301C16.48 27.981 16.12 27.591 15.98 27.121C15.83 26.651 15.89 26.181 16.16 25.711C16.39 25.301 16.71 25.031 17.1 24.911C17.33 24.841 17.6 24.841 17.92 24.911L17.7 25.681C17.5 25.621 17.3199 25.631 17.1399 25.701C16.9699 25.771 16.83 25.891 16.73 26.081C16.59 26.331 16.56 26.581 16.65 26.841C16.74 27.101 16.9899 27.341 17.3899 27.571C17.8199 27.811 18.17 27.911 18.43 27.861C18.7 27.811 18.9 27.661 19.04 27.411C19.14 27.231 19.1699 27.041 19.1299 26.841C19.0899 26.641 18.9599 26.451 18.7499 26.251Z" fill="#3E3E3E"/>
<path d="M20.6599 25.961L17.4999 23.701L17.96 23.061L21.12 25.321L20.6599 25.961Z" fill="#3E3E3E"/>
<path d="M21.99 24.2209L19.5499 22.1109L18.7999 22.981L18.2999 22.5509L20.3199 20.2209L20.8199 20.651L20.0699 21.521L22.5099 23.631L21.9999 24.2209H21.99Z" fill="#3E3E3E"/>
<path d="M24.23 21.891L23.1499 20.661L20.6 19.901L21.2899 19.291L22.99 19.841L22.6499 18.091L23.33 17.501L23.74 20.141L24.8099 21.371L24.22 21.881L24.23 21.891Z" fill="#3E3E3E"/>
<path d="M27.0299 19.711L24.9399 16.441L25.6 16.021L27.6899 19.291L27.0299 19.711Z" fill="#3E3E3E"/>
<path d="M28.1299 18.971L26.3999 15.501L27.08 15.161L29.6599 16.771L28.4999 14.451L29.1499 14.121L30.8799 17.591L30.1799 17.941L27.6499 16.371L28.7799 18.641L28.1299 18.971Z" fill="#3E3E3E"/>
<path d="M32.2999 17.101L31.2899 14.041L30.2 14.401L29.9999 13.781L32.9299 12.821L33.1299 13.441L32.0399 13.801L33.0499 16.861L32.3099 17.101H32.2999Z" fill="#3E3E3E"/>
<path d="M34.4199 16.441L33.73 12.621L36.5599 12.111L36.6799 12.761L34.62 13.131L34.7699 13.981L36.6899 13.641L36.8099 14.281L34.8899 14.621L35.08 15.661L37.21 15.281L37.33 15.921L34.4199 16.441Z" fill="#3E3E3E"/>
<path d="M37.7799 15.871L37.6799 11.991L39.33 11.951C39.74 11.941 40.05 11.971 40.24 12.031C40.43 12.091 40.58 12.211 40.7 12.391C40.82 12.571 40.8799 12.771 40.8899 13.001C40.8899 13.291 40.8199 13.531 40.6499 13.731C40.4799 13.921 40.2299 14.051 39.8899 14.111C40.0599 14.201 40.1999 14.311 40.3199 14.421C40.4299 14.541 40.5899 14.741 40.7799 15.041L41.2699 15.781L40.33 15.801L39.74 14.971C39.53 14.671 39.3899 14.491 39.3099 14.411C39.2299 14.331 39.1499 14.281 39.0699 14.251C38.9899 14.221 38.8499 14.211 38.6699 14.221H38.5099L38.5499 15.841L37.7699 15.861L37.7799 15.871ZM38.4999 13.611L39.08 13.591C39.46 13.591 39.6899 13.561 39.7799 13.521C39.8699 13.491 39.9399 13.431 39.9999 13.351C40.0499 13.271 40.0699 13.171 40.0699 13.061C40.0699 12.931 40.03 12.821 39.96 12.751C39.89 12.671 39.7899 12.621 39.6599 12.611C39.5999 12.611 39.41 12.611 39.09 12.611L38.48 12.631L38.5099 13.611H38.4999Z" fill="#3E3E3E"/>
<path d="M41.49 15.821L41.99 11.9709L42.7499 12.071L43.99 14.851L44.3199 12.2809L45.0399 12.371L44.5399 16.2209L43.7599 16.121L42.5299 13.4109L42.2 15.9209L41.48 15.8309L41.49 15.821Z" fill="#3E3E3E"/>
<path d="M48.5099 17.331L47.6899 17.091L47.61 16.151L46.12 15.711L45.5599 16.471L44.7599 16.231L47.3099 12.931L48.11 13.161L48.4999 17.321L48.5099 17.331ZM47.5599 15.451L47.45 13.921L46.5399 15.151L47.5599 15.451Z" fill="#3E3E3E"/>
<path d="M49.1 17.651L50.3999 14.701L49.35 14.231L49.62 13.631L52.4399 14.881L52.1699 15.481L51.12 15.021L49.8199 17.971L49.1 17.651Z" fill="#3E3E3E"/>
<path d="M51.09 18.6009L52.98 15.2109L53.6599 15.5909L51.7699 18.9809L51.09 18.6009Z" fill="#3E3E3E"/>
<path d="M53.2499 17.5609C53.4799 17.2409 53.72 17.001 53.97 16.851C54.16 16.741 54.3599 16.671 54.5699 16.631C54.7899 16.591 54.9899 16.591 55.1799 16.631C55.4399 16.691 55.69 16.811 55.95 16.991C56.41 17.321 56.6799 17.7309 56.7599 18.2209C56.8299 18.7109 56.6799 19.2109 56.3199 19.7209C55.9499 20.2309 55.5299 20.531 55.0499 20.621C54.5699 20.711 54.0899 20.5909 53.6299 20.2509C53.1599 19.9109 52.8899 19.501 52.8199 19.021C52.7499 18.541 52.8899 18.041 53.2499 17.541V17.5609ZM53.9199 18.011C53.6599 18.371 53.55 18.7009 53.58 19.0009C53.61 19.3009 53.7599 19.551 54.0099 19.731C54.2599 19.911 54.54 19.971 54.83 19.901C55.12 19.831 55.3999 19.6209 55.6599 19.2509C55.9199 18.8909 56.0299 18.561 55.9999 18.271C55.9699 17.981 55.8199 17.741 55.5599 17.551C55.2999 17.361 55.02 17.3009 54.73 17.3609C54.44 17.4209 54.1599 17.6409 53.8999 18.0009L53.9199 18.011Z" fill="#3E3E3E"/>
<path d="M55.49 21.601L58.24 18.861L58.7799 19.401L58.0699 22.361L59.8999 20.531L60.4099 21.051L57.6599 23.791L57.1 23.231L57.7899 20.331L55.9999 22.121L55.49 21.601Z" fill="#3E3E3E"/>
<path d="M60.12 27.081L59.62 26.391L60.1299 25.601L59.22 24.341L58.3199 24.601L57.83 23.931L61.86 22.871L62.35 23.541L60.12 27.081ZM60.5099 25.011L61.36 23.731L59.8899 24.151L60.5099 25.011Z" fill="#3E3E3E"/>
<path d="M60.2 27.301L63.61 25.511L63.97 26.201L61.1399 27.691L62.0499 29.421L61.47 29.721L60.2 27.301Z" fill="#3E3E3E"/>
<path d="M65.7799 30.041L65.9999 30.791L63.98 31.391C63.66 31.481 63.46 31.551 63.37 31.601C63.23 31.681 63.1299 31.791 63.0699 31.941C63.0099 32.091 63.0199 32.271 63.0699 32.481C63.1299 32.691 63.22 32.841 63.34 32.921C63.46 33.001 63.59 33.041 63.72 33.021C63.85 33.001 64.07 32.951 64.36 32.871L66.4199 32.261L66.6399 33.011L64.6799 33.591C64.2299 33.721 63.91 33.791 63.71 33.811C63.51 33.821 63.3399 33.791 63.1799 33.721C63.0199 33.651 62.8799 33.531 62.7499 33.371C62.6199 33.211 62.5099 32.981 62.4299 32.691C62.3299 32.331 62.2899 32.051 62.3099 31.841C62.3399 31.631 62.3999 31.461 62.4999 31.311C62.5999 31.161 62.72 31.051 62.85 30.981C63.05 30.871 63.3599 30.751 63.7699 30.631L65.7599 30.041H65.7799Z" fill="#3E3E3E"/>
<path d="M63.0599 34.7209L66.9099 34.2209L67.0099 34.9809L64.6399 36.8909L67.21 36.5609L67.2999 37.2809L63.45 37.7809L63.35 37.0009L65.6599 35.1209L63.1499 35.4409L63.0599 34.7209Z" fill="#3E3E3E"/>
<path d="M63.4399 38.361L67.3199 38.271L67.34 39.051L63.46 39.141L63.4399 38.361Z" fill="#3E3E3E"/>
<path d="M63.4199 40.6711L67.3999 39.5811L67.34 40.4311L64.3999 41.1911L67.1899 42.3611L67.1299 43.1911L63.36 41.511L63.4199 40.6811V40.6711Z" fill="#3E3E3E"/>
<path d="M63.1899 43.071L66.98 43.9211L66.35 46.731L65.71 46.5911L66.1699 44.5511L65.33 44.3611L64.8999 46.261L64.2599 46.1211L64.6899 44.2211L63.6599 43.9911L63.1899 46.1111L62.5499 45.9711L63.2 43.0911L63.1899 43.071Z" fill="#3E3E3E"/>
<path d="M62.4199 46.391L66.0399 47.801L65.4399 49.341C65.2899 49.731 65.1499 49.991 65.0099 50.141C64.8799 50.291 64.7099 50.381 64.4999 50.421C64.2899 50.461 64.08 50.441 63.87 50.361C63.6 50.251 63.4099 50.091 63.2899 49.861C63.1799 49.631 63.16 49.351 63.24 49.011C63.09 49.131 62.9299 49.221 62.7799 49.281C62.6299 49.341 62.3799 49.401 62.0299 49.471L61.1499 49.641L61.49 48.771L62.48 48.551C62.83 48.471 63.0599 48.411 63.1599 48.371C63.2599 48.331 63.3399 48.281 63.3999 48.211C63.4599 48.141 63.52 48.031 63.58 47.861L63.6399 47.711L62.1299 47.121L62.4199 46.391ZM64.22 47.941L64.0099 48.481C63.8699 48.831 63.7999 49.051 63.7999 49.151C63.7999 49.251 63.82 49.341 63.87 49.411C63.92 49.491 64 49.551 64.11 49.591C64.23 49.641 64.3399 49.641 64.4399 49.611C64.5399 49.571 64.6199 49.501 64.6899 49.391C64.7199 49.331 64.7899 49.161 64.9099 48.861L65.1299 48.291L64.21 47.931L64.22 47.941Z" fill="#3E3E3E"/>
<path d="M62.2099 50.271L61.8899 50.971C61.6499 50.881 61.4399 50.871 61.2599 50.931C61.0899 50.991 60.9399 51.131 60.8199 51.331C60.6899 51.551 60.6399 51.741 60.6699 51.901C60.6999 52.061 60.7699 52.181 60.8999 52.251C60.9799 52.301 61.0599 52.311 61.1399 52.301C61.2199 52.291 61.3199 52.231 61.4299 52.141C61.4999 52.081 61.6599 51.921 61.8899 51.681C62.1899 51.371 62.4499 51.181 62.6699 51.111C62.9699 51.011 63.2599 51.041 63.5299 51.191C63.6999 51.291 63.8299 51.431 63.9299 51.611C64.0199 51.791 64.0599 52.001 64.0299 52.231C63.9999 52.461 63.9099 52.701 63.7599 52.961C63.5199 53.381 63.2399 53.651 62.9299 53.751C62.6199 53.861 62.3098 53.831 61.9998 53.661L62.36 52.961C62.55 53.031 62.7099 53.041 62.8399 52.991C62.9699 52.941 63.0899 52.821 63.1999 52.631C63.3099 52.431 63.3599 52.261 63.3499 52.101C63.3399 52.001 63.2899 51.921 63.1999 51.871C63.1199 51.821 63.0299 51.821 62.9399 51.851C62.8199 51.891 62.6199 52.061 62.3499 52.341C62.0799 52.621 61.8599 52.821 61.6799 52.931C61.5099 53.041 61.32 53.101 61.12 53.101C60.92 53.101 60.7199 53.051 60.5099 52.921C60.3199 52.811 60.1699 52.651 60.0599 52.451C59.9499 52.251 59.9199 52.021 59.9499 51.781C59.9799 51.541 60.0798 51.271 60.2498 50.981C60.4998 50.561 60.78 50.291 61.11 50.171C61.44 50.061 61.7999 50.091 62.1999 50.261L62.2099 50.271Z" fill="#3E3E3E"/>
<path d="M59.2599 52.691L62.4099 54.961L61.95 55.601L58.7999 53.331L59.2599 52.691Z" fill="#3E3E3E"/>
<path d="M57.9199 54.431L60.35 56.551L61.11 55.681L61.6 56.111L59.5699 58.431L59.08 58.001L59.84 57.131L57.4099 55.011L57.9299 54.421L57.9199 54.431Z" fill="#3E3E3E"/>
<path d="M55.6699 56.751L56.74 57.981L59.2899 58.751L58.6 59.351L56.8999 58.791L57.23 60.541L56.5499 61.131L56.1499 58.491L55.08 57.261L55.6699 56.751Z" fill="#3E3E3E"/>
<path d="M27.98 63.9411L29.46 60.3511L30.1799 60.6511L29.6 62.0611L31.0199 62.6511L31.6 61.2411L32.3199 61.5411L30.84 65.1311L30.12 64.8311L30.7699 63.2611L29.35 62.6711L28.7 64.2411L27.98 63.9411Z" fill="#3E3E3E"/>
<path d="M34.6398 64.6911L35.3199 65.111C35.0999 65.491 34.8399 65.751 34.5299 65.891C34.2199 66.021 33.8599 66.0411 33.4499 65.9411C32.9499 65.8211 32.5799 65.5411 32.3399 65.1211C32.0999 64.7011 32.0599 64.191 32.2099 63.601C32.3699 62.971 32.6499 62.531 33.0599 62.261C33.4699 61.991 33.9399 61.9311 34.4699 62.0611C34.9299 62.1711 35.2699 62.4011 35.4899 62.7511C35.6199 62.9511 35.6899 63.221 35.6999 63.541H34.8999C34.8999 63.331 34.8499 63.1511 34.7399 63.0011C34.6299 62.8511 34.4698 62.751 34.2698 62.701C33.9898 62.631 33.7398 62.671 33.5198 62.831C33.2998 62.991 33.1298 63.291 33.0198 63.741C32.8998 64.221 32.8998 64.581 33.0198 64.821C33.1398 65.061 33.3399 65.221 33.6099 65.291C33.8099 65.341 33.9999 65.321 34.1799 65.231C34.3599 65.141 34.5098 64.961 34.6398 64.701V64.6911Z" fill="#3E3E3E"/>
<path d="M35.96 66.421L36.2599 62.551L37.4299 62.641L37.9299 65.331L38.83 62.741L39.9999 62.831L39.7 66.701L38.97 66.641L39.2 63.591L38.2 66.581L37.45 66.521L36.9199 63.411L36.6899 66.461L35.96 66.401V66.421Z" fill="#3E3E3E"/>
<path d="M42.33 65.5111L42.2499 64.7711L43.7 64.6211L43.7799 65.3611L42.33 65.5111Z" fill="#3E3E3E"/>
<path d="M46.3099 65.9411L45.3799 62.1711L46.1399 61.9811L47.0699 65.7511L46.3099 65.9411Z" fill="#3E3E3E"/>
<path d="M46.6899 61.8911L47.4199 61.6111L48.1599 63.5811C48.2799 63.8911 48.3599 64.0911 48.4199 64.1811C48.5099 64.3211 48.6299 64.4111 48.7799 64.4511C48.9299 64.5011 49.1099 64.4811 49.3199 64.4011C49.5299 64.3211 49.67 64.2211 49.74 64.0911C49.81 63.9611 49.8399 63.8411 49.8099 63.7011C49.7799 63.5711 49.72 63.3611 49.61 63.0711L48.85 61.0611L49.58 60.7811L50.2999 62.6911C50.4599 63.1311 50.56 63.4411 50.59 63.6411C50.62 63.8311 50.5999 64.0111 50.5399 64.1811C50.4799 64.3411 50.38 64.5011 50.22 64.6411C50.07 64.7811 49.8499 64.9111 49.5599 65.0111C49.2099 65.1411 48.94 65.2011 48.73 65.1911C48.52 65.1811 48.3399 65.1311 48.1899 65.0411C48.0399 64.9511 47.92 64.8411 47.83 64.7211C47.7 64.5311 47.5599 64.2311 47.4099 63.8311L46.6799 61.8911H46.6899Z" fill="#3E3E3E"/>
<path d="M54.1399 61.191C54.1499 61.611 53.8199 61.971 53.3999 61.981C52.9799 61.991 52.62 61.661 52.61 61.241C52.6 60.821 52.93 60.461 53.35 60.451C53.77 60.441 54.1299 60.771 54.1399 61.191Z" fill="#3E3E3E"/>
<path d="M26.6699 60.581C26.6799 61.001 26.3499 61.361 25.9299 61.371C25.5099 61.381 25.1499 61.051 25.1399 60.631C25.1299 60.211 25.4599 59.851 25.8799 59.841C26.2999 59.831 26.6599 60.161 26.6699 60.581Z" fill="#3E3E3E"/>
<path d="M47.7699 26.2111C47.7799 30.5111 44.3099 34.0111 40.0099 34.0211C35.7099 34.0311 32.21 30.5611 32.2 26.2611C32.19 21.9611 35.66 18.4611 39.96 18.4511C44.26 18.4411 47.7599 21.9111 47.7699 26.2111Z" fill="#7A7A7A"/>
<path d="M58.97 30.551H49.1399L49.1699 51.041L30.72 51.071L30.6899 30.601H21.0099C19.9499 33.151 19.1299 35.931 19.1299 38.841C19.1399 46.611 22.76 53.411 28.98 57.131C32.19 59.051 35.9399 60.151 39.9399 60.141C51.7199 60.121 61.0699 51.031 60.8199 38.781C60.7599 35.861 60.02 33.091 58.96 30.561L58.97 30.551Z" fill="#3B3B3B"/>
<path d="M40.0099 35.1611C36.6499 35.1611 33.7199 33.3211 32.1899 30.5811V49.6511H47.7599V30.6111C46.2299 33.3211 43.3399 35.1511 40.0099 35.1611Z" fill="#7A7A7A"/>
</svg>
