<svg width="72" height="61" viewBox="0 0 72 61" fill="none" xmlns="http://www.w3.org/2000/svg">
<path d="M34.6699 6.11101C35.9699 4.09101 37.3698 2.14102 38.8998 0.291016C42.4998 4.79102 45.7999 9.70101 47.4799 15.271C48.1799 17.631 48.4499 20.121 48.1099 22.561C47.7599 24.591 46.8299 26.521 45.3599 27.981C45.7999 26.331 45.8399 24.511 45.0899 22.941C44.1699 20.841 42.1099 19.301 39.8399 19.001C36.9899 18.551 33.9798 20.171 32.7698 22.791C31.9698 24.391 31.9599 26.281 32.4499 27.971C30.1299 25.751 29.2699 22.391 29.5699 19.261C29.9799 14.501 32.1599 10.101 34.6699 6.11101Z" fill="#868686"/>
<path d="M15.3099 14.241C16.7499 15.681 18.2399 17.081 19.7999 18.391C22.8599 20.971 26.1399 23.281 29.0299 26.051C30.6299 27.581 32.0599 29.281 33.2599 31.141C31.4699 31.171 29.6699 31.121 27.8799 31.161C27.8499 36.671 27.88 42.181 27.87 47.691C23.09 44.491 18.9999 40.091 16.7199 34.761C13.9199 28.321 13.8799 21.011 15.3099 14.241Z" fill="#868686"/>
<path d="M0.419922 37.0211C3.24992 35.7911 6.47999 35.3111 9.48999 36.1311C11.63 36.6511 13.57 37.7611 15.33 39.0511C19.15 41.9111 22.1199 45.6911 25.5099 49.0211C27.0099 50.5011 28.6199 51.9311 30.5399 52.8511C31.6399 53.3911 32.8599 53.5911 34.0599 53.8011C36.4299 54.1911 38.86 54.1111 41.22 53.6611C42.75 53.4111 44.27 53.0411 45.83 53.0611C47.15 53.0611 48.46 53.3411 49.7 53.7611C47.7 54.1711 45.7199 54.7411 43.8799 55.6511C41.6799 56.6911 39.6899 58.1411 37.4099 59.0011C34.6099 60.1111 31.5499 60.3611 28.5599 60.2911C24.4799 60.2511 20.5 58.6611 17.36 56.0711C12.78 52.3411 9.74999 47.1811 6.10999 42.6211C4.44999 40.5411 2.62993 38.5511 0.429932 37.0311L0.419922 37.0211Z" fill="#868686"/>
<path d="M38.08 19.961C38.63 19.941 39.18 19.941 39.73 19.991L39.8999 20.871C40.0399 20.901 40.32 20.971 40.46 21.011C40.66 20.791 40.86 20.571 41.06 20.341C41.56 20.581 42.05 20.861 42.49 21.181C42.37 21.471 42.24 21.751 42.12 22.041C42.49 22.451 43.01 22.311 43.48 22.191C43.78 22.631 44.0299 23.091 44.2699 23.561C44.0499 23.751 43.82 23.941 43.6 24.121C43.65 24.331 43.7099 24.541 43.7599 24.751C44.0399 24.791 44.32 24.821 44.6 24.861C44.68 25.421 44.68 25.991 44.61 26.561C44.3 26.601 44 26.651 43.7 26.691C43.52 27.231 43.8599 27.611 44.2699 27.911C44.0099 28.381 43.74 28.841 43.45 29.291C43.18 29.201 42.9099 29.121 42.6399 29.031L42.0099 29.371C42.1099 29.071 42.2599 28.811 42.3999 28.531C42.6999 28.631 43.01 28.731 43.31 28.831C43.46 28.541 43.6099 28.251 43.7499 27.961C43.5499 27.781 43.36 27.601 43.16 27.421C43.23 27.091 43.3 26.751 43.37 26.421C43.67 26.341 43.9699 26.261 44.2799 26.181C44.2799 25.861 44.2799 25.541 44.2799 25.221C43.9799 25.161 43.6899 25.091 43.3899 25.031C43.3099 24.681 43.23 24.341 43.16 23.991C43.38 23.801 43.59 23.621 43.81 23.441C43.65 23.171 43.49 22.911 43.33 22.651C43.06 22.711 42.7799 22.781 42.5099 22.831C42.2199 22.631 41.98 22.381 41.72 22.151C41.82 21.861 41.9199 21.581 42.0099 21.291C41.7299 21.131 41.45 20.971 41.16 20.821C40.95 21.031 40.75 21.241 40.55 21.451C40.22 21.361 39.88 21.271 39.55 21.181C39.5 20.901 39.4399 20.621 39.3799 20.351C39.0599 20.351 38.74 20.351 38.43 20.351C38.36 20.631 38.3 20.901 38.23 21.181C37.89 21.271 37.55 21.361 37.21 21.461C37.03 21.251 36.85 21.031 36.67 20.821C36.38 20.961 36.09 21.101 35.8 21.251C35.87 21.551 35.9499 21.841 36.0299 22.141C35.7899 22.381 35.56 22.621 35.33 22.871C35.04 22.791 34.76 22.711 34.47 22.631C34.3 22.891 34.13 23.151 33.97 23.421C34.19 23.631 34.4099 23.841 34.6399 24.051C34.5499 24.361 34.4599 24.681 34.3799 24.991C34.0999 25.081 33.81 25.141 33.55 25.271C33.5 25.571 33.49 25.871 33.47 26.171C33.77 26.251 34.07 26.321 34.37 26.401C34.46 26.731 34.5499 27.061 34.6399 27.391C34.4199 27.591 34.2 27.791 33.98 27.991C34.15 28.271 34.3199 28.551 34.4999 28.831C34.7699 28.741 35.05 28.641 35.32 28.551C35.51 28.781 35.6999 29.011 35.8899 29.251C35.5999 29.221 35.32 29.121 35.04 29.071C34.81 29.151 34.57 29.231 34.34 29.301C34.03 28.841 33.7499 28.361 33.4999 27.871C33.7199 27.701 33.94 27.531 34.17 27.351C34.14 27.141 34.1 26.921 34.06 26.711C33.75 26.661 33.4499 26.611 33.1499 26.561C33.1199 26.021 33.1199 25.471 33.1499 24.931C33.6499 24.881 34.1299 24.731 34.2499 24.181C33.9999 23.981 33.7599 23.771 33.5199 23.571C33.7499 23.081 34.02 22.611 34.32 22.151C34.61 22.241 34.89 22.321 35.18 22.411C35.33 22.271 35.4799 22.141 35.6299 22.001C35.5199 21.731 35.41 21.461 35.3 21.181C35.76 20.861 36.2499 20.581 36.7499 20.321C36.9299 20.551 37.11 20.771 37.29 21.001C37.5 20.951 37.7 20.901 37.91 20.851C37.96 20.551 38.02 20.251 38.08 19.951V19.961Z" fill="#868686"/>
<path d="M35.49 26.1811C35.2 24.3911 36.5898 22.5511 38.3798 22.3211C39.7698 22.0911 41.2499 22.8211 41.9199 24.0611C42.5999 25.2611 42.4599 26.8611 41.5599 27.9011C41.4299 28.1011 41.1699 28.0811 40.9699 28.1711C41.2999 27.5911 41.73 27.0511 41.87 26.3911C42.29 24.7911 41.1199 22.9811 39.4699 22.7311C37.9599 22.3911 36.3299 23.4111 35.9399 24.9011C35.7899 25.6111 35.7899 26.4111 36.1699 27.0511C36.3799 27.4711 36.7599 27.8311 36.6799 28.3411C36.0499 27.7811 35.5699 27.0211 35.4799 26.1611L35.49 26.1811Z" fill="#868686"/>
<path d="M38.4399 23.8911C39.7999 23.4611 41.2299 24.9611 40.6999 26.3011C40.3399 27.5811 38.5499 28.0811 37.6099 27.1111C36.4899 26.1911 37.0199 24.1811 38.4299 23.8911H38.4399Z" fill="#868686"/>
<path d="M35.2999 31.231C37.6999 31.251 40.1098 31.1811 42.5098 31.2711C42.5398 36.0411 42.5098 40.8211 42.5298 45.5911C42.5298 46.5111 42.3099 47.4611 41.7099 48.1811C40.6099 49.6411 38.3399 49.9611 36.8699 48.9011C35.7899 48.1811 35.2098 46.851 35.2798 45.571C35.2998 40.791 35.2499 36.0011 35.3099 31.2211L35.2999 31.231Z" fill="#868686"/>
<path d="M49.9399 31.231C52.3399 31.231 54.7399 31.231 57.1399 31.231C57.1499 33.771 57.1399 36.311 57.1499 38.851C59.6099 38.861 62.0799 38.871 64.5399 38.851C64.5699 36.331 64.49 33.801 64.58 31.281C66.97 31.171 69.3699 31.231 71.7699 31.261C71.8199 36.821 71.7699 42.391 71.7899 47.951C71.7799 49.881 71.8199 51.801 71.7599 53.731C69.3599 53.761 66.9599 53.761 64.5599 53.731C64.5199 51.191 64.5599 48.641 64.5399 46.101C62.0799 46.131 59.6099 46.111 57.1499 46.111C57.1299 48.651 57.1499 51.191 57.1399 53.731C54.7399 53.781 52.3299 53.731 49.9299 53.751C49.9299 46.251 49.9299 38.741 49.9299 31.241L49.9399 31.231Z" fill="#868686"/>
</svg>
