<svg width="220" height="61" viewBox="0 0 220 61" fill="none" xmlns="http://www.w3.org/2000/svg">
<path d="M4.15997 9.511C4.17997 9.821 4.19002 10.081 4.21002 10.291C4.23002 10.501 4.24001 10.711 4.26001 10.901C4.28001 11.101 4.27997 11.311 4.27997 11.541V15.171C4.27997 15.741 4.11998 16.201 3.78998 16.561C3.45998 16.911 3.02999 17.091 2.48999 17.091C1.97999 17.091 1.56999 16.911 1.23999 16.561C0.90999 16.211 0.75 15.751 0.75 15.171V2.131C0.75 1.591 0.90999 1.15099 1.23999 0.810989C1.56999 0.470989 1.97999 0.300995 2.48999 0.300995C3.02999 0.300995 3.45998 0.470995 3.78998 0.800995C4.11998 1.14099 4.27997 1.58099 4.27997 2.14099V5.20099C4.27997 5.40099 4.28001 5.58099 4.26001 5.75099C4.24001 5.92099 4.23002 6.101 4.21002 6.291C4.19002 6.481 4.17997 6.701 4.15997 6.961L4.26001 6.981C4.46001 6.731 4.63002 6.531 4.77002 6.351C4.92002 6.181 5.06 6.021 5.19 5.871C5.32 5.721 5.46 5.56099 5.62 5.39099C5.78 5.22099 5.97001 5.011 6.20001 4.761L9.77997 0.981003C10.22 0.511003 10.7 0.270996 11.2 0.270996C11.62 0.270996 11.99 0.431002 12.3 0.761002C12.61 1.091 12.77 1.491 12.77 1.961C12.77 2.161 12.72 2.341 12.64 2.521C12.55 2.701 12.39 2.911 12.16 3.161L12.01 3.31099C11.91 3.42099 11.84 3.51099 11.79 3.56099C11.74 3.61099 11.7 3.65099 11.68 3.67099L11.63 3.72099L11.59 3.761C11.43 3.921 11.34 4.02099 11.32 4.05099L7.41998 8.071L12.18 13.101C12.46 13.391 12.69 13.651 12.87 13.861C13.05 14.071 13.19 14.261 13.3 14.441C13.41 14.611 13.48 14.771 13.52 14.911C13.56 15.051 13.58 15.191 13.58 15.341C13.58 15.811 13.41 16.211 13.07 16.541C12.73 16.871 12.32 17.031 11.84 17.031C11.56 17.031 11.3 16.961 11.07 16.831C10.83 16.701 10.58 16.501 10.3 16.221L6.21002 11.731C5.98002 11.471 5.79 11.251 5.63 11.081C5.47 10.911 5.33 10.741 5.19 10.581C5.05 10.421 4.91002 10.251 4.77002 10.081C4.63002 9.91099 4.46002 9.70099 4.27002 9.45099L4.16998 9.50099L4.15997 9.511Z" fill="#868686"/>
<path d="M19.63 4.29102C20.48 4.29102 21.27 4.45101 22.01 4.77101C22.75 5.09101 23.38 5.53101 23.92 6.11101C24.46 6.68101 24.88 7.36101 25.18 8.13101C25.48 8.91101 25.63 9.74101 25.63 10.641C25.63 11.541 25.48 12.431 25.18 13.211C24.88 13.991 24.46 14.671 23.92 15.241C23.38 15.811 22.74 16.261 22 16.581C21.26 16.901 20.45 17.061 19.59 17.061C18.94 17.061 18.26 16.931 17.56 16.681C16.86 16.431 16.26 16.091 15.77 15.661C15.1 15.121 14.58 14.391 14.2 13.481C13.82 12.561 13.64 11.621 13.64 10.641C13.64 9.74101 13.79 8.90101 14.09 8.13101C14.39 7.35101 14.81 6.68101 15.35 6.11101C15.89 5.54101 16.52 5.09101 17.25 4.77101C17.98 4.45101 18.77 4.29102 19.64 4.29102H19.63ZM19.63 7.40102C19.25 7.40102 18.91 7.48102 18.59 7.65102C18.27 7.81102 18 8.04102 17.77 8.34102C17.54 8.63102 17.36 8.98101 17.23 9.38101C17.1 9.78101 17.03 10.211 17.03 10.671C17.03 11.131 17.1 11.581 17.23 11.981C17.36 12.381 17.54 12.731 17.77 13.021C18 13.311 18.27 13.541 18.58 13.711C18.89 13.871 19.23 13.961 19.61 13.961C20.38 13.961 21.01 13.651 21.5 13.041C21.99 12.431 22.24 11.641 22.24 10.671C22.24 10.211 22.17 9.78101 22.04 9.38101C21.91 8.98101 21.73 8.63102 21.5 8.34102C21.27 8.05102 21 7.82102 20.68 7.65102C20.36 7.49102 20.01 7.40102 19.64 7.40102H19.63Z" fill="#868686"/>
<path d="M27.04 6.271C27.04 5.701 27.2001 5.241 27.5201 4.901C27.8401 4.561 28.26 4.39099 28.78 4.39099C29.2 4.39099 29.5501 4.50099 29.8201 4.72099C30.0901 4.94099 30.29 5.30099 30.42 5.81099C30.86 5.29099 31.25 4.92099 31.6 4.72099C31.94 4.52099 32.3001 4.411 32.6801 4.411C33.1901 4.411 33.6 4.57099 33.92 4.89099C34.24 5.21099 34.4001 5.611 34.4001 6.101C34.4001 6.301 34.3801 6.47099 34.3301 6.61099C34.2801 6.75099 34.1901 6.891 34.0601 7.011C33.9301 7.131 33.7501 7.251 33.5201 7.351C33.2901 7.461 33.0001 7.581 32.6401 7.731C31.7701 8.041 31.1701 8.381 30.8401 8.741C30.5001 9.101 30.3401 9.57099 30.3401 10.141V15.241C30.3401 15.811 30.1901 16.251 29.9001 16.561C29.6101 16.871 29.1901 17.031 28.6501 17.031C28.1401 17.031 27.75 16.871 27.47 16.551C27.19 16.231 27.05 15.791 27.05 15.241V6.271H27.04Z" fill="#868686"/>
<path d="M38.9 11.811C38.62 11.811 38.43 11.811 38.32 11.791C38.21 11.771 38.05 11.741 37.82 11.691C38.16 13.361 39.13 14.191 40.71 14.191C40.99 14.191 41.26 14.161 41.52 14.101C41.78 14.041 42.04 13.971 42.3 13.871C42.35 13.851 42.37 13.851 42.36 13.851C42.36 13.851 42.38 13.841 42.43 13.811C42.49 13.791 42.6 13.721 42.77 13.631C42.94 13.531 43.23 13.381 43.64 13.161C43.97 13.001 44.27 12.911 44.55 12.911C44.93 12.911 45.24 13.051 45.49 13.331C45.74 13.611 45.87 13.931 45.87 14.311C45.87 14.771 45.69 15.151 45.33 15.461C44.76 15.931 44 16.331 43.06 16.641C42.12 16.951 41.17 17.111 40.2 17.111C39.35 17.111 38.55 16.951 37.81 16.641C37.07 16.331 36.42 15.901 35.87 15.371C35.32 14.831 34.89 14.191 34.58 13.461C34.27 12.721 34.11 11.941 34.11 11.111C34.11 10.131 34.26 9.231 34.56 8.401C34.86 7.571 35.28 6.861 35.82 6.271C36.36 5.671 37 5.211 37.76 4.881C38.51 4.551 39.34 4.39099 40.24 4.39099C41.32 4.39099 42.3 4.64099 43.17 5.14099C44.04 5.64099 44.74 6.341 45.27 7.241C45.53 7.711 45.74 8.23099 45.91 8.80099C46.07 9.36099 46.16 9.88099 46.16 10.361C46.16 10.881 46.03 11.261 45.77 11.491C45.51 11.721 45.08 11.831 44.47 11.831H38.88L38.9 11.811ZM41.82 9.481C42.08 9.481 42.27 9.48099 42.38 9.50099C42.49 9.52099 42.66 9.541 42.87 9.571C42.54 7.891 41.7 7.041 40.34 7.041C38.98 7.041 38.08 7.881 37.74 9.571C37.97 9.541 38.14 9.51099 38.27 9.50099C38.39 9.48099 38.58 9.481 38.82 9.481H41.81H41.82Z" fill="#868686"/>
<path d="M55.2999 15.711C54.4799 16.641 53.4399 17.111 52.1899 17.111C51.4199 17.111 50.7099 16.951 50.0699 16.641C49.4199 16.331 48.87 15.901 48.4 15.341C47.93 14.781 47.5699 14.121 47.3099 13.351C47.0499 12.581 46.9199 11.731 46.9199 10.801C46.9199 9.87098 47.06 9.01099 47.34 8.23099C47.62 7.45099 48.01 6.77097 48.52 6.20097C49.03 5.63097 49.6199 5.18098 50.3099 4.86098C50.9999 4.54098 51.7499 4.38098 52.5699 4.38098C53.1399 4.38098 53.6399 4.48097 54.0699 4.67097C54.4899 4.87097 54.9099 5.18098 55.3199 5.63098C55.7899 4.83098 56.3299 4.43098 56.9099 4.43098C58.0199 4.43098 58.58 5.12098 58.58 6.49098V15.341C58.58 15.881 58.4299 16.301 58.1299 16.601C57.8299 16.901 57.4099 17.051 56.8699 17.051C56.4299 17.051 56.0899 16.951 55.8499 16.741C55.6099 16.541 55.4499 16.201 55.3699 15.721L55.3199 15.701L55.2999 15.711ZM52.77 7.50098C52 7.50098 51.3799 7.81097 50.9099 8.42097C50.4399 9.03097 50.2 9.84098 50.2 10.831C50.2 11.821 50.4199 12.541 50.8699 13.121C51.3199 13.701 51.9199 13.991 52.6699 13.991C53.4699 13.991 54.0999 13.701 54.5699 13.121C55.0399 12.541 55.27 11.731 55.27 10.711C55.27 9.69098 55.0499 8.89098 54.6199 8.33098C54.1899 7.77098 53.57 7.50098 52.77 7.50098Z" fill="#868686"/>
<path d="M0.780029 25.4011C0.780029 24.8611 0.950029 24.4211 1.28003 24.0911C1.61003 23.7611 2.04007 23.5911 2.57007 23.5911C3.10007 23.5911 3.49007 23.7611 3.82007 24.0911C4.15007 24.4311 4.31006 24.8611 4.31006 25.4011V38.3911C4.31006 38.9311 4.14005 39.371 3.80005 39.731C3.46005 40.081 3.02006 40.261 2.50006 40.261C1.98006 40.261 1.58007 40.091 1.26007 39.761C0.940071 39.431 0.780029 38.991 0.780029 38.451V25.4111V25.4011Z" fill="#868686"/>
<path d="M9.40991 27.511C9.40991 27.381 9.40992 27.291 9.41992 27.231C9.41992 27.171 9.45995 27.081 9.50995 26.951C9.37995 26.981 9.28992 27.001 9.22992 27.011C9.16992 27.011 9.07995 27.021 8.94995 27.021H7.44995C7.03995 27.021 6.71992 26.991 6.47992 26.931C6.23992 26.871 6.03994 26.761 5.87994 26.601C5.56994 26.291 5.40991 25.891 5.40991 25.401C5.40991 24.321 6.08994 23.781 7.43994 23.781H14.89C16.25 23.781 16.9199 24.321 16.9199 25.401C16.9199 25.971 16.7599 26.381 16.4299 26.641C16.0999 26.891 15.59 27.021 14.89 27.021H13.4199C13.2899 27.021 13.1899 27.021 13.1299 27.011C13.0599 27.011 12.97 26.981 12.84 26.951C12.89 27.081 12.9199 27.171 12.9299 27.231C12.9299 27.291 12.9399 27.381 12.9399 27.511V38.301C12.9399 38.921 12.7799 39.411 12.4699 39.771C12.1599 40.131 11.73 40.311 11.2 40.311C10.63 40.311 10.1899 40.131 9.87994 39.781C9.56994 39.431 9.40991 38.931 9.40991 38.301V27.511Z" fill="#868686"/>
<path d="M30.6401 23.421C31.3301 23.421 31.96 23.491 32.55 23.631C33.14 23.771 33.6501 23.951 34.0901 24.181C34.5301 24.411 34.8801 24.681 35.1301 24.991C35.3801 25.301 35.5101 25.641 35.5101 26.001C35.5101 26.201 35.4701 26.391 35.3901 26.581C35.3101 26.771 35.2001 26.941 35.0701 27.091C34.9401 27.251 34.7901 27.371 34.6201 27.461C34.4501 27.551 34.2801 27.591 34.1201 27.591C33.8401 27.591 33.5001 27.501 33.0901 27.321C32.5801 27.141 32.1101 27.001 31.6801 26.891C31.2501 26.781 30.8501 26.731 30.4901 26.731C30.0601 26.731 29.6101 26.841 29.1301 27.071C28.6501 27.301 28.24 27.581 27.92 27.901C27.49 28.331 27.1701 28.891 26.9401 29.601C26.7101 30.311 26.6 31.071 26.6 31.871C26.6 33.471 26.97 34.731 27.72 35.651C28.46 36.571 29.4701 37.021 30.7501 37.021C30.9301 37.021 31.1001 37.021 31.2601 37.001C31.4201 36.981 31.5901 36.951 31.7601 36.901C31.9301 36.851 32.1201 36.791 32.3401 36.721C32.5501 36.651 32.81 36.551 33.1 36.441C33.38 36.311 33.61 36.221 33.8 36.181C33.99 36.141 34.16 36.121 34.3 36.121C34.69 36.121 35.0301 36.281 35.3101 36.591C35.5901 36.901 35.73 37.281 35.73 37.721C35.73 38.101 35.5901 38.451 35.3101 38.771C35.0301 39.101 34.6601 39.381 34.1801 39.631C33.7101 39.881 33.1501 40.071 32.5101 40.211C31.8701 40.351 31.19 40.421 30.48 40.421C29.35 40.421 28.3201 40.221 27.3901 39.811C26.4601 39.401 25.65 38.831 24.98 38.091C24.3 37.351 23.7701 36.481 23.4001 35.451C23.0201 34.431 22.8401 33.301 22.8401 32.081C22.8401 30.861 23.03 29.641 23.42 28.591C23.8 27.541 24.34 26.621 25.04 25.861C25.73 25.091 26.5601 24.501 27.5201 24.071C28.4801 23.651 29.53 23.431 30.67 23.431L30.6401 23.421Z" fill="#868686"/>
<path d="M42.0601 27.511C42.9101 27.511 43.7001 27.671 44.4401 27.991C45.1801 28.311 45.81 28.751 46.35 29.331C46.89 29.901 47.31 30.581 47.61 31.351C47.91 32.131 48.0601 32.961 48.0601 33.861C48.0601 34.761 47.91 35.651 47.61 36.431C47.31 37.211 46.89 37.891 46.35 38.461C45.81 39.031 45.1701 39.481 44.4301 39.801C43.6901 40.121 42.8801 40.281 42.0201 40.281C41.3701 40.281 40.6901 40.151 39.9901 39.901C39.2901 39.651 38.6901 39.311 38.2001 38.881C37.5301 38.341 37.0101 37.611 36.6301 36.701C36.2501 35.781 36.0701 34.841 36.0701 33.861C36.0701 32.961 36.2201 32.121 36.5201 31.351C36.8201 30.571 37.24 29.901 37.78 29.331C38.32 28.761 38.9501 28.311 39.6801 27.991C40.4101 27.671 41.2001 27.511 42.0701 27.511H42.0601ZM42.0601 30.621C41.6801 30.621 41.3401 30.701 41.0201 30.871C40.7001 31.041 40.4301 31.261 40.2001 31.561C39.9701 31.851 39.79 32.201 39.66 32.601C39.53 33.001 39.4601 33.431 39.4601 33.891C39.4601 34.351 39.53 34.801 39.66 35.201C39.79 35.601 39.9701 35.951 40.2001 36.241C40.4301 36.531 40.7001 36.761 41.0101 36.931C41.3201 37.091 41.66 37.181 42.04 37.181C42.81 37.181 43.4401 36.871 43.9301 36.261C44.4201 35.651 44.67 34.861 44.67 33.891C44.67 33.431 44.6 33.001 44.47 32.601C44.34 32.201 44.1601 31.851 43.9301 31.561C43.7001 31.271 43.43 31.041 43.11 30.871C42.79 30.701 42.4401 30.621 42.0701 30.621H42.0601Z" fill="#868686"/>
<path d="M54.84 27.511C55.69 27.511 56.48 27.671 57.22 27.991C57.96 28.311 58.59 28.751 59.13 29.331C59.67 29.901 60.09 30.581 60.39 31.351C60.69 32.131 60.84 32.961 60.84 33.861C60.84 34.761 60.69 35.651 60.39 36.431C60.09 37.211 59.67 37.891 59.13 38.461C58.59 39.031 57.95 39.481 57.21 39.801C56.47 40.121 55.66 40.281 54.8 40.281C54.15 40.281 53.47 40.151 52.77 39.901C52.07 39.651 51.47 39.311 50.98 38.881C50.31 38.341 49.79 37.611 49.41 36.701C49.03 35.781 48.85 34.841 48.85 33.861C48.85 32.961 49 32.121 49.3 31.351C49.6 30.571 50.02 29.901 50.56 29.331C51.1 28.761 51.73 28.311 52.46 27.991C53.19 27.671 53.98 27.511 54.85 27.511H54.84ZM54.84 30.621C54.46 30.621 54.12 30.701 53.8 30.871C53.48 31.041 53.21 31.261 52.98 31.561C52.75 31.851 52.57 32.201 52.44 32.601C52.31 33.001 52.24 33.431 52.24 33.891C52.24 34.351 52.31 34.801 52.44 35.201C52.57 35.601 52.75 35.951 52.98 36.241C53.21 36.531 53.48 36.761 53.79 36.931C54.1 37.091 54.44 37.181 54.82 37.181C55.59 37.181 56.22 36.871 56.71 36.261C57.2 35.651 57.45 34.861 57.45 33.891C57.45 33.431 57.38 33.001 57.25 32.601C57.12 32.201 56.94 31.851 56.71 31.561C56.48 31.271 56.21 31.041 55.89 30.871C55.57 30.701 55.22 30.621 54.85 30.621H54.84Z" fill="#868686"/>
<path d="M65.43 39.131C65.45 39.361 65.46 39.5511 65.48 39.6911C65.5 39.8411 65.51 39.981 65.52 40.131C65.52 40.281 65.53 40.4411 65.53 40.6111V43.2211C65.53 43.7811 65.38 44.2111 65.08 44.5311C64.78 44.8511 64.37 45.011 63.87 45.011C63.4 45.011 63.01 44.841 62.71 44.511C62.41 44.171 62.26 43.7511 62.26 43.2211V29.4911C62.26 28.9211 62.42 28.4711 62.73 28.1411C63.04 27.8111 63.46 27.6511 63.98 27.6511C64.39 27.6511 64.7 27.7611 64.92 27.9711C65.14 28.1811 65.32 28.5311 65.45 29.0011L65.47 29.0211C66.34 28.0611 67.3899 27.571 68.6299 27.571C69.2999 27.571 69.97 27.7111 70.64 28.0011C71.31 28.2911 71.88 28.6911 72.36 29.2111C72.9 29.7811 73.31 30.4611 73.59 31.2411C73.87 32.0211 74.0099 32.9011 74.0099 33.8611C74.0099 34.8211 73.87 35.741 73.58 36.541C73.29 37.351 72.87 38.0411 72.32 38.6111C71.81 39.1311 71.22 39.551 70.53 39.851C69.84 40.151 69.14 40.3011 68.42 40.3011C67.83 40.3011 67.31 40.2011 66.85 39.9911C66.39 39.7911 65.9399 39.4711 65.4999 39.0511L65.45 39.101L65.43 39.131ZM68.05 30.7711C67.28 30.7711 66.6801 31.0511 66.2401 31.6211C65.8001 32.1811 65.58 32.9311 65.58 33.8611C65.58 34.8911 65.8001 35.6911 66.2401 36.2711C66.6801 36.8511 67.3099 37.1411 68.1299 37.1411C68.8699 37.1411 69.45 36.8511 69.9 36.2811C70.34 35.7111 70.56 34.941 70.56 33.981C70.56 33.021 70.33 32.2411 69.86 31.6511C69.39 31.0611 68.79 30.7711 68.06 30.7711H68.05Z" fill="#868686"/>
<path d="M79.48 35.041C79.2 35.041 79.0099 35.041 78.8999 35.021C78.7899 35.001 78.6299 34.971 78.3999 34.921C78.7399 36.591 79.7099 37.421 81.2899 37.421C81.5699 37.421 81.84 37.391 82.1 37.331C82.36 37.271 82.6199 37.201 82.8799 37.101C82.9299 37.081 82.9499 37.081 82.9399 37.081C82.9399 37.081 82.9599 37.071 83.0099 37.041C83.0699 37.021 83.18 36.951 83.35 36.861C83.52 36.761 83.81 36.611 84.22 36.391C84.55 36.231 84.8499 36.141 85.1299 36.141C85.5099 36.141 85.8199 36.281 86.0699 36.561C86.3199 36.841 86.45 37.161 86.45 37.541C86.45 38.001 86.2699 38.381 85.9099 38.691C85.3399 39.161 84.5799 39.561 83.6399 39.871C82.6999 40.181 81.7499 40.341 80.7799 40.341C79.9299 40.341 79.1299 40.181 78.3899 39.871C77.6499 39.561 77 39.131 76.45 38.601C75.9 38.061 75.4699 37.421 75.1599 36.691C74.8499 35.951 74.6899 35.171 74.6899 34.341C74.6899 33.361 74.8399 32.461 75.1399 31.631C75.4399 30.801 75.8599 30.091 76.3999 29.501C76.9399 28.901 77.58 28.441 78.34 28.111C79.09 27.781 79.9199 27.621 80.8199 27.621C81.8999 27.621 82.8799 27.871 83.7499 28.371C84.6199 28.871 85.32 29.571 85.85 30.471C86.11 30.941 86.32 31.461 86.49 32.031C86.65 32.591 86.74 33.111 86.74 33.591C86.74 34.111 86.61 34.491 86.35 34.721C86.09 34.951 85.6599 35.061 85.0499 35.061H79.46L79.48 35.041ZM82.3999 32.711C82.6599 32.711 82.85 32.711 82.96 32.731C83.07 32.751 83.24 32.771 83.45 32.801C83.12 31.121 82.2799 30.271 80.9199 30.271C79.5599 30.271 78.6599 31.111 78.3199 32.801C78.5499 32.771 78.72 32.741 78.85 32.731C78.97 32.711 79.1599 32.711 79.3999 32.711H82.3899H82.3999Z" fill="#868686"/>
<path d="M88.1299 29.501C88.1299 28.931 88.29 28.471 88.61 28.131C88.93 27.791 89.35 27.621 89.87 27.621C90.29 27.621 90.6399 27.731 90.9099 27.951C91.1799 28.171 91.3799 28.531 91.5099 29.041C91.9499 28.521 92.3399 28.151 92.6899 27.951C93.0299 27.751 93.3899 27.641 93.7699 27.641C94.2799 27.641 94.6899 27.801 95.0099 28.121C95.3299 28.441 95.49 28.841 95.49 29.331C95.49 29.531 95.4699 29.701 95.4199 29.841C95.3699 29.991 95.2799 30.121 95.1499 30.241C95.0199 30.361 94.84 30.481 94.61 30.581C94.38 30.691 94.09 30.811 93.73 30.961C92.86 31.271 92.2599 31.611 91.9299 31.971C91.5899 32.331 91.4299 32.801 91.4299 33.371V38.471C91.4299 39.041 91.28 39.481 90.99 39.791C90.7 40.101 90.28 40.261 89.74 40.261C89.23 40.261 88.8399 40.101 88.5599 39.781C88.2799 39.461 88.1399 39.021 88.1399 38.471V29.501H88.1299Z" fill="#868686"/>
<path d="M103.67 38.941C102.85 39.871 101.81 40.341 100.56 40.341C99.7901 40.341 99.0801 40.181 98.4401 39.871C97.7901 39.561 97.24 39.131 96.77 38.571C96.3 38.011 95.9401 37.351 95.6801 36.581C95.4201 35.811 95.29 34.961 95.29 34.031C95.29 33.101 95.4301 32.241 95.7101 31.461C95.9901 30.681 96.38 30.001 96.89 29.431C97.4 28.861 97.9901 28.411 98.6801 28.091C99.3701 27.771 100.12 27.611 100.94 27.611C101.51 27.611 102.01 27.711 102.44 27.901C102.86 28.101 103.28 28.411 103.69 28.861C104.16 28.061 104.7 27.661 105.28 27.661C106.39 27.661 106.95 28.351 106.95 29.721V38.571C106.95 39.111 106.8 39.531 106.5 39.831C106.2 40.131 105.78 40.281 105.24 40.281C104.8 40.281 104.46 40.181 104.22 39.971C103.98 39.771 103.82 39.431 103.74 38.951L103.69 38.931L103.67 38.941ZM101.14 30.731C100.37 30.731 99.75 31.041 99.28 31.651C98.81 32.261 98.5701 33.071 98.5701 34.061C98.5701 35.051 98.7901 35.771 99.2401 36.351C99.6901 36.931 100.29 37.221 101.04 37.221C101.84 37.221 102.47 36.931 102.94 36.351C103.41 35.771 103.64 34.961 103.64 33.941C103.64 32.921 103.42 32.121 102.99 31.561C102.56 31.001 101.94 30.731 101.14 30.731Z" fill="#868686"/>
<path d="M110.15 31.191V30.911C110.15 30.851 110.17 30.761 110.2 30.631C110.12 30.661 110.06 30.691 110.02 30.701C109.98 30.721 109.92 30.721 109.84 30.721H109.52C108.49 30.721 107.98 30.251 107.98 29.321C107.98 28.861 108.12 28.491 108.4 28.221C108.68 27.941 109.05 27.801 109.53 27.801H109.85C109.93 27.801 109.99 27.801 110.03 27.821C110.07 27.841 110.13 27.861 110.21 27.891C110.18 27.761 110.16 27.671 110.16 27.611V25.611C110.16 25.141 110.31 24.751 110.61 24.451C110.91 24.151 111.31 24.001 111.8 24.001C112.29 24.001 112.72 24.151 113.04 24.441C113.36 24.731 113.52 25.131 113.52 25.621V27.341C113.52 27.471 113.52 27.561 113.51 27.621C113.51 27.681 113.47 27.771 113.42 27.901C113.52 27.871 113.59 27.841 113.63 27.831C113.67 27.811 113.74 27.811 113.84 27.811H114.16C114.6 27.811 114.97 27.951 115.26 28.241C115.55 28.531 115.7 28.881 115.7 29.311C115.7 29.741 115.56 30.081 115.28 30.341C115 30.601 114.63 30.731 114.15 30.731H113.83C113.73 30.731 113.66 30.731 113.62 30.711C113.58 30.691 113.51 30.671 113.41 30.641C113.46 30.771 113.49 30.861 113.5 30.921C113.5 30.981 113.51 31.071 113.51 31.201V38.581C113.51 39.051 113.35 39.451 113.02 39.771C112.69 40.091 112.28 40.251 111.79 40.251C111.3 40.251 110.9 40.101 110.6 39.801C110.3 39.501 110.15 39.091 110.15 38.591V31.211V31.191Z" fill="#868686"/>
<path d="M118.65 22.5811C119.21 22.5811 119.67 22.7711 120.05 23.1611C120.43 23.5411 120.61 24.011 120.61 24.571C120.61 25.131 120.42 25.611 120.05 25.981C119.67 26.351 119.19 26.5311 118.6 26.5311C118.04 26.5311 117.58 26.3411 117.21 25.9711C116.84 25.5911 116.66 25.131 116.66 24.571C116.66 24.011 116.85 23.5411 117.22 23.1611C117.6 22.7811 118.07 22.5811 118.64 22.5811H118.65ZM116.98 29.6911C116.98 28.3311 117.54 27.6611 118.65 27.6611C119.76 27.6611 120.34 28.3411 120.34 29.6911V38.201C120.34 39.571 119.78 40.261 118.65 40.261C117.52 40.261 116.98 39.571 116.98 38.201V29.6911Z" fill="#868686"/>
<path d="M127.75 27.511C128.6 27.511 129.39 27.671 130.13 27.991C130.87 28.311 131.5 28.751 132.04 29.331C132.58 29.901 133 30.581 133.3 31.351C133.6 32.131 133.75 32.961 133.75 33.861C133.75 34.761 133.6 35.651 133.3 36.431C133 37.211 132.58 37.891 132.04 38.461C131.5 39.031 130.86 39.481 130.12 39.801C129.38 40.121 128.57 40.281 127.71 40.281C127.06 40.281 126.38 40.151 125.68 39.901C124.98 39.651 124.38 39.311 123.89 38.881C123.22 38.341 122.7 37.611 122.32 36.701C121.94 35.781 121.76 34.841 121.76 33.861C121.76 32.961 121.91 32.121 122.21 31.351C122.51 30.571 122.93 29.901 123.47 29.331C124.01 28.761 124.64 28.311 125.37 27.991C126.1 27.671 126.89 27.511 127.76 27.511H127.75ZM127.75 30.621C127.37 30.621 127.03 30.701 126.71 30.871C126.39 31.041 126.12 31.261 125.89 31.561C125.66 31.851 125.48 32.201 125.35 32.601C125.22 33.001 125.15 33.431 125.15 33.891C125.15 34.351 125.22 34.801 125.35 35.201C125.48 35.601 125.66 35.951 125.89 36.241C126.12 36.531 126.39 36.761 126.7 36.931C127.01 37.091 127.35 37.181 127.73 37.181C128.5 37.181 129.13 36.871 129.62 36.261C130.11 35.651 130.36 34.861 130.36 33.891C130.36 33.431 130.29 33.001 130.16 32.601C130.03 32.201 129.85 31.851 129.62 31.561C129.39 31.271 129.12 31.041 128.8 30.871C128.48 30.711 128.13 30.621 127.76 30.621H127.75Z" fill="#868686"/>
<path d="M135.15 29.471C135.15 28.901 135.3 28.441 135.6 28.101C135.9 27.761 136.31 27.591 136.81 27.591C137.19 27.591 137.49 27.681 137.72 27.871C137.95 28.061 138.15 28.371 138.33 28.811C138.8 28.401 139.32 28.091 139.87 27.871C140.43 27.651 141.01 27.541 141.64 27.541C142.27 27.541 142.85 27.651 143.39 27.871C143.94 28.091 144.42 28.411 144.85 28.841C145.24 29.231 145.53 29.681 145.71 30.181C145.89 30.681 145.98 31.271 145.98 31.961V38.461C145.98 39.021 145.83 39.461 145.53 39.781C145.23 40.111 144.81 40.271 144.29 40.271C143.77 40.271 143.39 40.111 143.11 39.781C142.83 39.451 142.69 38.991 142.69 38.381V32.621C142.69 31.931 142.5 31.391 142.11 30.991C141.73 30.591 141.22 30.391 140.6 30.391C139.95 30.391 139.42 30.591 139.02 31.001C138.62 31.411 138.42 31.951 138.42 32.621V38.451C138.42 39.021 138.27 39.471 137.97 39.791C137.67 40.111 137.25 40.271 136.71 40.271C136.22 40.271 135.84 40.111 135.56 39.791C135.28 39.471 135.14 39.031 135.14 38.451V29.481L135.15 29.471Z" fill="#868686"/>
<path d="M160.8 23.421C161.49 23.421 162.12 23.491 162.71 23.631C163.3 23.771 163.81 23.951 164.25 24.181C164.69 24.411 165.04 24.681 165.29 24.991C165.54 25.301 165.67 25.641 165.67 26.001C165.67 26.201 165.63 26.391 165.55 26.581C165.47 26.771 165.36 26.941 165.23 27.091C165.1 27.251 164.95 27.371 164.78 27.461C164.61 27.551 164.44 27.591 164.28 27.591C164 27.591 163.66 27.501 163.25 27.321C162.74 27.141 162.27 27.001 161.84 26.891C161.41 26.781 161.01 26.731 160.65 26.731C160.22 26.731 159.77 26.841 159.29 27.071C158.81 27.301 158.4 27.581 158.08 27.901C157.65 28.331 157.33 28.891 157.1 29.601C156.87 30.311 156.76 31.071 156.76 31.871C156.76 33.471 157.13 34.731 157.88 35.651C158.62 36.571 159.63 37.021 160.91 37.021C161.09 37.021 161.26 37.021 161.42 37.001C161.58 36.981 161.75 36.951 161.92 36.901C162.09 36.851 162.28 36.791 162.5 36.721C162.71 36.651 162.97 36.551 163.26 36.441C163.54 36.311 163.77 36.221 163.96 36.181C164.15 36.141 164.32 36.121 164.46 36.121C164.85 36.121 165.19 36.281 165.47 36.591C165.75 36.901 165.89 37.281 165.89 37.721C165.89 38.101 165.75 38.451 165.47 38.771C165.19 39.101 164.82 39.381 164.34 39.631C163.87 39.881 163.31 40.071 162.67 40.211C162.03 40.351 161.35 40.421 160.64 40.421C159.51 40.421 158.48 40.221 157.55 39.811C156.62 39.401 155.81 38.831 155.14 38.091C154.46 37.351 153.93 36.481 153.56 35.451C153.18 34.431 153 33.301 153 32.081C153 30.861 153.19 29.641 153.58 28.591C153.96 27.541 154.5 26.621 155.2 25.861C155.89 25.091 156.72 24.501 157.68 24.071C158.64 23.651 159.69 23.431 160.83 23.431L160.8 23.421Z" fill="#868686"/>
<path d="M170.92 35.041C170.64 35.041 170.45 35.041 170.34 35.021C170.23 35.001 170.07 34.971 169.84 34.921C170.18 36.591 171.15 37.421 172.73 37.421C173.01 37.421 173.28 37.391 173.54 37.331C173.8 37.271 174.06 37.201 174.32 37.101C174.37 37.081 174.39 37.081 174.38 37.081C174.37 37.081 174.4 37.071 174.45 37.041C174.51 37.021 174.62 36.951 174.79 36.861C174.96 36.771 175.25 36.611 175.66 36.391C175.99 36.231 176.29 36.141 176.57 36.141C176.95 36.141 177.26 36.281 177.51 36.561C177.76 36.841 177.89 37.161 177.89 37.541C177.89 38.001 177.71 38.381 177.35 38.691C176.78 39.161 176.02 39.561 175.08 39.871C174.14 40.181 173.19 40.341 172.22 40.341C171.37 40.341 170.57 40.181 169.83 39.871C169.09 39.561 168.44 39.131 167.89 38.601C167.34 38.061 166.91 37.421 166.6 36.691C166.29 35.951 166.13 35.171 166.13 34.341C166.13 33.361 166.28 32.461 166.58 31.631C166.88 30.801 167.3 30.091 167.84 29.501C168.38 28.901 169.02 28.441 169.78 28.111C170.53 27.781 171.36 27.621 172.26 27.621C173.34 27.621 174.32 27.871 175.19 28.371C176.06 28.871 176.76 29.571 177.29 30.471C177.55 30.941 177.76 31.461 177.93 32.031C178.09 32.591 178.18 33.111 178.18 33.591C178.18 34.111 178.05 34.491 177.79 34.721C177.53 34.951 177.1 35.061 176.49 35.061H170.9L170.92 35.041ZM173.84 32.711C174.1 32.711 174.29 32.711 174.4 32.731C174.51 32.751 174.68 32.771 174.89 32.801C174.56 31.121 173.72 30.271 172.36 30.271C171 30.271 170.1 31.111 169.76 32.801C169.99 32.771 170.16 32.741 170.29 32.731C170.41 32.711 170.6 32.711 170.84 32.711H173.83H173.84Z" fill="#868686"/>
<path d="M179.57 29.471C179.57 28.901 179.72 28.441 180.02 28.101C180.32 27.761 180.73 27.591 181.23 27.591C181.61 27.591 181.91 27.681 182.14 27.871C182.37 28.061 182.57 28.371 182.75 28.811C183.22 28.401 183.74 28.091 184.29 27.871C184.85 27.651 185.43 27.541 186.06 27.541C186.69 27.541 187.27 27.651 187.81 27.871C188.36 28.091 188.84 28.411 189.27 28.841C189.66 29.231 189.95 29.681 190.13 30.181C190.31 30.681 190.4 31.271 190.4 31.961V38.461C190.4 39.021 190.25 39.461 189.95 39.781C189.65 40.111 189.23 40.271 188.71 40.271C188.19 40.271 187.81 40.111 187.53 39.781C187.25 39.451 187.11 38.991 187.11 38.381V32.621C187.11 31.931 186.92 31.391 186.53 30.991C186.15 30.591 185.64 30.391 185.02 30.391C184.37 30.391 183.84 30.591 183.44 31.001C183.04 31.411 182.84 31.951 182.84 32.621V38.451C182.84 39.021 182.69 39.471 182.39 39.791C182.09 40.111 181.67 40.271 181.13 40.271C180.64 40.271 180.26 40.111 179.98 39.791C179.7 39.471 179.56 39.031 179.56 38.451V29.481L179.57 29.471Z" fill="#868686"/>
<path d="M193.57 31.191V30.911C193.57 30.851 193.59 30.761 193.62 30.631C193.54 30.661 193.48 30.691 193.44 30.701C193.4 30.721 193.34 30.721 193.26 30.721H192.94C191.91 30.721 191.4 30.251 191.4 29.321C191.4 28.861 191.54 28.491 191.82 28.221C192.1 27.951 192.47 27.801 192.95 27.801H193.27C193.35 27.801 193.41 27.801 193.45 27.821C193.49 27.841 193.55 27.861 193.63 27.891C193.6 27.761 193.58 27.671 193.58 27.611V25.611C193.58 25.141 193.73 24.751 194.03 24.451C194.33 24.151 194.73 24.001 195.22 24.001C195.71 24.001 196.14 24.151 196.46 24.441C196.78 24.731 196.94 25.131 196.94 25.621V27.341C196.94 27.471 196.94 27.561 196.93 27.621C196.93 27.681 196.89 27.771 196.84 27.901C196.94 27.871 197.01 27.841 197.05 27.831C197.09 27.811 197.16 27.811 197.26 27.811H197.58C198.02 27.811 198.39 27.951 198.68 28.241C198.97 28.531 199.12 28.881 199.12 29.311C199.12 29.741 198.98 30.081 198.7 30.341C198.42 30.601 198.05 30.731 197.57 30.731H197.25C197.15 30.731 197.08 30.731 197.04 30.711C197 30.691 196.93 30.671 196.83 30.641C196.88 30.771 196.91 30.861 196.92 30.921C196.92 30.981 196.93 31.071 196.93 31.201V38.581C196.93 39.051 196.77 39.451 196.44 39.771C196.11 40.091 195.7 40.251 195.21 40.251C194.72 40.251 194.32 40.101 194.02 39.801C193.72 39.501 193.57 39.091 193.57 38.591V31.211V31.191Z" fill="#868686"/>
<path d="M203.8 35.041C203.52 35.041 203.33 35.041 203.22 35.021C203.11 35.001 202.95 34.971 202.72 34.921C203.06 36.591 204.03 37.421 205.61 37.421C205.89 37.421 206.16 37.391 206.42 37.331C206.68 37.271 206.94 37.201 207.2 37.101C207.25 37.081 207.27 37.081 207.26 37.081C207.25 37.081 207.28 37.071 207.33 37.041C207.39 37.021 207.5 36.951 207.67 36.861C207.84 36.771 208.13 36.611 208.54 36.391C208.87 36.231 209.17 36.141 209.45 36.141C209.83 36.141 210.14 36.281 210.39 36.561C210.64 36.841 210.77 37.161 210.77 37.541C210.77 38.001 210.59 38.381 210.23 38.691C209.66 39.161 208.9 39.561 207.96 39.871C207.02 40.181 206.07 40.341 205.1 40.341C204.25 40.341 203.45 40.181 202.71 39.871C201.97 39.561 201.32 39.131 200.77 38.601C200.22 38.061 199.79 37.421 199.48 36.691C199.17 35.951 199.01 35.171 199.01 34.341C199.01 33.361 199.16 32.461 199.46 31.631C199.76 30.801 200.18 30.091 200.72 29.501C201.26 28.901 201.9 28.441 202.66 28.111C203.41 27.781 204.24 27.621 205.14 27.621C206.22 27.621 207.2 27.871 208.07 28.371C208.94 28.871 209.64 29.571 210.17 30.471C210.43 30.941 210.64 31.461 210.81 32.031C210.97 32.591 211.06 33.111 211.06 33.591C211.06 34.111 210.93 34.491 210.67 34.721C210.41 34.951 209.98 35.061 209.37 35.061H203.78L203.8 35.041ZM206.72 32.711C206.98 32.711 207.17 32.711 207.28 32.731C207.39 32.751 207.56 32.771 207.77 32.801C207.44 31.121 206.6 30.271 205.24 30.271C203.88 30.271 202.98 31.111 202.64 32.801C202.87 32.771 203.04 32.741 203.17 32.731C203.29 32.711 203.48 32.711 203.72 32.711H206.71H206.72Z" fill="#868686"/>
<path d="M212.45 29.501C212.45 28.931 212.61 28.471 212.93 28.131C213.25 27.791 213.67 27.621 214.19 27.621C214.61 27.621 214.96 27.731 215.23 27.951C215.5 28.171 215.7 28.531 215.83 29.041C216.27 28.521 216.66 28.151 217.01 27.951C217.35 27.751 217.71 27.641 218.09 27.641C218.6 27.641 219.01 27.801 219.33 28.121C219.65 28.441 219.81 28.841 219.81 29.331C219.81 29.531 219.79 29.701 219.74 29.841C219.69 29.991 219.6 30.121 219.47 30.241C219.34 30.361 219.16 30.481 218.93 30.581C218.7 30.691 218.41 30.811 218.05 30.961C217.18 31.271 216.58 31.611 216.25 31.971C215.91 32.331 215.75 32.801 215.75 33.371V38.471C215.75 39.041 215.6 39.481 215.31 39.791C215.02 40.101 214.6 40.261 214.06 40.261C213.55 40.261 213.16 40.101 212.88 39.781C212.6 39.461 212.46 39.021 212.46 38.471V29.501H212.45Z" fill="#868686"/>
<path d="M4.01001 55.2009C3.92001 55.2009 3.84999 55.2009 3.79999 55.2009C3.74999 55.2009 3.68003 55.1709 3.59003 55.1409C3.62003 55.2309 3.65002 55.3009 3.65002 55.3509C3.65002 55.4009 3.65002 55.4709 3.65002 55.5809V58.8709C3.65002 59.2809 3.52999 59.6009 3.29999 59.8409C3.06999 60.0809 2.75003 60.2009 2.34003 60.2009C1.98003 60.2009 1.68997 60.0809 1.46997 59.8509C1.24997 59.6209 1.14001 59.3009 1.14001 58.9109V49.6409C1.14001 49.2609 1.25999 48.9509 1.48999 48.7109C1.71999 48.4709 2.02002 48.3509 2.40002 48.3509C2.78002 48.3509 3.09001 48.4609 3.32001 48.6909C3.55001 48.9209 3.65997 49.2309 3.65997 49.6409V52.6209C3.65997 52.7109 3.65997 52.7809 3.65997 52.8209C3.65997 52.8609 3.62998 52.9309 3.59998 53.0209C3.68998 52.9909 3.76 52.9609 3.81 52.9609C3.86 52.9609 3.93002 52.9609 4.02002 52.9609H8.40997C8.49997 52.9609 8.57 52.9609 8.62 52.9609C8.67 52.9609 8.74002 52.9909 8.83002 53.0209C8.80002 52.9309 8.77002 52.8609 8.77002 52.8209C8.77002 52.7809 8.77002 52.7109 8.77002 52.6209V49.6409C8.77002 49.2309 8.87998 48.9109 9.09998 48.6709C9.31998 48.4309 9.63002 48.3109 10.02 48.3109C10.39 48.3109 10.69 48.4309 10.93 48.6709C11.16 48.9109 11.28 49.2309 11.28 49.6409V58.9109C11.28 59.3109 11.16 59.6209 10.93 59.8509C10.7 60.0809 10.4 60.2009 10.02 60.2009C9.62002 60.2009 9.31998 60.0809 9.09998 59.8509C8.87998 59.6209 8.77002 59.2909 8.77002 58.8709V55.5809C8.77002 55.4809 8.77002 55.4009 8.77002 55.3509C8.77002 55.3009 8.80002 55.2309 8.83002 55.1409C8.74002 55.1709 8.67 55.2009 8.62 55.2009C8.57 55.2009 8.49997 55.2009 8.40997 55.2009H4.02002H4.01001Z" fill="#868686"/>
<path d="M18.11 48.2109C18.6 48.2109 19.05 48.2609 19.47 48.3609C19.89 48.4609 20.2501 48.5909 20.5701 48.7509C20.8801 48.9109 21.1301 49.1009 21.3101 49.3309C21.4901 49.5509 21.5801 49.7909 21.5801 50.0409C21.5801 50.1809 21.5501 50.3209 21.4901 50.4509C21.4301 50.5809 21.3601 50.7109 21.2601 50.8209C21.1701 50.9309 21.0601 51.0209 20.9401 51.0809C20.8201 51.1409 20.7001 51.1809 20.5801 51.1809C20.3801 51.1809 20.14 51.1209 19.85 50.9909C19.49 50.8609 19.16 50.7609 18.85 50.6909C18.54 50.6109 18.2601 50.5809 18.0001 50.5809C17.7001 50.5809 17.38 50.6609 17.03 50.8209C16.69 50.9809 16.4 51.1809 16.17 51.4109C15.87 51.7109 15.64 52.1209 15.47 52.6209C15.31 53.1309 15.23 53.6609 15.23 54.2309C15.23 55.3709 15.4901 56.2609 16.0201 56.9109C16.5501 57.5609 17.27 57.8909 18.17 57.8909C18.3 57.8909 18.42 57.8909 18.54 57.8709C18.66 57.8609 18.7801 57.8409 18.9001 57.8009C19.0201 57.7609 19.1601 57.7209 19.3101 57.6709C19.4601 57.6209 19.64 57.5509 19.85 57.4709C20.05 57.3809 20.21 57.3209 20.35 57.2909C20.48 57.2609 20.6001 57.2509 20.7101 57.2509C20.9901 57.2509 21.23 57.3609 21.42 57.5809C21.62 57.8009 21.72 58.0709 21.72 58.3809C21.72 58.6509 21.62 58.9009 21.42 59.1309C21.22 59.3609 20.9601 59.5709 20.6201 59.7409C20.2801 59.9109 19.8901 60.0509 19.4301 60.1509C18.9801 60.2509 18.49 60.3009 17.98 60.3009C17.18 60.3009 16.45 60.1509 15.78 59.8609C15.11 59.5709 14.5501 59.1609 14.0601 58.6409C13.5801 58.1209 13.2001 57.4909 12.9401 56.7709C12.6701 56.0409 12.54 55.2409 12.54 54.3709C12.54 53.5009 12.6801 52.6409 12.9501 51.8909C13.2201 51.1409 13.61 50.4909 14.1 49.9509C14.59 49.4009 15.18 48.9809 15.86 48.6809C16.54 48.3809 17.29 48.2309 18.1 48.2309L18.11 48.2109Z" fill="#868686"/>
<path d="M25.3799 52.1909C25.3499 52.4909 25.3199 52.7509 25.2999 52.9709C25.2799 53.1909 25.2599 53.3909 25.2299 53.6009C25.1999 53.8009 25.1699 54.0209 25.1299 54.2509C25.0999 54.4809 25.0499 54.7609 25.0099 55.0909L24.5399 58.1709C24.4799 58.5409 24.41 58.8609 24.33 59.1209C24.25 59.3809 24.1599 59.5909 24.0499 59.7509C23.9499 59.9109 23.8199 60.0209 23.6699 60.0909C23.5199 60.1609 23.34 60.1909 23.15 60.1909C22.78 60.1909 22.4799 60.0809 22.2599 59.8509C22.0399 59.6209 21.9299 59.3209 21.9299 58.9309C21.9299 58.8409 21.94 58.6809 21.96 58.4509C21.98 58.2209 22.02 57.9709 22.08 57.6909L22.1099 57.4309L22.14 57.1709L22.1699 56.9109L23.34 50.1009C23.41 49.7309 23.4799 49.4609 23.5399 49.2809C23.5999 49.1109 23.7 48.9509 23.83 48.8109C24.13 48.4809 24.55 48.3209 25.08 48.3209C26.06 48.3209 26.6999 48.8709 26.9999 49.9809L28.0499 53.5909C28.1299 53.8809 28.1999 54.1209 28.2599 54.3209C28.3199 54.5209 28.3699 54.7009 28.4099 54.8809C28.4499 55.0509 28.4899 55.2309 28.5299 55.4109C28.5699 55.5909 28.6199 55.8109 28.6799 56.0809H28.77C28.83 55.8109 28.8799 55.5909 28.9199 55.4109C28.9599 55.2309 28.9999 55.0509 29.0399 54.8809C29.0799 54.7109 29.1299 54.5209 29.1799 54.3209C29.2299 54.1209 29.2999 53.8709 29.3799 53.5709L30.46 49.7009C30.59 49.2609 30.7999 48.9209 31.0999 48.6809C31.3999 48.4409 31.77 48.3209 32.21 48.3209C32.67 48.3209 33.0399 48.4409 33.3099 48.6709C33.4099 48.7509 33.4999 48.8409 33.5699 48.9409C33.6399 49.0409 33.6999 49.1709 33.7599 49.3209C33.8199 49.4809 33.8699 49.6709 33.9299 49.8909C33.9799 50.1109 34.0399 50.3809 34.0999 50.7109L35.2199 57.2109L35.3599 57.8509C35.3899 58.0509 35.42 58.2509 35.45 58.4409C35.47 58.6409 35.4799 58.8209 35.4799 58.9809C35.4799 59.3509 35.3699 59.6509 35.1599 59.8609C34.9399 60.0709 34.6499 60.1809 34.2599 60.1809C33.8699 60.1809 33.59 60.0709 33.4 59.8409C33.21 59.6109 33.0699 59.2309 32.9899 58.7009L32.4099 55.0909C32.3499 54.7609 32.31 54.4909 32.27 54.2609C32.24 54.0309 32.2099 53.8209 32.1799 53.6209C32.1599 53.4209 32.1299 53.2109 32.1099 52.9909C32.0899 52.7809 32.0599 52.5109 32.0399 52.2009H31.95C31.88 52.5009 31.8199 52.7509 31.7799 52.9609C31.7299 53.1609 31.69 53.3609 31.64 53.5609C31.59 53.7609 31.5399 53.9709 31.4699 54.1909C31.4099 54.4109 31.3299 54.6909 31.2499 55.0309L30.1899 58.8109C30.0399 59.3209 29.86 59.6809 29.64 59.8809C29.42 60.0809 29.11 60.1809 28.71 60.1809C28.5 60.1809 28.3199 60.1609 28.1799 60.1109C28.0299 60.0609 27.8999 59.9909 27.7899 59.8709C27.6699 59.7609 27.5699 59.6109 27.4799 59.4209C27.3899 59.2309 27.3099 58.9909 27.2299 58.7009L26.1799 54.9909C26.0899 54.6609 26.0099 54.3909 25.9399 54.1709C25.8799 53.9509 25.82 53.7409 25.77 53.5509C25.72 53.3609 25.6799 53.1609 25.6299 52.9509C25.5799 52.7409 25.53 52.4909 25.46 52.1809H25.3699L25.3799 52.1909Z" fill="#868686"/>
<path d="M41.59 48.2109C42.08 48.2109 42.53 48.2609 42.95 48.3609C43.37 48.4609 43.73 48.5909 44.05 48.7509C44.36 48.9109 44.61 49.1009 44.79 49.3309C44.97 49.5509 45.06 49.7909 45.06 50.0409C45.06 50.1809 45.03 50.3209 44.97 50.4509C44.91 50.5809 44.84 50.7109 44.74 50.8209C44.65 50.9309 44.54 51.0209 44.42 51.0809C44.3 51.1409 44.18 51.1809 44.06 51.1809C43.86 51.1809 43.62 51.1209 43.33 50.9909C42.97 50.8609 42.64 50.7609 42.33 50.6909C42.02 50.6109 41.74 50.5809 41.48 50.5809C41.18 50.5809 40.86 50.6609 40.51 50.8209C40.17 50.9809 39.88 51.1809 39.65 51.4109C39.35 51.7109 39.12 52.1209 38.95 52.6209C38.79 53.1309 38.71 53.6609 38.71 54.2309C38.71 55.3709 38.97 56.2609 39.5 56.9109C40.03 57.5609 40.75 57.8909 41.65 57.8909C41.78 57.8909 41.9 57.8909 42.02 57.8709C42.14 57.8609 42.26 57.8409 42.38 57.8009C42.5 57.7609 42.64 57.7209 42.79 57.6709C42.94 57.6209 43.12 57.5509 43.33 57.4709C43.53 57.3809 43.69 57.3209 43.83 57.2909C43.96 57.2609 44.08 57.2509 44.19 57.2509C44.47 57.2509 44.71 57.3609 44.9 57.5809C45.1 57.8009 45.2 58.0709 45.2 58.3809C45.2 58.6509 45.1 58.9009 44.9 59.1309C44.7 59.3609 44.44 59.5709 44.1 59.7409C43.76 59.9109 43.37 60.0509 42.91 60.1509C42.46 60.2509 41.97 60.3009 41.46 60.3009C40.66 60.3009 39.93 60.1509 39.26 59.8609C38.59 59.5709 38.03 59.1609 37.54 58.6409C37.06 58.1209 36.68 57.4909 36.42 56.7709C36.15 56.0409 36.02 55.2409 36.02 54.3709C36.02 53.5009 36.16 52.6409 36.43 51.8909C36.7 51.1409 37.09 50.4909 37.58 49.9509C38.07 49.4009 38.66 48.9809 39.34 48.6809C40.02 48.3809 40.77 48.2309 41.58 48.2309L41.59 48.2109Z" fill="#868686"/>
</svg>
