<svg viewBox="0 0 193 71" fill="none" xmlns="http://www.w3.org/2000/svg"><path d="M37.2603 52.7302H41.1702L45.8002 66.9302L50.4302 52.7302H54.41k2L47.9503 70.6802H43.8002L37.2603 52.7302Z" fill="#81878D"></path><path d="M60.8 52.7302H57.29V70.6802H60.8V52.7302Z" fill="#81878D"></path><path d="M65.4302 52.7302V70.6802H77.7902V68.3702H68.8602V62.6202H76.5202V59.9902H68.8602V55.1202H77.7902V52.7302H65.4302Z" fill="#81878D"></path><path d="M79.9502 52.7302V55.0402H85.3702V70.6802H88.9601V55.1202H94.5502V52.7302H79.9502Z" fill="#81878D"></path><path d="M97.5 52.7302V70.6802H101.25V58.3202L109.23 70.6802H112.82V52.7302H109.15V65.0202L101.17 52.7302H97.5Z" fill="#81878D"></path><path d="M126.06 52.7402H121.99L115.61 70.6902H119.6L120.96 66.7702H127.42L128.63 70.6902H132.7L126.07 52.7402H126.06ZM121.75 64.0602L124.16 57.6003L126.55 64.0602H121.75Z" fill="#81878D"></path><path d="M135.24 70.6802H138.99V58.4802L144.1 70.6802H146.65L151.44 58.4802V70.6802H155.27V52.7302H150.32L145.25 66.2902L140.27 52.7302H135.24V70.6802Z" fill="#81878D"></path><path d="M55.5804 0.120117L41.1504 36.9301H53.4203L55.1603 32.0601H68.9904L70.7303 36.9301H83.0004L68.5704 0.120117H55.5804ZM57.9604 23.2201L62.0704 11.7201L66.1804 23.2201H57.9504H57.9604Z" fill="#03CF5D"></path><path d="M134.06 22.9401H150.84V14.1001H134.06V9.14014H151.03V0.120117H122.34V36.9301H151.39V27.9101H134.06V22.9401Z" fill="#03CF5D"></path><path d="M97.6199 24.3201L88.9599 0.120117H76.6899L91.1199 36.9301H104.11L118.55 0.120117H106.28L97.6199 24.3201Z" fill="#03CF5D"></path><path d="M25.4501 19.8201L11.7301 0.120117H0.370117V36.9301H12.2701V17.2301L25.9901 36.9301H37.3501V0.120117H25.4501V19.8201Z" fill="#03CF5D"></path><path d="M182.86 24.3001L183.98 23.8301C188.26 22.0401 190.43 18.1701 190.43 13.2501C190.43 8.60012 188.73 5.16012 185.39 3.03012C182.28 1.05012 178.25 0.120117 172.7 0.120117H157.16V36.9301H168.71V26.6501H172.86L179.9 36.9301H192.17L182.86 24.3001ZM174.84 17.2601H168.52V9.50012H174.84C176.98 9.50012 178.72 11.2401 178.72 13.3801C178.72 15.5201 176.98 17.2601 174.84 17.2601Z" fill="#03CF5D"></path></svg>