<svg width="164" height="61" viewBox="0 0 164 61" fill="none" xmlns="http://www.w3.org/2000/svg">
<path d="M31.3701 45.021H34.6901L38.6301 57.101L42.5601 45.021H45.9601L40.4601 60.291H36.9301L31.3701 45.021Z" fill="#868686"/>
<path d="M51.3902 45.021H48.4001V60.281H51.3902V45.021Z" fill="#868686"/>
<path d="M55.3201 45.021V60.291H65.8301V58.321H58.2401V53.441H64.7501V51.201H58.2401V47.061H65.8301V45.021H55.3201Z" fill="#868686"/>
<path d="M67.6702 45.021V46.991H72.2802V60.291H75.3302V47.061H80.0802V45.021H67.6702Z" fill="#868686"/>
<path d="M82.5901 45.021V60.291H85.7801V49.771L92.5601 60.291H95.6201V45.021H92.5001V55.471L85.7101 45.021H82.5901Z" fill="#868686"/>
<path d="M106.88 45.031H103.42L97.9902 60.291H101.38L102.53 56.961H108.02L109.04 60.291H112.5L106.86 45.031H106.88ZM103.21 54.651L105.26 49.161L107.29 54.651H103.21Z" fill="#868686"/>
<path d="M114.68 60.291H117.87V49.911L122.21 60.291H124.38L128.45 49.911V60.291H131.71V45.021H127.5L123.2 56.561L118.96 45.021H114.68V60.291Z" fill="#868686"/>
<path d="M46.9399 0.291016L34.6699 31.591H45.0999L46.5799 27.451H58.3399L59.8199 31.591H70.2499L57.9799 0.291016H46.9299H46.9399ZM48.9599 19.931L52.4599 10.151L55.9599 19.931H48.9599Z" fill="#868686"/>
<path d="M113.68 19.701H127.95V12.181H113.68V7.96101H128.1V0.291016H103.71V31.591H128.41V23.921H113.68V19.701Z" fill="#868686"/>
<path d="M82.6899 20.871L75.3299 0.291016H64.8899L77.1699 31.591H88.2099L100.49 0.291016H90.0499L82.6899 20.871Z" fill="#868686"/>
<path d="M21.32 17.041L9.66 0.291016H0V31.591H10.12V14.841L21.78 31.591H31.45V0.291016H21.32V17.041Z" fill="#868686"/>
<path d="M155.17 20.851L156.12 20.451C159.76 18.931 161.61 15.631 161.61 11.451C161.61 7.501 160.17 4.57102 157.32 2.76102C154.68 1.07102 151.25 0.291016 146.53 0.291016H133.32V31.591H143.14V22.851H146.67L152.65 31.591H163.08L155.17 20.851ZM148.35 14.861H142.98V8.26102H148.35C150.17 8.26102 151.65 9.741 151.65 11.561C151.65 13.381 150.17 14.861 148.35 14.861Z" fill="#868686"/>
</svg>
