<svg width="221" height="61" viewBox="0 0 221 61" fill="none" xmlns="http://www.w3.org/2000/svg">
<mask id="mask0_82_394" style="mask-type:luminance" maskUnits="userSpaceOnUse" x="1" y="0" width="60" height="60">
<path d="M29.6501 0.720917C13.3201 1.46092 0.680063 15.3009 1.42006 31.6409C2.16006 47.9709 16.0001 60.6109 32.3301 59.8709C48.6701 59.1209 61.3001 45.2909 60.5701 28.9609C59.8501 13.0909 46.7601 0.700918 31.0201 0.690918C30.5701 0.690918 30.1101 0.700917 29.6501 0.720917Z" fill="white"/>
</mask>
<g mask="url(#mask0_82_394)">
<path d="M61.2902 0.690918H0.670166V60.6009H61.2902V0.690918Z" fill="url(#paint0_radial_82_394)"/>
</g>
<mask id="mask1_82_394" style="mask-type:luminance" maskUnits="userSpaceOnUse" x="0" y="0" width="61" height="61">
<path d="M24.22 55.721C20.91 55.401 16.96 54.351 13.51 51.371C10.34 48.641 8.37998 44.871 7.41998 41.551C6.43998 38.161 6.02998 34.211 7.63998 34.521C8.12998 34.621 8.98998 36.791 9.91998 38.381C10.88 40.021 11.66 40.921 12.4 41.481C12.73 41.731 13.86 39.211 15.51 37.781C16.47 36.991 17.51 36.721 17.69 39.071C17.89 41.961 17.37 45.401 18.21 45.401C18.99 45.401 20.77 44.811 24.68 44.471C26.15 44.351 26.99 44.631 25.59 46.591C24.89 47.581 23.96 48.971 21.74 50.561C25.06 53.671 29.04 53.291 29.12 54.621C29.17 55.381 27.68 55.801 25.73 55.801C25.25 55.801 24.74 55.771 24.22 55.721ZM35.4 27.781C32.36 27.141 31.74 24.381 31.74 24.381C31.49 23.401 31.43 22.171 31.64 20.611C32.05 17.331 32.94 15.801 33.94 13.251C35.29 9.84098 32 7.85099 32.54 6.59099C33.28 4.89099 35.63 7.05098 38.26 7.21098C40.52 7.33098 41.88 7.22097 43.63 7.45097C45.97 7.76097 48.76 8.55099 50 10.011C51.14 11.351 49.39 12.981 47.31 11.961C45.78 11.211 43.85 11.671 44.98 13.261C46.33 14.781 46.99 14.821 48.38 15.181C52.2 16.181 52.28 19.851 49.69 21.741C46.75 23.891 43.76 23.001 42.57 18.781C41.97 16.671 40.49 15.601 38.96 16.201C37.45 16.791 38.34 19.571 39.5 22.141C41.5 27.241 37.46 27.781 35.91 27.781C35.67 27.781 35.49 27.761 35.4 27.761M33.2 56.661C33.17 55.981 34.16 55.821 34.16 55.821C43.04 54.071 40.44 48.251 37.3 45.281C35.98 44.041 23.62 33.371 23.62 33.371C11.84 23.231 12.79 15.311 12.79 15.311C13.37 5.56097 21.89 3.15098 28.34 3.71098C29.1 3.77098 29.52 4.23098 29.38 4.86098C29.25 5.55098 28.24 5.59099 28.24 5.59099C26.19 5.71099 24.35 5.92098 22.95 6.86098C17.75 10.361 19.28 16.311 26.21 22.941C27.08 23.771 28.01 24.651 28.97 25.551C28.97 25.551 30.35 26.781 33.13 29.411C38.46 34.321 41.38 36.971 41.38 36.971C50.79 44.801 47.56 51.961 43.98 54.441C41.24 56.341 38.2 57.231 34.22 57.441C34.19 57.441 34.15 57.441 34.12 57.441C33.75 57.441 33.21 57.221 33.19 56.641M29.61 0.280975C13.07 1.03098 0.259995 15.051 0.999995 31.601C1.75 48.151 15.77 60.961 32.33 60.211C48.88 59.461 61.7 45.441 60.95 28.891C60.22 12.801 46.94 0.250977 30.99 0.250977C30.53 0.250977 30.07 0.250975 29.61 0.280975Z" fill="white"/>
</mask>
<g mask="url(#mask1_82_394)">
<path d="M61.71 0.291016H0.27002V61.011H61.71V0.291016Z" fill="url(#paint1_radial_82_394)"/>
</g>
<path d="M76.21 26.781C76.55 27.061 76.95 27.311 77.39 27.541C77.83 27.771 78.2901 27.961 78.7501 28.111C79.2101 28.271 79.66 28.391 80.12 28.471C80.57 28.561 80.9901 28.601 81.3801 28.601C82.3301 28.601 83.07 28.401 83.61 28.001C84.15 27.601 84.42 27.011 84.42 26.211C84.42 25.601 84.28 25.091 83.99 24.671C83.7 24.251 83.17 23.841 82.39 23.451C81.94 23.221 81.5101 23.011 81.1001 22.821C80.6901 22.631 80.31 22.441 79.93 22.241C79.56 22.041 79.19 21.821 78.84 21.601C78.49 21.371 78.14 21.121 77.8 20.841C77.19 20.291 76.69 19.681 76.3 19.011C75.91 18.331 75.7201 17.501 75.7201 16.521C75.7201 15.851 75.8601 15.231 76.1301 14.661C76.4001 14.091 76.8001 13.601 77.3101 13.201C77.8201 12.801 78.4501 12.481 79.1901 12.251C79.9301 12.021 80.7701 11.911 81.7001 11.911C83.7301 11.911 85.5201 12.251 87.1001 12.941V15.811C87.1001 16.031 87.02 16.161 86.87 16.221C86.71 16.271 86.5501 16.231 86.3801 16.091C85.1001 15.021 83.7 14.481 82.17 14.481C81.33 14.481 80.69 14.661 80.24 15.021C79.8 15.381 79.5701 15.881 79.5701 16.521C79.5701 16.971 79.65 17.361 79.8 17.691C79.96 18.021 80.1901 18.311 80.5001 18.551C81.0901 19.031 81.73 19.451 82.4 19.811C83.08 20.171 83.74 20.501 84.4 20.811C85.01 21.091 85.55 21.391 86.02 21.721C86.49 22.051 86.9 22.421 87.24 22.841C87.57 23.261 87.8301 23.741 88.0001 24.281C88.1701 24.821 88.2601 25.441 88.2601 26.161C88.2601 27.051 88.0801 27.811 87.7301 28.441C87.3801 29.071 86.89 29.591 86.27 30.011C85.65 30.421 84.92 30.721 84.08 30.911C83.25 31.101 82.35 31.191 81.4 31.191C80.7 31.191 79.9701 31.111 79.2201 30.961C78.4601 30.801 77.7901 30.611 77.2001 30.361C76.6101 30.121 76.14 29.851 75.8 29.551C75.46 29.251 75.3501 28.961 75.4701 28.661L76.1901 26.771L76.21 26.781Z" fill="#868686"/>
<path d="M104.51 12.431V30.661H100.7V22.601H93.9V30.661H90.09V14.791C90.09 14.391 90.05 14.071 89.96 13.831C89.87 13.601 89.72 13.351 89.5 13.111C89.36 12.941 89.32 12.781 89.38 12.641C89.44 12.501 89.56 12.431 89.73 12.431H93.89V19.811H100.69V12.431H104.5H104.51Z" fill="#868686"/>
<path d="M108.09 30.651V14.781C108.09 14.381 108.05 14.061 107.96 13.821C107.87 13.591 107.72 13.341 107.5 13.101C107.36 12.931 107.32 12.771 107.38 12.631C107.44 12.491 107.56 12.421 107.73 12.421H111.89V30.651H108.08H108.09Z" fill="#868686"/>
<path d="M115.22 30.651V14.781C115.22 14.381 115.18 14.061 115.09 13.821C115 13.591 114.85 13.341 114.63 13.101C114.49 12.931 114.45 12.771 114.51 12.631C114.57 12.491 114.69 12.421 114.86 12.421H118.9L124.46 22.071L126.31 25.481L126.08 21.531V12.421H129.87V30.651H126.13L120.5 20.741L118.82 17.491L119.03 21.531V30.641H115.22V30.651Z" fill="#868686"/>
<path d="M147.16 12.431V30.661H143.35V22.601H136.55V30.661H132.74V14.791C132.74 14.391 132.7 14.071 132.61 13.831C132.52 13.601 132.37 13.351 132.15 13.111C132.01 12.941 131.97 12.781 132.03 12.641C132.09 12.501 132.21 12.431 132.38 12.431H136.54V19.811H143.34V12.431H147.15H147.16Z" fill="#868686"/>
<path d="M154.73 15.391C154.92 14.891 155 14.471 154.98 14.141C154.96 13.811 154.87 13.511 154.73 13.241C154.4 12.691 154.55 12.421 155.17 12.421H158.65L165.66 30.651H161.85L160 25.581H154.34L152.52 30.651H148.73L154.71 15.391H154.73ZM155.34 22.801H159.01L157.16 17.571L155.34 22.801Z" fill="#868686"/>
<path d="M167.07 30.651V14.781C167.07 14.381 167.03 14.061 166.94 13.821C166.85 13.591 166.7 13.341 166.48 13.101C166.34 12.931 166.3 12.771 166.36 12.631C166.42 12.491 166.54 12.421 166.71 12.421H170.75L176.31 22.071L178.16 25.481L177.93 21.531V12.421H181.72V30.651H177.98L172.35 20.741L170.67 17.491L170.88 21.531V30.641H167.07V30.651Z" fill="#868686"/>
<path d="M190.67 12.431H197.68C198.94 12.431 200.13 12.611 201.24 12.971C202.35 13.331 203.33 13.881 204.16 14.631C204.99 15.381 205.65 16.321 206.12 17.471C206.6 18.621 206.83 19.971 206.83 21.551C206.83 23.131 206.59 24.481 206.12 25.631C205.64 26.781 204.99 27.721 204.16 28.471C203.33 29.221 202.35 29.771 201.24 30.131C200.13 30.491 198.94 30.671 197.68 30.671H191.02V14.801C191.02 14.401 190.98 14.081 190.89 13.841C190.8 13.611 190.65 13.361 190.43 13.121C190.29 12.951 190.25 12.791 190.31 12.651C190.37 12.511 190.49 12.441 190.66 12.441L190.67 12.431ZM197.1 27.951C198.25 27.951 199.21 27.791 199.97 27.481C200.73 27.171 201.34 26.731 201.79 26.171C202.24 25.611 202.56 24.941 202.75 24.151C202.94 23.361 203.03 22.491 203.03 21.541C203.03 20.591 202.94 19.721 202.75 18.931C202.56 18.141 202.24 17.471 201.79 16.911C201.34 16.351 200.73 15.921 199.97 15.611C199.21 15.311 198.25 15.151 197.1 15.151H194.83V27.931H197.1V27.951Z" fill="#868686"/>
<path d="M208.46 26.781C208.8 27.061 209.2 27.311 209.64 27.541C210.08 27.771 210.54 27.961 211 28.111C211.46 28.271 211.91 28.391 212.37 28.471C212.82 28.561 213.24 28.601 213.63 28.601C214.58 28.601 215.32 28.401 215.86 28.001C216.4 27.601 216.67 27.011 216.67 26.211C216.67 25.601 216.53 25.091 216.24 24.671C215.95 24.251 215.42 23.841 214.64 23.451C214.19 23.221 213.76 23.011 213.35 22.821C212.94 22.631 212.56 22.441 212.18 22.241C211.81 22.041 211.44 21.821 211.09 21.601C210.74 21.371 210.39 21.121 210.05 20.841C209.44 20.291 208.94 19.681 208.55 19.011C208.16 18.331 207.97 17.501 207.97 16.521C207.97 15.851 208.11 15.231 208.38 14.661C208.65 14.091 209.05 13.601 209.56 13.201C210.07 12.801 210.7 12.481 211.44 12.251C212.18 12.021 213.02 11.911 213.95 11.911C215.98 11.911 217.77 12.251 219.35 12.941V15.811C219.35 16.031 219.27 16.161 219.12 16.221C218.96 16.271 218.8 16.231 218.63 16.091C217.35 15.021 215.95 14.481 214.42 14.481C213.58 14.481 212.94 14.661 212.49 15.021C212.05 15.381 211.82 15.881 211.82 16.521C211.82 16.971 211.9 17.361 212.05 17.691C212.21 18.021 212.44 18.311 212.75 18.551C213.34 19.031 213.98 19.451 214.65 19.811C215.33 20.171 215.99 20.501 216.65 20.811C217.26 21.091 217.8 21.391 218.27 21.721C218.74 22.051 219.15 22.421 219.49 22.841C219.82 23.261 220.08 23.741 220.25 24.281C220.42 24.821 220.51 25.441 220.51 26.161C220.51 27.051 220.33 27.811 219.98 28.441C219.63 29.071 219.14 29.591 218.52 30.011C217.9 30.421 217.17 30.721 216.33 30.911C215.5 31.101 214.6 31.191 213.65 31.191C212.95 31.191 212.22 31.111 211.47 30.961C210.71 30.801 210.04 30.611 209.45 30.361C208.86 30.121 208.39 29.851 208.05 29.551C207.71 29.251 207.6 28.961 207.72 28.661L208.44 26.771L208.46 26.781Z" fill="#868686"/>
<path d="M79.77 44.401L80.21 45.941L80.63 44.401L82.87 37.561H85.15L81.55 48.191H78.85L75.66 38.781C75.61 38.621 75.53 38.471 75.44 38.331C75.35 38.191 75.25 38.081 75.15 37.981C75.05 37.881 75.01 37.781 75.04 37.691C75.07 37.601 75.13 37.551 75.23 37.551H77.52L79.77 44.391V44.401Z" fill="#868686"/>
<path d="M86.4501 48.191V38.931C86.4501 38.691 86.4201 38.511 86.3801 38.371C86.3301 38.231 86.2401 38.091 86.1101 37.951C86.0301 37.851 86.0101 37.761 86.0401 37.681C86.0801 37.601 86.1401 37.561 86.2401 37.561H88.6701V48.191H86.4501Z" fill="#868686"/>
<path d="M90.61 48.191V38.931C90.61 38.691 90.58 38.511 90.53 38.371C90.48 38.231 90.39 38.091 90.26 37.951C90.18 37.851 90.16 37.761 90.19 37.681C90.23 37.601 90.29 37.561 90.39 37.561H96.95V39.161H92.82V42.081H96.57V43.681H92.82V46.621H97.25V48.201H90.6L90.61 48.191Z" fill="#868686"/>
<path d="M97.8201 37.551H105.56V39.191H102.81V48.191H100.59V39.191H97.8201V37.551Z" fill="#868686"/>
<path d="M106.56 48.191V38.931C106.56 38.691 106.53 38.511 106.48 38.371C106.43 38.231 106.34 38.091 106.21 37.951C106.13 37.851 106.11 37.761 106.14 37.681C106.18 37.601 106.24 37.561 106.34 37.561H108.7L111.94 43.191L113.02 45.181L112.88 42.881V37.561H115.09V48.191H112.91L109.62 42.411L108.64 40.521L108.76 42.881V48.201H106.54L106.56 48.191Z" fill="#868686"/>
<path d="M119.4 39.281C119.51 38.991 119.56 38.751 119.54 38.551C119.53 38.351 119.48 38.181 119.4 38.031C119.21 37.711 119.3 37.551 119.66 37.551H121.69L125.78 48.181H123.56L122.48 45.221H119.18L118.12 48.181H115.91L119.4 39.281ZM119.75 43.601H121.89L120.81 40.551L119.75 43.601Z" fill="#868686"/>
<path d="M132.99 47.721H131.27L129.06 41.571L128.68 40.401L128.72 41.651V48.181H126.59V38.771C126.59 38.591 126.55 38.441 126.5 38.311C126.45 38.191 126.37 38.061 126.25 37.941C126.17 37.841 126.15 37.751 126.18 37.671C126.22 37.591 126.28 37.551 126.38 37.551H129.32L132.11 45.211L134.9 37.551H137.64V48.181H135.51V41.651L135.55 40.401L135.17 41.571L132.96 47.721H132.99Z" fill="#868686"/>
<defs>
<radialGradient id="paint0_radial_82_394" cx="0" cy="0" r="1" gradientUnits="userSpaceOnUse" gradientTransform="translate(33.1194 10.1679) scale(27.9966 27.9966)">
<stop stop-color="white"/>
<stop offset="1" stop-color="#A4A4A4"/>
</radialGradient>
<radialGradient id="paint1_radial_82_394" cx="0" cy="0" r="1" gradientUnits="userSpaceOnUse" gradientTransform="translate(35.42 19.331) scale(62.64 62.64)">
<stop stop-color="#8C8C8C"/>
<stop offset="0.22" stop-color="#717171"/>
<stop offset="0.24" stop-color="#6B6B6B"/>
<stop offset="0.34" stop-color="#5A5A5A"/>
<stop offset="0.45" stop-color="#4F4F4F"/>
<stop offset="0.57" stop-color="#4C4C4C"/>
<stop offset="1" stop-color="#4C4C4C"/>
</radialGradient>
</defs>
</svg>
