<svg width="103" height="61" viewBox="0 0 103 61" fill="none" xmlns="http://www.w3.org/2000/svg">
<path d="M1.67006 1.66113C2.59006 0.771127 3.87004 0.281126 5.15004 0.301126C6.98004 0.301126 8.82004 0.301126 10.65 0.301126C10.62 9.47113 10.63 18.6511 10.63 27.8211C10.65 29.4511 10.97 31.2011 12.13 32.4211C13 33.3911 14.2701 33.9311 15.5601 34.0211C16.2601 34.0311 16.97 34.0711 17.65 33.9311C18.95 33.6911 20.1901 32.9711 20.9401 31.8711C21.7701 30.7111 22.05 29.2411 22.03 27.8311C22.04 19.2311 22.03 10.6311 22.03 2.03112C22.03 1.46112 22.04 0.89113 22.02 0.32113C22.12 0.31113 22.2201 0.301126 22.3201 0.301126C25.7401 0.301126 29.1501 0.301126 32.5701 0.301126C32.5701 9.27113 32.5701 18.2411 32.5701 27.2111C32.5901 28.7811 32.51 30.3611 32.14 31.8911C31.33 35.2611 29.2801 38.3211 26.4401 40.3211C24.8501 41.4811 23.0201 42.2911 21.1201 42.8111C19.9101 43.1111 18.6701 43.3611 17.4201 43.3811C16.6801 43.4511 15.9301 43.4711 15.2001 43.3811C10.6101 43.2211 6.02007 41.1111 3.18007 37.4511C2.10007 36.0611 1.29002 34.4611 0.760022 32.7811C0.290022 31.1711 0.0901103 29.4911 0.10011 27.8211C0.10011 20.3211 0.10011 12.8111 0.10011 5.31112C0.0801103 3.94112 0.660047 2.58113 1.66005 1.65113L1.67006 1.66113Z" fill="#868686"/>
<path d="M38.4101 1.74115C39.3401 0.801154 40.6601 0.281157 41.9801 0.291157C50.0001 0.291157 58.0101 0.291157 66.0301 0.291157C66.0301 3.42116 66.0301 6.55116 66.0301 9.68116C59.8401 9.68116 53.6501 9.68116 47.4701 9.68116C47.4401 12.0612 47.4501 14.4412 47.4701 16.8212C52.6101 16.8212 57.7601 16.8212 62.9001 16.8212C63.0401 16.8212 63.1801 16.8011 63.3101 16.8611C63.3101 19.4111 63.3101 21.9712 63.3101 24.5212C63.3101 25.0812 63.3301 25.6412 63.2901 26.1912C58.0201 26.1612 52.7401 26.1912 47.4601 26.1812C47.4401 28.6912 47.4501 31.2011 47.4601 33.7011C53.6501 33.7111 59.8301 33.7011 66.0201 33.7011C66.0401 35.1211 66.0201 36.5311 66.0301 37.9511C66.0301 39.1011 65.6901 40.2811 64.9501 41.1711C64.0301 42.3711 62.5301 43.0812 61.0201 43.0612C56.4801 43.0612 51.9401 43.0612 47.4101 43.0612C43.9201 43.0612 40.4301 43.0812 36.9401 43.0512C36.9401 30.4712 36.9401 17.8812 36.9401 5.30115C36.8901 3.97115 37.4501 2.65116 38.4001 1.73116L38.4101 1.74115Z" fill="#868686"/>
<path d="M70.5301 0.321152C74.0201 0.281152 77.5201 0.321147 81.0101 0.301147C81.0401 5.56115 81.0101 10.8312 81.0201 16.0912C81.0201 16.2812 81.0202 16.4711 80.9902 16.6611C81.1202 16.7811 81.3101 16.7611 81.4701 16.7711C85.0501 16.7711 88.6201 16.7711 92.2001 16.7711C92.2001 11.2911 92.2101 5.81115 92.2001 0.321152C95.7001 0.291152 99.2101 0.331142 102.71 0.311142C102.73 12.4511 102.71 24.5912 102.71 36.7411C102.68 37.6211 102.8 38.5112 102.56 39.3712C102.14 41.0912 100.72 42.5211 99 42.9511C98.13 43.1911 97.2201 43.0811 96.3301 43.1011C94.9501 43.1011 93.5701 43.1011 92.1901 43.1011C92.1901 38.0411 92.1901 32.9812 92.1901 27.9312C92.1901 27.3412 92.2001 26.7611 92.1801 26.1711C88.4701 26.1911 84.7601 26.1711 81.0501 26.1711C81.0501 31.8111 81.0301 37.4512 81.0501 43.0912C77.5301 43.1112 74.02 43.0811 70.5 43.1011C70.46 39.2011 70.5001 35.2911 70.4801 31.3911C70.4801 21.4211 70.4801 11.4612 70.4801 1.49115C70.4801 1.10115 70.46 0.711152 70.5 0.321152H70.5301Z" fill="#868686"/>
<path d="M66.78 47.8211C67.55 47.4011 68.4401 47.2411 69.3101 47.2711C70.5401 47.2311 71.81 47.4011 72.88 48.0411C73.21 48.2411 73.6101 48.4611 73.7401 48.8411C73.3201 49.3311 72.82 49.7511 72.38 50.2211C72.2 50.3811 72.05 50.6211 71.8 50.6811C71.49 50.5411 71.25 50.2811 70.92 50.1911C70.31 50.0311 69.68 50.0111 69.05 50.0411C68.44 50.0711 67.82 50.5211 67.76 51.1611C67.76 51.6711 68.2501 52.0511 68.7101 52.1411C69.6701 52.3011 70.6601 52.3511 71.6001 52.6211C72.4001 52.8611 73.1701 53.3311 73.5701 54.0811C74.0101 54.8611 74.0201 55.8011 73.9901 56.6711C73.9601 57.5211 73.5201 58.3011 72.9501 58.9011C72.0701 59.7511 70.86 60.1711 69.66 60.2811C68.46 60.3411 67.2401 60.3011 66.1001 59.9011C65.3401 59.6211 64.59 59.2511 64.05 58.6311C64.69 57.9511 65.38 57.3211 66.02 56.6411C66.69 57.1911 67.55 57.3711 68.4 57.4511C69.12 57.4711 69.91 57.5211 70.55 57.1111C70.86 56.9011 70.8801 56.4911 70.8601 56.1611C70.8501 55.7411 70.5001 55.3711 70.0801 55.3111C68.9301 55.0911 67.73 55.0711 66.63 54.6411C65.81 54.3311 65.1201 53.6611 64.8701 52.8111C64.5301 51.8511 64.56 50.7711 64.92 49.8311C65.22 48.9411 65.95 48.2511 66.77 47.8411L66.78 47.8211Z" fill="#868686"/>
<path d="M0.0300293 47.3611C1.13003 47.3511 2.23008 47.3611 3.33008 47.3611C3.31008 50.1111 3.33008 52.8511 3.33008 55.6011C3.31008 56.1711 3.5301 56.7511 3.9801 57.1311C4.3401 57.5311 4.93004 57.4712 5.42004 57.4412C6.21004 57.3912 6.81005 56.6311 6.80005 55.8611C6.81005 53.0311 6.80005 50.2011 6.80005 47.3711C7.87005 47.3611 8.93 47.3611 10 47.3711C10.03 50.1111 10 52.8511 10.01 55.6011C10.02 56.6411 9.77006 57.7411 9.06006 58.5311C7.47006 60.4011 4.54002 60.7811 2.40002 59.6711C1.85002 59.3311 1.30005 58.9411 0.930054 58.4011C0.390054 57.6711 0.140049 56.7611 0.0500488 55.8711C0.0400488 53.0411 0.0700293 50.2011 0.0300293 47.3711V47.3611Z" fill="#868686"/>
<path d="M12.41 47.3611C13.31 47.3611 14.2101 47.3511 15.1101 47.3611C15.2801 47.3311 15.3601 47.4911 15.4401 47.6111C15.7801 48.1811 16.17 48.7211 16.53 49.2911C17.14 50.2011 17.6601 51.1711 18.3101 52.0511C18.6901 52.5611 18.95 53.1611 19.42 53.6011C19.45 51.5211 19.4201 49.4411 19.4301 47.3611C20.5001 47.3611 21.58 47.3611 22.65 47.3611C22.65 51.6411 22.65 55.9112 22.65 60.1912C21.7 60.1812 20.75 60.1912 19.8 60.1912C19.18 59.1612 18.5601 58.1311 17.8501 57.1511C17.4901 56.6111 17.19 56.0411 16.8 55.5211C16.39 54.9811 16.0801 54.3711 15.6901 53.8111C15.6501 55.3211 15.69 56.8411 15.67 58.3611C15.67 58.9711 15.7001 59.5812 15.6201 60.1912C14.5501 60.1712 13.48 60.1911 12.41 60.1811C12.41 55.9111 12.43 51.6411 12.41 47.3711V47.3611Z" fill="#868686"/>
<path d="M25.2901 47.351C26.3601 47.351 27.44 47.351 28.51 47.351C28.5 51.611 28.49 55.871 28.51 60.131C27.45 60.211 26.3801 60.1311 25.3101 60.1711C25.2601 59.8011 25.2801 59.4211 25.2801 59.0511C25.2801 55.1511 25.2801 51.2411 25.2801 47.3411L25.2901 47.351Z" fill="#868686"/>
<path d="M29.8 47.3612C30.91 47.3612 32.02 47.3612 33.13 47.3612C33.39 48.3312 33.67 49.2912 34 50.2312C34.23 50.9912 34.4401 51.7512 34.6801 52.5012C34.9101 53.1512 35.0501 53.8312 35.3101 54.4612C35.7401 53.3112 36.02 52.1112 36.38 50.9412C36.66 50.1812 36.8401 49.3912 37.0801 48.6112C37.2001 48.1912 37.3401 47.7812 37.4301 47.3512C38.5601 47.3312 39.6901 47.3512 40.8101 47.3512C40.5901 48.2212 40.2101 49.0412 39.9501 49.8912C39.3001 51.7412 38.6901 53.6112 38.0601 55.4712C37.7201 56.3712 37.48 57.3012 37.14 58.2012C36.9 58.8512 36.7401 59.5212 36.4501 60.1512C35.6801 60.1812 34.91 60.1812 34.14 60.1512C33.98 59.9412 33.9401 59.6612 33.8501 59.4212C32.9701 56.8512 32.12 54.2612 31.25 51.6912C30.87 50.7312 30.58 49.7412 30.26 48.7612C30.14 48.2812 29.9 47.8312 29.79 47.3512L29.8 47.3612Z" fill="#868686"/>
<path d="M42.1201 47.3611C45.0901 47.3611 48.06 47.3611 51.04 47.3611C51.04 48.3111 51.04 49.2611 51.04 50.2011C49.15 50.2011 47.2601 50.1811 45.3701 50.2011C45.3701 50.9011 45.34 51.6111 45.38 52.3111C47 52.3411 48.6201 52.3111 50.2301 52.3311C50.2301 53.2611 50.2201 54.1811 50.2301 55.1111C48.6101 55.1311 46.9901 55.0911 45.3701 55.1311C45.3501 55.8611 45.3501 56.6011 45.3701 57.3311C47.2501 57.3511 49.12 57.3511 51 57.3311C51.09 58.2711 51.02 59.2211 51.04 60.1711C48.62 60.1911 46.2 60.1711 43.79 60.1711C43.24 60.1711 42.69 60.2011 42.14 60.1411C42.16 55.8811 42.16 51.6111 42.14 47.3511L42.1201 47.3611Z" fill="#868686"/>
<path d="M53.25 47.3611C55.01 47.3611 56.78 47.3611 58.54 47.3611C59.86 47.3311 61.2701 47.8611 62.0601 48.9611C62.5901 49.6011 62.8401 50.4211 62.9301 51.2311C63.0001 52.0511 62.74 52.8711 62.29 53.5611C61.91 54.1211 61.35 54.5311 60.77 54.8711C61.32 55.6911 61.7401 56.5911 62.1901 57.4711C62.6201 58.4011 63.2001 59.2411 63.6101 60.1811C62.4801 60.1911 61.3501 60.1811 60.2201 60.1811C60.0701 60.1711 59.86 60.2111 59.79 60.0311C59.05 58.4911 58.35 56.9311 57.55 55.4211C57.21 55.3611 56.86 55.3811 56.52 55.4411C56.52 56.9111 56.52 58.3911 56.52 59.8611C56.54 60.0311 56.4301 60.2311 56.2301 60.1711C55.2301 60.1411 54.2401 60.2211 53.2401 60.1311C53.2801 58.3211 53.24 56.5111 53.26 54.7011C53.26 52.2511 53.28 49.8011 53.25 47.3611ZM56.51 50.2311C56.53 51.0711 56.51 51.9111 56.52 52.7511C57.3 52.8011 58.0901 52.8411 58.8501 52.7011C59.5501 52.4711 59.8701 51.5911 59.5701 50.9411C59.3601 50.5211 58.9301 50.2011 58.4401 50.2111C57.7901 50.2111 57.14 50.1811 56.5 50.2411L56.51 50.2311Z" fill="#868686"/>
<path d="M76.1101 47.3611C77.1801 47.3611 78.2601 47.3611 79.3301 47.3611C79.3301 51.6411 79.3301 55.9111 79.3301 60.1911C78.2601 60.1911 77.1801 60.1911 76.1101 60.1911C76.1101 55.9211 76.1101 51.6411 76.1101 47.3711V47.3611Z" fill="#868686"/>
<path d="M81.17 47.3511C84.38 47.3711 87.59 47.3611 90.8 47.3511C90.85 48.2911 90.8701 49.2311 90.8101 50.1711C89.7301 50.2211 88.6601 50.1711 87.5801 50.2011C87.6101 53.5311 87.6001 56.8511 87.5801 60.1811C86.5101 60.2011 85.45 60.1911 84.38 60.1811C84.38 56.8511 84.38 53.5311 84.38 50.2011C83.31 50.1711 82.23 50.2411 81.16 50.1611C81.16 49.2211 81.19 48.2911 81.16 47.3511H81.17Z" fill="#868686"/>
<path d="M91.5601 47.3611C92.6501 47.3611 93.7501 47.3611 94.8401 47.3611C94.9301 47.3811 95.09 47.3311 95.13 47.4611C95.55 48.5511 96.09 49.5811 96.54 50.6611C96.73 51.0611 96.84 51.5011 97.14 51.8411C97.55 50.8911 97.98 49.9511 98.39 49.0011C98.62 48.4611 98.9001 47.9411 99.0901 47.3811C100.28 47.3511 101.47 47.3811 102.66 47.3711C101.9 48.8811 101.12 50.3811 100.35 51.8811C99.8001 52.8111 99.3801 53.8011 98.8301 54.7311C98.7201 54.9111 98.6901 55.1211 98.7001 55.3311C98.7001 56.9511 98.7001 58.5711 98.7001 60.1911C97.6301 60.2011 96.5601 60.2111 95.4901 60.1911C95.4701 58.4911 95.4901 56.7811 95.4901 55.0811C95.4901 54.9011 95.3901 54.7411 95.3101 54.5911C94.8401 53.8511 94.5301 53.0211 94.0801 52.2711C93.6401 51.5211 93.2901 50.7211 92.8501 49.9611C92.5401 49.4211 92.33 48.8311 92 48.3011C91.82 48.0111 91.67 47.7011 91.55 47.3811L91.5601 47.3611Z" fill="#868686"/>
</svg>
