<svg width="75" height="61" viewBox="0 0 75 61" fill="none" xmlns="http://www.w3.org/2000/svg">
<path d="M62.46 0.291016H63.4102C64.1702 0.431016 64.9301 0.681006 65.5601 1.14101C66.7401 1.97101 67.4502 3.41101 67.4302 4.86101C68.4902 5.34101 69.5202 5.90101 70.4302 6.64101C71.8802 7.78101 73.0202 9.31102 73.6702 11.041C74.3602 12.841 74.5402 14.801 74.3802 16.701C74.1802 18.921 73.57 21.081 72.73 23.131C71.04 27.181 68.57 30.881 65.73 34.211C66.36 33.131 67.1401 32.131 67.7801 31.061C69.3001 28.561 70.7901 26.021 71.8101 23.261C72.5301 21.311 73.01 19.241 72.98 17.161C73.01 14.941 72.5101 12.661 71.3101 10.771C70.2301 9.11101 68.6101 7.84101 66.8201 7.03101C66.5801 7.41101 66.32 7.78101 65.99 8.08101C64.66 9.35101 62.5102 9.61102 60.8902 8.76102C59.6802 8.15102 58.8201 6.97102 58.5401 5.65102C55.8801 5.77102 53.2702 6.291 50.6702 6.811C51.6202 7.641 52.5802 8.46102 53.4302 9.40102C56.2802 12.451 58.38 16.211 59.49 20.241C60.8 24.941 60.7401 30.011 59.3301 34.681C58.0901 38.841 55.79 42.671 52.7 45.721C50.74 47.671 48.47 49.321 45.94 50.451C45.95 50.501 45.97 50.591 45.98 50.641C40.37 53.971 34.3601 56.681 28.0801 58.461C23.5501 59.721 18.8302 60.521 14.1102 60.251C11.1602 60.071 8.17014 59.431 5.60014 57.931C3.64014 56.791 2.00015 55.061 1.11015 52.961C0.04015 50.461 -0.0199476 47.621 0.510052 44.981C1.02005 42.351 2.04009 39.831 3.30009 37.471C5.20009 33.931 7.6301 30.701 10.3101 27.721C15.5401 21.951 21.7302 17.101 28.4002 13.101C34.8102 9.30101 41.72 6.23102 48.99 4.51102C52.17 3.77102 55.43 3.30101 58.71 3.30101C58.97 2.72101 59.27 2.14101 59.72 1.69101C60.44 0.92101 61.44 0.481005 62.47 0.311005L62.46 0.291016ZM39.1502 10.971C31.1802 14.461 23.7501 19.361 17.7801 25.731C15.0501 28.661 12.5 31.811 10.48 35.281C8.84002 38.151 7.55019 41.371 7.65019 44.731C7.69019 46.751 8.2802 48.771 9.4102 50.451C10.6802 52.331 12.63 53.641 14.71 54.481C17.26 55.501 20.0201 56.001 22.7701 55.951C25.6401 55.941 28.4901 55.501 31.3101 55.001C35.4201 54.241 39.5602 53.361 43.4202 51.691C42.8302 51.811 42.28 52.071 41.69 52.201C37.41 53.461 32.81 53.591 28.47 52.571C22.2 51.131 16.5202 47.271 12.9002 41.951C14.9202 41.911 16.95 41.951 18.98 41.931C22.34 45.431 26.92 47.771 31.75 48.321C31.38 47.981 30.9601 47.711 30.5701 47.421C28.0601 45.561 25.5501 43.711 23.0401 41.861C21.7801 40.911 20.48 40.001 19.24 39.021C21.86 39.021 24.4701 39.011 27.0901 39.021C29.5201 42.211 31.9302 45.411 34.3802 48.581C36.8102 45.391 39.2302 42.201 41.6702 39.021C44.2802 39.021 46.8901 39.021 49.5101 39.021C49.2401 39.271 48.9202 39.471 48.6202 39.701C45.0202 42.361 41.4201 45.021 37.8201 47.681C37.5501 47.881 37.2601 48.061 37.0301 48.311C41.8401 47.771 46.39 45.421 49.75 41.951C51.39 41.901 53.0402 41.941 54.6802 41.931C57.1002 38.641 58.67 34.741 59.24 30.701C59.89 26.091 59.2401 21.301 57.3601 17.041C55.6601 13.151 52.9301 9.72102 49.5501 7.15102C46.0101 8.22102 42.5302 9.47101 39.1502 10.971Z" fill="#696969"/>
<path d="M18.76 6.30097C24.03 2.33097 30.8401 0.470972 37.3901 1.29097C37.4201 1.31097 37.47 1.35097 37.5 1.37097C29.62 4.50097 22.24 8.84097 15.55 14.051C13.48 15.671 11.4801 17.401 9.56006 19.191C11.1901 14.081 14.45 9.50097 18.75 6.30097H18.76Z" fill="#696969"/>
<path d="M27.4399 7.25107C31.3099 5.07107 35.35 3.17107 39.51 1.60107C40.04 1.73107 40.5701 1.87107 41.1101 1.96107C40.9701 2.18107 40.6599 2.16107 40.4399 2.27107C32.9899 4.98107 25.96 8.80108 19.53 13.4311C16.29 15.7711 13.2001 18.3211 10.3301 21.1111C9.78008 21.6311 9.26996 22.1911 8.70996 22.7011C8.79996 22.1111 8.83013 21.4711 9.13013 20.9511C14.5801 15.5911 20.7899 11.0111 27.4399 7.25107Z" fill="#696969"/>
<path d="M29.4302 8.33104C33.5702 6.07104 37.8901 4.13104 42.3701 2.63104C42.9601 2.34104 43.5201 2.86104 44.0901 2.97104C44.0301 3.18104 43.7601 3.16104 43.6001 3.24104C39.1101 4.66104 34.7901 6.55105 30.6401 8.76105C23.9301 12.351 17.6601 16.801 12.1301 22.031C10.8201 23.281 9.55009 24.571 8.34009 25.921C8.38009 25.411 8.37997 24.891 8.46997 24.381C14.53 17.941 21.6999 12.591 29.4399 8.34105L29.4302 8.33104Z" fill="#696969"/>
<path d="M35.6401 22.421C37.0101 21.591 38.45 20.851 39.95 20.271C42.76 22.891 44.73 26.401 45.54 30.151C44.77 30.221 44.02 30.351 43.26 30.491C41.24 27.361 38.6501 24.611 35.6401 22.421Z" fill="#696969"/>
<path d="M23.1802 30.141C24.0302 26.391 25.99 22.901 28.79 20.251C30.28 20.851 31.7201 21.581 33.0901 22.401C30.1001 24.611 27.48 27.331 25.49 30.481C24.72 30.351 23.9502 30.211 23.1802 30.131V30.141Z" fill="#696969"/>
<path d="M26.97 30.811C28.91 27.831 31.4601 25.261 34.3801 23.241C37.2101 25.211 39.6901 27.691 41.6201 30.551C41.6601 30.611 41.73 30.751 41.76 30.811C39.21 31.381 36.7301 32.261 34.3901 33.401C32.0201 32.271 29.54 31.371 26.98 30.801L26.97 30.811Z" fill="#696969"/>
<path d="M17.0201 31.331C18.5201 31.201 20.0201 31.291 21.5201 31.371C21.2601 33.441 21.2202 35.551 21.5602 37.611C20.2502 37.611 18.9402 37.621 17.6402 37.611C16.3002 35.851 16.0001 33.331 17.0101 31.341L17.0201 31.331Z" fill="#696969"/>
<path d="M47.21 31.371C47.84 31.331 48.4601 31.301 49.0901 31.281C49.9701 31.201 50.84 31.311 51.72 31.311C52.53 32.961 52.5299 34.971 51.6899 36.611C51.4899 36.951 51.34 37.351 51.03 37.601C49.75 37.621 48.4699 37.601 47.1899 37.601C47.4799 35.531 47.5 33.431 47.21 31.361V31.371Z" fill="#696969"/>
<path d="M22.9201 31.521C23.5201 31.571 24.1199 31.671 24.7099 31.761C24.0999 32.921 23.5 34.081 23.03 35.291C22.96 35.481 22.87 35.671 22.78 35.861C22.65 34.421 22.7301 32.961 22.9201 31.521Z" fill="#696969"/>
<path d="M44.01 31.801C44.6 31.641 45.2101 31.581 45.8201 31.541C46.0101 32.971 46.07 34.431 45.98 35.871C45.95 35.821 45.8901 35.731 45.8601 35.681C45.3301 34.351 44.74 33.041 44.01 31.801Z" fill="#696969"/>
<path d="M26.1802 32.051C28.4302 32.551 30.62 33.281 32.74 34.181C32.55 34.391 32.28 34.491 32.04 34.641C30.57 35.491 29.1601 36.431 27.8301 37.491C27.7301 37.581 27.6 37.641 27.46 37.621C26.2 37.621 24.95 37.621 23.7 37.621C24.31 35.681 25.17 33.811 26.2 32.051H26.1802Z" fill="#696969"/>
<path d="M35.98 34.191C38.11 33.281 40.3101 32.541 42.5701 32.051C43.5701 33.821 44.45 35.671 45.05 37.611C43.74 37.611 42.4201 37.611 41.1101 37.611C39.8501 36.631 38.5502 35.711 37.1702 34.901C36.7802 34.651 36.35 34.461 35.98 34.181V34.191Z" fill="#696969"/>
</svg>
