<svg width="166" height="21" viewBox="0 0 166 21" fill="none" xmlns="http://www.w3.org/2000/svg">
<path d="M14.61 9.95C13.95 9.55 13.22 9.23 12.43 8.97C11.64 8.71 10.84 8.50001 10.03 8.32001C9.21997 8.15001 8.48998 7.97 7.81998 7.8C7.15998 7.63 6.61997 7.38001 6.21997 7.07001C5.81997 6.76001 5.60995 6.34 5.60995 5.83C5.60995 5.43 5.72998 5.06 5.97998 4.73C6.22998 4.4 6.61996 4.14 7.14996 3.94C7.67996 3.75 8.38996 3.64999 9.26996 3.64999C10.15 3.64999 11 3.77 11.92 4.02C12.84 4.27 13.73 4.64 14.6 5.14L16.01 1.77C15.13 1.22 14.09 0.8 12.91 0.5C11.72 0.21 10.52 0.0599976 9.30997 0.0599976C7.48997 0.0599976 5.97996 0.329995 4.76996 0.869995C3.56996 1.41 2.66996 2.14 2.07996 3.05C1.48996 3.96 1.19998 4.97001 1.19998 6.07001C1.19998 7.08001 1.39998 7.92 1.78998 8.59C2.18998 9.26 2.71998 9.8 3.38998 10.22C4.05998 10.63 4.79998 10.96 5.59998 11.21C6.39998 11.46 7.19996 11.67 7.98996 11.84C8.77996 12.02 9.50996 12.2 10.18 12.39C10.85 12.58 11.39 12.83 11.79 13.13C12.19 13.43 12.4 13.84 12.4 14.36C12.4 14.76 12.27 15.12 12.01 15.42C11.75 15.72 11.35 15.97 10.81 16.15C10.27 16.33 9.54998 16.43 8.66998 16.43C7.50998 16.43 6.35997 16.24 5.21997 15.86C4.07997 15.48 3.09996 15 2.29996 14.41L0.779968 17.78C1.63997 18.44 2.78996 18.98 4.20996 19.39C5.63996 19.8 7.11998 20.01 8.66998 20.01C10.49 20.01 12.01 19.73 13.22 19.18C14.43 18.63 15.34 17.9 15.94 17C16.54 16.1 16.84 15.11 16.84 14.02C16.84 13.03 16.63 12.19 16.22 11.52C15.81 10.85 15.27 10.32 14.61 9.92V9.95Z" fill="#0C0D0D"/>
<path d="M30.15 12.37L22.91 0.390015H19.22V19.7H23.38V8.31001L29.07 17.63H31.05L36.74 8.18001L36.79 19.7H40.96V0.390015H37.23L30.15 12.37Z" fill="#0C0D0D"/>
<path d="M50.9099 0.390015L42.33 19.7H46.9099L48.63 15.56H57.57L59.2899 19.7H63.9799L55.32 0.390015H50.9099ZM50.0399 12.17L53.0999 4.81001L56.1599 12.17H50.0399Z" fill="#0C0D0D"/>
<path d="M78.14 13.48C79.39 12.94 80.3599 12.15 81.0399 11.11C81.7199 10.07 82.06 8.83 82.06 7.37C82.06 5.91 81.7199 4.68999 81.0399 3.64999C80.3599 2.59999 79.39 1.80001 78.14 1.24001C76.89 0.680005 75.4 0.399994 73.67 0.399994H65.31V19.71H69.81V14.3H73.67C73.74 14.3 73.8 14.3 73.87 14.3L77.62 19.71H82.42L78.12 13.5C78.12 13.5 78.14 13.5 78.15 13.49L78.14 13.48ZM76.51 4.89999C77.21 5.47999 77.56 6.29999 77.56 7.37C77.56 8.43999 77.21 9.26001 76.51 9.85001C75.81 10.44 74.78 10.73 73.42 10.73H69.81V4.03H73.42C74.78 4.03 75.81 4.31999 76.51 4.89999Z" fill="#0C0D0D"/>
<path d="M82.45 4.03001H88.62V19.7H93.09V4.03001H99.27V0.390015H82.45V4.03001Z" fill="#0C0D0D"/>
<path d="M105.48 0.390015H100.98V19.7H115.11V16.06H105.48V0.390015Z" fill="#0C0D0D"/>
<path d="M121.45 0.390015H116.95V19.7H121.45V0.390015Z" fill="#0C0D0D"/>
<path d="M142.22 2.87C141.26 1.97 140.15 1.26999 138.87 0.789993C137.59 0.299993 136.19 0.0599976 134.66 0.0599976C133.13 0.0599976 131.73 0.310003 130.45 0.800003C129.17 1.3 128.05 1.99999 127.1 2.89999C126.14 3.79999 125.4 4.85 124.88 6.06C124.36 7.26 124.09 8.59 124.09 10.05C124.09 11.51 124.35 12.81 124.88 14.02C125.41 15.23 126.14 16.29 127.1 17.19C128.06 18.09 129.18 18.79 130.47 19.29C131.76 19.79 133.16 20.03 134.69 20.03C136.22 20.03 137.59 19.79 138.87 19.3C140.15 18.81 141.27 18.12 142.22 17.22C143.18 16.32 143.92 15.26 144.44 14.03C144.96 12.81 145.23 11.48 145.23 10.04C145.23 8.59999 144.97 7.24999 144.44 6.03999C143.92 4.82999 143.18 3.77 142.22 2.87ZM140.25 12.54C139.95 13.28 139.52 13.94 138.97 14.5C138.42 15.06 137.78 15.49 137.05 15.8C136.32 16.1 135.53 16.26 134.66 16.26C133.79 16.26 133 16.11 132.26 15.8C131.52 15.5 130.89 15.06 130.34 14.5C129.8 13.94 129.37 13.29 129.07 12.54C128.77 11.8 128.61 10.96 128.61 10.04C128.61 9.11999 128.76 8.28999 129.07 7.53999C129.37 6.79999 129.8 6.14 130.34 5.58C130.88 5.02 131.52 4.59 132.26 4.28C133 3.98 133.8 3.82001 134.66 3.82001C135.52 3.82001 136.32 3.97 137.05 4.28C137.78 4.58 138.42 5.02 138.97 5.58C139.52 6.14 139.95 6.78999 140.25 7.53999C140.55 8.27999 140.71 9.11999 140.71 10.04C140.71 10.96 140.56 11.79 140.25 12.54Z" fill="#0C0D0D"/>
<path d="M161.2 0.390015V12.1L151.6 0.390015H147.91V19.7H152.32V7.98001L161.92 19.7H165.62V0.390015H161.2Z" fill="#0C0D0D"/>
</svg>
