<svg viewBox="0 0 41 20" fill="none" xmlns="http://www.w3.org/2000/svg">
<path d="M27.4 8.39V0.0299988H40.09L27.4 8.39Z" fill="#0C0D0D"/>
<path d="M14.36 15.93V0.0299988H0.919983L13.47 8.31V19.7H27.4V18.63V18.22V15.93H14.36Z" fill="#00D16D"/>
<path d="M20.5 8.48997C19.62 8.48997 18.75 8.39997 17.89 8.22997L18.16 6.89996C19.7 7.20996 21.31 7.20996 22.85 6.89996L23.12 8.22997C22.26 8.39997 21.39 8.48997 20.51 8.48997H20.5Z" fill="#00D16D"/>
<path d="M33.0499 6.19998C33.2099 6.66998 33.2899 7.16999 33.2899 7.68999C33.2899 10.28 31.1899 12.38 28.5999 12.38C26.0099 12.38 23.9099 10.28 23.9099 7.68999C23.9099 6.00999 24.7899 4.53999 26.1199 3.70999V2.16998C24.0199 3.11998 22.5499 5.22999 22.5499 7.68999C22.5499 11.03 25.2599 13.74 28.5999 13.74C31.9399 13.74 34.6499 11.03 34.6499 7.68999C34.6499 6.88999 34.4899 6.12999 34.2099 5.43999L33.0499 6.20999V6.19998Z" fill="#0C0D0D"/>
<path d="M15.64 2.58V4.3C16.53 5.15 17.09 6.36 17.09 7.69C17.09 10.28 14.99 12.38 12.4 12.38C9.80996 12.38 7.70996 10.28 7.70996 7.69C7.70996 7.17 7.79998 6.67 7.94998 6.2L6.78998 5.42999C6.50998 6.12999 6.34998 6.88999 6.34998 7.67999C6.34998 11.02 9.05996 13.73 12.4 13.73C15.74 13.73 18.45 11.02 18.45 7.67999C18.45 5.53999 17.33 3.65001 15.64 2.57001V2.58Z" fill="#00D16D"/>
</svg>
